<svg width="1220" height="195" viewBox="0 0 1220 195" fill="none" xmlns="http://www.w3.org/2000/svg">
<path d="M370.613 135.828H502.012V189.642H300.871V5.12695H370.613V135.828Z" fill="black"/>
<path d="M692.201 58.9417H606.927V189.642H537.034V58.9417H451.76V5.12695H692.201V58.9417Z" fill="black"/>
<path d="M946.026 152.736V189.643H876.151V163.499C876.151 147.1 871.665 142.482 853.777 142.482H776.062V189.605H706.131V5.08984H862.693C918.317 5.08984 945.988 26.1066 945.988 64.7853C945.988 93.0592 932.793 109.383 908.534 117.073C931.775 118.393 946.026 130.701 946.026 152.736ZM776.062 56.3786V91.2309H845.955C861.6 91.2309 873.343 91.2309 873.343 73.7953C873.343 56.3598 861.6 56.3786 845.955 56.3786H776.062Z" fill="black"/>
<path d="M957.203 97.1303C957.203 34.9277 1005.29 0 1088.6 0C1171.92 0 1220 35.0974 1220 97.1303C1220 159.163 1171.63 194.77 1088.6 194.77C1005.57 194.77 957.203 159.653 957.203 97.1303ZM1147.32 97.1303C1147.32 73.286 1134.46 53.777 1088.6 53.777C1042.74 53.777 1029.89 73.0033 1029.89 97.1303C1029.89 121.257 1043.08 140.955 1088.6 140.955C1134.12 140.955 1147.32 121.22 1147.32 97.1303V97.1303Z" fill="black"/>
<path d="M195.976 5.12695H96.4517L0 189.642H74.0399L146.214 49.2154L218.067 189.642H292.428L195.976 5.12695Z" fill="black"/>
</svg>
