<svg width="190" height="245" viewBox="0 0 190 245" fill="none" xmlns="http://www.w3.org/2000/svg">
<path d="M94.6631 243.562C146.141 243.562 187.873 233.412 187.873 220.891C187.873 208.371 146.141 198.22 94.6631 198.22C43.1846 198.22 1.45312 208.371 1.45312 220.891C1.45312 233.412 43.1846 243.562 94.6631 243.562Z" fill="black" stroke="black" stroke-width="2.64339" stroke-miterlimit="10"/>
<path d="M4.0103 226.17C13.7876 216.195 50.6658 208.79 94.6739 208.79C138.682 208.79 175.56 216.207 185.337 226.17C186.999 224.477 187.88 222.71 187.88 220.916C187.88 208.386 146.151 198.245 94.6739 198.245C43.1964 198.245 1.46399 208.394 1.46399 220.916C1.45186 222.702 2.33696 224.477 4.0103 226.17Z" fill="#FF8F87" stroke="black" stroke-width="0.808377" stroke-miterlimit="10"/>
<path d="M94.6631 47.0863C146.141 47.0863 187.873 36.9361 187.873 24.4153C187.873 11.8945 146.141 1.74438 94.6631 1.74438C43.1846 1.74438 1.45312 11.8945 1.45312 24.4153C1.45312 36.9361 43.1846 47.0863 94.6631 47.0863Z" fill="black" stroke="black" stroke-width="2.64339" stroke-miterlimit="10"/>
<path d="M4.0103 19.1407C13.7876 29.1161 50.6658 36.5208 94.6739 36.5208C138.682 36.5208 175.56 29.0999 185.337 19.1407C186.999 20.8343 187.88 22.6005 187.88 24.4193C187.88 36.9492 146.151 47.0903 94.6739 47.0903C43.1964 47.0903 1.46399 36.9371 1.46399 24.4193C1.45186 22.6005 2.33696 20.8343 4.0103 19.1407Z" fill="#FF8F87" stroke="black" stroke-width="0.808377" stroke-miterlimit="10"/>
<path d="M94.4459 146.068C118.708 146.068 138.377 126.399 138.377 102.137C138.377 77.8742 118.708 58.2055 94.4459 58.2055C70.1833 58.2055 50.5146 77.8742 50.5146 102.137C50.5146 126.399 70.1833 146.068 94.4459 146.068Z" fill="#A3B7FF" stroke="black" stroke-width="1.79056" stroke-miterlimit="10"/>
<path d="M94.3359 1.00074C82.052 0.978469 69.7753 1.59097 57.5547 2.83577C61.5092 9.1025 66.9848 14.2669 73.472 17.8483C79.9592 21.4296 87.2472 23.3115 94.6574 23.3187C102.067 23.326 109.359 21.4584 115.853 17.8897C122.347 14.3211 127.833 9.16747 131.8 2.9085C119.354 1.61202 106.849 0.975222 94.3359 1.00074V1.00074Z" fill="#A3B7FF" stroke="black" stroke-width="1.79056" stroke-miterlimit="10"/>
<path d="M133.371 241.95C136.533 235.263 137.955 227.887 137.506 220.504C137.058 213.121 134.752 205.971 130.804 199.717C126.856 193.462 121.393 188.306 114.921 184.725C108.449 181.145 101.178 179.256 93.7816 179.234C86.3853 179.212 79.1031 181.058 72.6102 184.601C66.1173 188.143 60.6238 193.267 56.6388 199.498C52.6539 205.729 50.3065 212.865 49.8142 220.245C49.322 227.625 50.7008 235.01 53.8229 241.715C67.3637 243.271 80.9838 244.033 94.6136 243.999C107.561 244.026 120.499 243.342 133.371 241.95V241.95Z" fill="#A3B7FF" stroke="black" stroke-width="1.79056" stroke-miterlimit="10"/>
<path d="M95.5478 114.262V119.598H93.4541V114.21C86.7082 113.737 83.9354 110.128 83.6201 104.635H85.5562C85.9604 108.927 87.65 112.431 95.0264 112.431C100.73 112.431 103.292 110.912 103.292 107.096C103.292 103.483 101.356 101.914 96.9625 101.341L91.7282 100.657C87.1245 100.084 84.4528 98.0424 84.4528 93.7862C84.4528 89.5301 87.7994 86.6684 93.4499 86.3572V81.123H95.5437V86.4098C101.667 86.7736 104.436 90.2293 104.751 94.833H102.815C102.556 91.4823 100.62 88.1882 94.3272 88.1882C88.9878 88.1882 86.5304 90.3345 86.5304 93.7862C86.5304 96.1386 87.6823 98.2848 91.9182 98.8062L97.3059 99.4893C102.33 100.116 105.365 101.999 105.365 106.866C105.386 111.853 102.088 114.157 95.5478 114.262Z" fill="black"/>
<path d="M93.7176 238.344V243.68H91.6238V238.292C84.8738 237.823 82.1013 234.209 81.79 228.717H83.7261C84.1303 233.009 85.8157 236.513 93.1922 236.513C98.8953 236.513 101.458 234.998 101.458 231.178C101.458 227.569 99.5258 225.996 95.1283 225.422L89.8981 224.743C85.2944 224.165 82.6227 222.128 82.6227 217.872C82.6227 213.616 85.9693 210.758 91.6198 210.443V205.213H93.7136V210.496C99.833 210.864 102.606 214.315 102.921 218.919H100.985C100.722 215.572 98.7861 212.274 92.4969 212.274C87.1616 212.274 84.7001 214.42 84.7001 217.872C84.7001 220.225 85.8522 222.371 90.0921 222.896L95.4798 223.575C100.5 224.202 103.535 226.085 103.535 230.952C103.551 235.939 100.257 238.239 93.7176 238.344Z" fill="black"/>
</svg>
