<svg xmlns="http://www.w3.org/2000/svg" width="142.714" height="227.268" viewBox="0 0 142.714 227.268">
  <g id="Group_116" data-name="Group 116" transform="translate(0 0.001)">
    <path id="Path_40" data-name="Path 40" d="M67.911,53.729l-4.1,7.842h3.148l2.2-4.335.872-1.633,1.354,2.636h-.006l1,1.96h0l.7,1.372h3.163l-4.1-7.842Z" transform="translate(66.471 55.97)"/>
    <path id="Path_41" data-name="Path 41" d="M67.911,35.819l-4.1,7.842h3.148l2.2-4.335.872-1.633,1.354,2.636h-.006l1,1.962h0l.7,1.37h3.163l-4.1-7.842Z" transform="translate(66.471 37.313)"/>
    <path id="Path_42" data-name="Path 42" d="M67.911,17.909l-4.1,7.844h3.148l2.2-4.337.872-1.633,1.354,2.638h-.006l1,1.96h0l.7,1.372h3.163l-4.1-7.844Z" transform="translate(66.471 18.657)"/>
    <path id="Path_43" data-name="Path 43" d="M67.911,0l-4.1,7.844h3.148l2.2-4.337.872-1.633,1.354,2.636h-.006l1,1.962h0l.7,1.372h3.163L72.143,0Z" transform="translate(66.471 0)"/>
    <path id="Path_44" data-name="Path 44" d="M67.911,71.639l-4.1,7.842h3.148l2.2-4.335.872-1.633,1.354,2.636h-.006l1,1.96h0l.7,1.372h3.163l-4.1-7.842Z" transform="translate(66.471 74.627)"/>
    <path id="Path_45" data-name="Path 45" d="M67.911,89.549l-4.1,7.842h3.148l2.2-4.335.872-1.633,1.354,2.636h-.006l1,1.96h0l.7,1.372h3.163l-4.1-7.842Z" transform="translate(66.471 93.284)"/>
    <path id="Path_46" data-name="Path 46" d="M51.414,71.228h-4.23l-4.1,7.842H46.23l2.2-4.335L49.3,73.1l1.356,2.636h-.006l1,1.96.7,1.372h3.161Z" transform="translate(44.881 74.199)"/>
    <path id="Path_47" data-name="Path 47" d="M51.414,53.318h-4.23l-4.1,7.842H46.23l2.2-4.335.87-1.633,1.356,2.636h-.006l1,1.96.7,1.372h3.161Z" transform="translate(44.881 55.542)"/>
    <path id="Path_48" data-name="Path 48" d="M51.414,35.408h-4.23l-4.1,7.842H46.23l2.2-4.335.87-1.633,1.356,2.636h-.006l1,1.96.7,1.372h3.161Z" transform="translate(44.881 36.886)"/>
    <path id="Path_49" data-name="Path 49" d="M51.414,17.5h-4.23l-4.1,7.842H46.23l2.2-4.335.87-1.633,1.356,2.636h-.006l1,1.96.7,1.372h3.161Z" transform="translate(44.881 18.229)"/>
    <path id="Path_50" data-name="Path 50" d="M51.414,89.138h-4.23l-4.1,7.842H46.23l2.2-4.335.87-1.633,1.356,2.636h-.006l1,1.96.7,1.372h3.161Z" transform="translate(44.881 92.855)"/>
    <path id="Path_51" data-name="Path 51" d="M47.184,107.048l-4.1,7.842h3.146l2.2-4.335.872-1.633,1.354,2.636h0l1,1.96h0l.7,1.372h3.161l-4.1-7.842Z" transform="translate(44.881 111.512)"/>
    <path id="Path_52" data-name="Path 52" d="M30.035,71.652H25.8l-4.1,7.842h3.146l2.2-4.335.87-1.633,1.356,2.636H29.27l1,1.96.7,1.372h3.161Z" transform="translate(22.61 74.64)"/>
    <path id="Path_53" data-name="Path 53" d="M30.035,53.742H25.8l-4.1,7.842h3.146l2.2-4.335.87-1.633,1.356,2.636H29.27l1,1.96.7,1.372h3.161Z" transform="translate(22.61 55.984)"/>
    <path id="Path_54" data-name="Path 54" d="M30.035,35.832H25.8l-4.1,7.842h3.146l2.2-4.335.87-1.633,1.356,2.636H29.27l1,1.96.7,1.372h3.161Z" transform="translate(22.61 37.327)"/>
    <path id="Path_55" data-name="Path 55" d="M30.035,17.922H25.8l-4.1,7.842h3.146l2.2-4.335.87-1.633,1.356,2.636H29.27l1,1.96.7,1.372h3.161Z" transform="translate(22.61 18.67)"/>
    <path id="Path_56" data-name="Path 56" d="M30.035,89.562H25.8l-4.1,7.842h3.146l2.2-4.335.87-1.633,1.356,2.636H29.27l1,1.96.7,1.372h3.161Z" transform="translate(22.61 93.297)"/>
    <path id="Path_57" data-name="Path 57" d="M25.8,107.472l-4.1,7.842h3.148l2.2-4.335.87-1.635,1.354,2.638h0l1,1.96h0l.7,1.372h3.161l-4.1-7.842Z" transform="translate(22.61 111.954)"/>
    <path id="Path_58" data-name="Path 58" d="M4.1,71.548,0,79.39H3.146l2.2-4.335.87-1.633,1.354,2.636h0l1,1.96.7,1.372H12.43l-4.1-7.842Z" transform="translate(0 74.532)"/>
    <path id="Path_59" data-name="Path 59" d="M4.1,53.638,0,61.48H3.146l2.2-4.335.87-1.633,1.354,2.636h0l1,1.96.7,1.372H12.43l-4.1-7.842Z" transform="translate(0 55.876)"/>
    <path id="Path_60" data-name="Path 60" d="M4.1,35.728,0,43.57H3.146l2.2-4.335.87-1.633,1.354,2.636h0l1,1.96.7,1.372H12.43l-4.1-7.842Z" transform="translate(0 37.219)"/>
    <path id="Path_61" data-name="Path 61" d="M4.1,17.818,0,25.66H3.146l2.2-4.335.87-1.633L7.568,22.33h0l1,1.96.7,1.37H12.43l-4.1-7.842Z" transform="translate(0 18.562)"/>
    <path id="Path_62" data-name="Path 62" d="M4.1,89.458,0,97.3H3.146l2.2-4.335.87-1.635,1.354,2.638h0l1,1.96.7,1.372H12.43l-4.1-7.842Z" transform="translate(0 93.189)"/>
    <path id="Path_63" data-name="Path 63" d="M4.1,107.368,0,115.21H3.146l2.2-4.337.87-1.633,1.354,2.638h0l1,1.96.7,1.372H12.43l-4.1-7.842Z" transform="translate(0 111.846)"/>
  </g>
</svg>
