<svg xmlns="http://www.w3.org/2000/svg" width="138.5" height="220.558" viewBox="0 0 138.5 220.558">
  <g id="Group_117" data-name="Group 117" transform="translate(0 0.001)">
    <path id="Path_64" data-name="Path 64" d="M3.979,53.729,0,61.34H3.067l.682-1.332.973-1.9h0l1.314-2.558.844,1.585L9.009,61.34h3.053L8.084,53.729Z" transform="translate(0 52.731)" fill="#fff"/>
    <path id="Path_65" data-name="Path 65" d="M3.979,35.819,0,43.43H3.067l.682-1.33.973-1.9h0l1.314-2.558.844,1.585L9.009,43.43h3.053L8.084,35.819Z" transform="translate(0 35.154)" fill="#fff"/>
    <path id="Path_66" data-name="Path 66" d="M3.979,17.909,0,25.522H3.067l.682-1.332.973-1.9h0l1.314-2.56.844,1.585,2.134,4.209h3.053L8.084,17.909Z" transform="translate(0 17.577)" fill="#fff"/>
    <path id="Path_67" data-name="Path 67" d="M3.979,0,0,7.612H3.067L3.749,6.28l.973-1.9h0L6.031,1.818,6.875,3.4,9.009,7.612h3.053L8.084,0Z" transform="translate(0)" fill="#fff"/>
    <path id="Path_68" data-name="Path 68" d="M3.979,71.639,0,79.25H3.067l.682-1.332.973-1.9h0l1.314-2.558.844,1.585L9.009,79.25h3.053L8.084,71.639Z" transform="translate(0 70.308)" fill="#fff"/>
    <path id="Path_69" data-name="Path 69" d="M3.979,89.549,0,97.16H3.067l.682-1.332.973-1.9h0l1.314-2.558.844,1.585L9.009,97.16h3.053L8.084,89.549Z" transform="translate(0 87.885)" fill="#fff"/>
    <path id="Path_70" data-name="Path 70" d="M24.706,71.228h4.105l3.979,7.611H29.736L27.6,74.632l-.844-1.585-1.316,2.558h.006l-.973,1.9-.682,1.332H20.727Z" transform="translate(20.342 69.905)" fill="#fff"/>
    <path id="Path_71" data-name="Path 71" d="M24.706,53.318h4.105l3.979,7.611H29.736L27.6,56.722l-.844-1.585L25.443,57.7h.006l-.973,1.9-.682,1.332H20.727Z" transform="translate(20.342 52.328)" fill="#fff"/>
    <path id="Path_72" data-name="Path 72" d="M24.706,35.408h4.105l3.979,7.611H29.736L27.6,38.812l-.844-1.585-1.316,2.558h.006l-.973,1.9-.682,1.331H20.727Z" transform="translate(20.342 34.751)" fill="#fff"/>
    <path id="Path_73" data-name="Path 73" d="M24.706,17.5h4.105l3.979,7.611H29.736L27.6,20.9l-.844-1.585-1.316,2.558h.006l-.973,1.9-.682,1.332H20.727Z" transform="translate(20.342 17.174)" fill="#fff"/>
    <path id="Path_74" data-name="Path 74" d="M24.706,89.138h4.105l3.979,7.611H29.736L27.6,92.542l-.844-1.585-1.316,2.558h.006l-.973,1.9-.682,1.331H20.727Z" transform="translate(20.342 87.482)" fill="#fff"/>
    <path id="Path_75" data-name="Path 75" d="M24.706,107.048l-3.979,7.611h3.067l.682-1.331.973-1.9h0l1.314-2.558.844,1.585,2.134,4.207H32.79l-3.979-7.611Z" transform="translate(20.342 105.058)" fill="#fff"/>
    <path id="Path_76" data-name="Path 76" d="M46.085,71.652H50.19l3.979,7.611H51.115l-2.134-4.207-.844-1.585-1.316,2.558h.006l-.973,1.9-.682,1.332H42.106Z" transform="translate(41.323 70.32)" fill="#fff"/>
    <path id="Path_77" data-name="Path 77" d="M46.085,53.742H50.19l3.979,7.611H51.115l-2.134-4.207-.844-1.585-1.316,2.558h.006l-.973,1.9-.682,1.332H42.106Z" transform="translate(41.323 52.744)" fill="#fff"/>
    <path id="Path_78" data-name="Path 78" d="M46.085,35.832H50.19l3.979,7.611H51.115l-2.134-4.207-.844-1.585-1.316,2.558h.006l-.973,1.9-.682,1.332H42.106Z" transform="translate(41.323 35.167)" fill="#fff"/>
    <path id="Path_79" data-name="Path 79" d="M46.085,17.922H50.19l3.979,7.611H51.115l-2.134-4.207-.844-1.585L46.822,22.3h.006l-.973,1.9-.682,1.332H42.106Z" transform="translate(41.323 17.59)" fill="#fff"/>
    <path id="Path_80" data-name="Path 80" d="M46.085,89.562H50.19l3.979,7.611H51.115l-2.134-4.207-.844-1.585-1.316,2.558h.006l-.973,1.9-.682,1.331H42.106Z" transform="translate(41.323 87.897)" fill="#fff"/>
    <path id="Path_81" data-name="Path 81" d="M46.084,107.472l-3.979,7.611h3.069l.68-1.332h0l.971-1.9h0l1.314-2.56.846,1.587,2.132,4.207H54.17l-3.979-7.611Z" transform="translate(41.323 105.474)" fill="#fff"/>
    <path id="Path_82" data-name="Path 82" d="M67.791,71.548l-3.981,7.611H66.88l.68-1.332h0l.973-1.9h-.006l1.316-2.558.844,1.585,2.132,4.207h3.055L71.9,71.548Z" transform="translate(62.624 70.219)" fill="#fff"/>
    <path id="Path_83" data-name="Path 83" d="M67.791,53.638l-3.981,7.611H66.88l.68-1.332h0l.973-1.9h-.006l1.316-2.558.844,1.585,2.132,4.207h3.055L71.9,53.638Z" transform="translate(62.624 52.642)" fill="#fff"/>
    <path id="Path_84" data-name="Path 84" d="M67.791,35.728l-3.981,7.611H66.88l.68-1.331h0l.973-1.9h-.006l1.316-2.558.844,1.585,2.132,4.207h3.055L71.9,35.728Z" transform="translate(62.624 35.065)" fill="#fff"/>
    <path id="Path_85" data-name="Path 85" d="M67.791,17.818l-3.981,7.611H66.88l.68-1.33h0l.973-1.9h-.006l1.316-2.56.844,1.585,2.132,4.207h3.055L71.9,17.818Z" transform="translate(62.624 17.488)" fill="#fff"/>
    <path id="Path_86" data-name="Path 86" d="M67.791,89.458l-3.981,7.611H66.88l.68-1.331h0l.973-1.9h-.006l1.316-2.56.844,1.587,2.132,4.207h3.055L71.9,89.458Z" transform="translate(62.624 87.796)" fill="#fff"/>
    <path id="Path_87" data-name="Path 87" d="M67.791,107.368l-3.981,7.611H66.88l.68-1.332h0l.973-1.9h-.006l1.316-2.56.844,1.585,2.132,4.209h3.055L71.9,107.368Z" transform="translate(62.624 105.373)" fill="#fff"/>
  </g>
</svg>
