<svg width="276" height="163" viewBox="0 0 276 163" fill="none" xmlns="http://www.w3.org/2000/svg">
<rect x="0.5" y="11.5" width="275" height="151" rx="7.5" fill="#15181D" stroke="#23262E"/>
<rect x="47.5081" y="0.508138" width="179.984" height="135.984" rx="1.49186" fill="white"/>
<rect x="65.5" y="99.5" width="147" height="24" rx="4.80603" fill="#FAFAFA"/>
<path d="M114.884 109.907C114.884 111.096 115.574 111.849 116.89 112.136L118.121 112.412C118.757 112.55 119.023 112.858 119.023 113.378C119.023 114.025 118.45 114.418 117.547 114.418C116.677 114.418 116.147 114.025 116.136 113.367H114.778C114.81 114.757 115.892 115.638 117.547 115.638C119.256 115.638 120.381 114.704 120.381 113.261C120.381 112.104 119.734 111.425 118.407 111.138L117.187 110.873C116.539 110.725 116.242 110.417 116.242 109.865C116.242 109.218 116.783 108.814 117.622 108.814C118.386 108.814 118.863 109.207 118.895 109.876H120.254C120.211 108.475 119.214 107.605 117.643 107.605C116.009 107.605 114.884 108.549 114.884 109.907ZM124.974 110.258V113.006C124.974 114.004 124.581 114.481 123.764 114.481C123.042 114.481 122.65 114.078 122.65 113.08V110.258H121.355V113.537C121.355 114.821 122.066 115.638 123.276 115.638C123.976 115.638 124.655 115.298 124.974 114.8L125.069 115.5H126.268V110.258H124.974ZM128.805 115.5L128.89 114.683C129.197 115.288 129.866 115.638 130.651 115.638C132.158 115.638 133.145 114.524 133.145 112.911C133.145 111.255 132.232 110.088 130.736 110.088C129.94 110.088 129.24 110.438 128.9 111.022V107.605H127.606V115.5H128.805ZM128.911 112.858C128.911 111.913 129.495 111.255 130.386 111.255C131.299 111.255 131.84 111.924 131.84 112.858C131.84 113.791 131.299 114.449 130.386 114.449C129.495 114.449 128.911 113.802 128.911 112.858ZM133.773 113.908C133.773 114.938 134.6 115.638 135.906 115.638C137.2 115.638 138.102 114.98 138.102 113.919C138.102 113.112 137.657 112.709 136.776 112.507L135.831 112.285C135.386 112.178 135.152 111.987 135.152 111.69C135.152 111.298 135.449 111.064 135.959 111.064C136.458 111.064 136.755 111.351 136.765 111.796H137.996C137.986 110.778 137.19 110.098 136.012 110.098C134.802 110.098 133.932 110.714 133.932 111.743C133.932 112.582 134.388 113.027 135.333 113.24L136.277 113.462C136.744 113.569 136.882 113.76 136.882 114.025C136.882 114.407 136.553 114.651 135.948 114.651C135.354 114.651 135.014 114.365 135.004 113.908H133.773ZM138.78 112.868C138.78 114.534 139.82 115.638 141.412 115.638C142.781 115.638 143.8 114.8 143.959 113.579H142.654C142.516 114.152 142.06 114.471 141.412 114.471C140.585 114.471 140.075 113.855 140.075 112.868C140.075 111.881 140.627 111.255 141.455 111.255C142.07 111.255 142.505 111.563 142.654 112.157H143.949C143.811 110.894 142.834 110.098 141.402 110.098C139.852 110.098 138.78 111.245 138.78 112.868ZM148.213 110.236C148 110.183 147.82 110.162 147.639 110.162C146.939 110.162 146.44 110.512 146.217 111.032L146.143 110.268H144.923V115.5H146.217V112.953C146.217 111.934 146.801 111.436 147.735 111.436H148.213V110.236ZM149.736 109.207C150.161 109.207 150.511 108.857 150.511 108.422C150.511 107.987 150.161 107.647 149.736 107.647C149.29 107.647 148.94 107.987 148.94 108.422C148.94 108.857 149.29 109.207 149.736 109.207ZM149.089 115.5H150.384V110.258H149.089V115.5ZM152.92 115.5L153.005 114.683C153.313 115.288 153.981 115.638 154.767 115.638C156.274 115.638 157.261 114.524 157.261 112.911C157.261 111.255 156.348 110.088 154.852 110.088C154.056 110.088 153.355 110.438 153.016 111.022V107.605H151.721V115.5H152.92ZM153.026 112.858C153.026 111.913 153.61 111.255 154.501 111.255C155.414 111.255 155.955 111.924 155.955 112.858C155.955 113.791 155.414 114.449 154.501 114.449C153.61 114.449 153.026 113.802 153.026 112.858ZM160.637 115.638C162.006 115.638 162.961 114.948 163.184 113.802H161.984C161.836 114.301 161.369 114.577 160.658 114.577C159.798 114.577 159.31 114.11 159.215 113.187L163.162 113.176V112.783C163.162 111.149 162.165 110.098 160.594 110.098C159.056 110.098 157.984 111.234 157.984 112.879C157.984 114.502 159.077 115.638 160.637 115.638ZM160.605 111.16C161.38 111.16 161.878 111.637 161.878 112.359H159.247C159.374 111.574 159.841 111.16 160.605 111.16Z" fill="#D7D7D7"/>
<rect x="65.5" y="99.5" width="147" height="24" rx="4.80603" stroke="#E5E5E5"/>
<path fill-rule="evenodd" clip-rule="evenodd" d="M79 16C79 15.4477 78.5523 15 78 15H66C65.4477 15 65 15.4477 65 16V28C65 28.5523 65.4477 29 66 29H78C78.5523 29 79 28.5523 79 28V16ZM71.7015 24.7839L75.5197 20.0112L74.5258 19.2161L71.1189 23.4748L69.3914 21.9941L68.5631 22.9605L70.7904 24.8696L71.2902 25.298L71.7015 24.7839Z" fill="#E5E5E5"/>
<rect x="84" y="15" width="129" height="5.08138" rx="1" fill="#E5E5E5"/>
<rect x="84" y="26.0408" width="129" height="6" rx="1" fill="#E5E5E5"/>
<rect x="84" y="38" width="129" height="5" rx="1" fill="#E5E5E5"/>
<path fill-rule="evenodd" clip-rule="evenodd" d="M79 58C79 57.4477 78.5523 57 78 57H66C65.4477 57 65 57.4477 65 58V70C65 70.5523 65.4477 71 66 71H78C78.5523 71 79 70.5523 79 70V58ZM71.7015 66.7839L75.5197 62.0112L74.5258 61.2161L71.1189 65.4748L69.3914 63.9941L68.5631 64.9605L70.7904 66.8696L71.2902 67.298L71.7015 66.7839Z" fill="#E5E5E5"/>
<rect x="84" y="57" width="129" height="5.08138" rx="1" fill="#E5E5E5"/>
<rect x="84" y="68.0408" width="129" height="6" rx="1" fill="#E5E5E5"/>
<rect x="84" y="80" width="129" height="5" rx="1" fill="#E5E5E5"/>
<rect x="47.5081" y="0.508138" width="179.984" height="135.984" rx="1.49186" stroke="#E5E5E5" stroke-width="1.01628"/>
<g style="mix-blend-mode:darken">
<path d="M41 12H222V140C222 141.657 220.657 143 219 143H44C42.3431 143 41 141.657 41 140V12Z" fill="#F5F5F5"/>
</g>
<rect x="47.5081" y="0.508138" width="179.984" height="135.984" rx="1.49186" fill="#0D0F12"/>
<rect x="65.5" y="99.5" width="147" height="24" rx="4.80603" fill="#272C35"/>
<path d="M114.903 109.786C114.903 110.975 115.593 111.728 116.909 112.015L118.14 112.291C118.776 112.429 119.042 112.736 119.042 113.256C119.042 113.904 118.469 114.296 117.567 114.296C116.696 114.296 116.166 113.904 116.155 113.246H114.797C114.829 114.636 115.911 115.517 117.567 115.517C119.275 115.517 120.4 114.583 120.4 113.14C120.4 111.983 119.753 111.304 118.426 111.017L117.206 110.752C116.558 110.603 116.261 110.296 116.261 109.744C116.261 109.096 116.803 108.693 117.641 108.693C118.405 108.693 118.883 109.086 118.914 109.754H120.273C120.23 108.354 119.233 107.483 117.662 107.483C116.028 107.483 114.903 108.428 114.903 109.786Z" fill="#4C556B"/>
<path d="M124.993 110.136V112.885C124.993 113.882 124.6 114.36 123.783 114.36C123.062 114.36 122.669 113.957 122.669 112.959V110.136H121.374V113.416C121.374 114.7 122.085 115.517 123.295 115.517C123.995 115.517 124.675 115.177 124.993 114.678L125.088 115.379H126.288V110.136H124.993Z" fill="#4C556B"/>
<path d="M128.824 115.379L128.909 114.562C129.217 115.167 129.885 115.517 130.67 115.517C132.177 115.517 133.164 114.402 133.164 112.789C133.164 111.134 132.252 109.967 130.755 109.967C129.959 109.967 129.259 110.317 128.919 110.9V107.483H127.625V115.379H128.824ZM128.93 112.736C128.93 111.792 129.514 111.134 130.405 111.134C131.318 111.134 131.859 111.803 131.859 112.736C131.859 113.67 131.318 114.328 130.405 114.328C129.514 114.328 128.93 113.681 128.93 112.736Z" fill="#4C556B"/>
<path d="M133.792 113.787C133.792 114.816 134.62 115.517 135.925 115.517C137.22 115.517 138.122 114.859 138.122 113.798C138.122 112.991 137.676 112.588 136.795 112.386L135.851 112.163C135.405 112.057 135.171 111.866 135.171 111.569C135.171 111.176 135.469 110.943 135.978 110.943C136.477 110.943 136.774 111.229 136.784 111.675H138.015C138.005 110.656 137.209 109.977 136.031 109.977C134.821 109.977 133.951 110.593 133.951 111.622C133.951 112.46 134.407 112.906 135.352 113.118L136.296 113.341C136.763 113.447 136.901 113.638 136.901 113.904C136.901 114.286 136.572 114.53 135.967 114.53C135.373 114.53 135.033 114.243 135.023 113.787H133.792Z" fill="#4C556B"/>
<path d="M138.8 112.747C138.8 114.413 139.84 115.517 141.431 115.517C142.8 115.517 143.819 114.678 143.978 113.458H142.673C142.535 114.031 142.079 114.349 141.431 114.349C140.604 114.349 140.094 113.734 140.094 112.747C140.094 111.76 140.646 111.134 141.474 111.134C142.089 111.134 142.524 111.442 142.673 112.036H143.968C143.83 110.773 142.853 109.977 141.421 109.977C139.871 109.977 138.8 111.123 138.8 112.747Z" fill="#4C556B"/>
<path d="M148.232 110.115C148.019 110.062 147.839 110.041 147.659 110.041C146.958 110.041 146.459 110.391 146.237 110.911L146.162 110.147H144.942V115.379H146.237V112.832C146.237 111.813 146.82 111.314 147.754 111.314H148.232V110.115Z" fill="#4C556B"/>
<path d="M149.755 109.086C150.18 109.086 150.53 108.736 150.53 108.301C150.53 107.865 150.18 107.526 149.755 107.526C149.31 107.526 148.959 107.865 148.959 108.301C148.959 108.736 149.31 109.086 149.755 109.086ZM149.108 115.379H150.403V110.136H149.108V115.379Z" fill="#4C556B"/>
<path d="M152.939 115.379L153.024 114.562C153.332 115.167 154.001 115.517 154.786 115.517C156.293 115.517 157.28 114.402 157.28 112.789C157.28 111.134 156.367 109.967 154.871 109.967C154.075 109.967 153.375 110.317 153.035 110.9V107.483H151.74V115.379H152.939ZM153.046 112.736C153.046 111.792 153.629 111.134 154.521 111.134C155.433 111.134 155.974 111.803 155.974 112.736C155.974 113.67 155.433 114.328 154.521 114.328C153.629 114.328 153.046 113.681 153.046 112.736Z" fill="#4C556B"/>
<path d="M160.656 115.517C162.025 115.517 162.98 114.827 163.203 113.681H162.004C161.855 114.18 161.388 114.456 160.677 114.456C159.818 114.456 159.329 113.989 159.234 113.065L163.182 113.055V112.662C163.182 111.028 162.184 109.977 160.613 109.977C159.075 109.977 158.003 111.113 158.003 112.758C158.003 114.381 159.096 115.517 160.656 115.517ZM160.624 111.038C161.399 111.038 161.897 111.516 161.897 112.238H159.266C159.393 111.452 159.86 111.038 160.624 111.038Z" fill="#4C556B"/>
<rect x="65.5" y="99.5" width="147" height="24" rx="4.80603" stroke="#313A49"/>
<path fill-rule="evenodd" clip-rule="evenodd" d="M79 16C79 15.4477 78.5523 15 78 15H66C65.4477 15 65 15.4477 65 16V28C65 28.5523 65.4477 29 66 29H78C78.5523 29 79 28.5523 79 28V16ZM71.7015 24.7839L75.5197 20.0112L74.5258 19.2161L71.1189 23.4748L69.3914 21.9941L68.5631 22.9605L70.7904 24.8696L71.2902 25.298L71.7015 24.7839Z" fill="#272C35"/>
<rect x="89" y="15" width="124" height="5.08138" rx="1" fill="#272C35"/>
<rect x="89" y="26.0408" width="124" height="6" rx="1" fill="#272C35"/>
<rect x="89" y="38" width="124" height="5" rx="1" fill="#272C35"/>
<path fill-rule="evenodd" clip-rule="evenodd" d="M79 58C79 57.4477 78.5523 57 78 57H66C65.4477 57 65 57.4477 65 58V70C65 70.5523 65.4477 71 66 71H78C78.5523 71 79 70.5523 79 70V58ZM71.7015 66.7839L75.5197 62.0112L74.5258 61.2161L71.1189 65.4748L69.3914 63.9941L68.5631 64.9605L70.7904 66.8696L71.2902 67.298L71.7015 66.7839Z" fill="#272C35"/>
<rect x="89" y="57" width="124" height="5.08138" rx="1" fill="#272C35"/>
<rect x="89" y="68.0408" width="124" height="6" rx="1" fill="#272C35"/>
<rect x="89" y="80" width="124" height="5" rx="1" fill="#272C35"/>
<rect x="47.5081" y="0.508138" width="179.984" height="135.984" rx="1.49186" stroke="#23262E" stroke-width="1.01628"/>
<path d="M177.408 130.335L184.029 153.562C184.502 155.222 186.759 155.498 187.62 154.001L192.364 145.753C192.477 145.556 192.657 145.407 192.872 145.331L201.894 142.134C203.531 141.554 203.649 139.303 202.081 138.553L180.145 128.059C178.623 127.331 176.948 128.723 177.408 130.335Z" fill="#121317" stroke="#23262E"/>
</svg>
