<svg width="32" height="32" viewBox="0 0 32 32" fill="none" xmlns="http://www.w3.org/2000/svg">
<g clip-path="url(#clip0_2050_69454)">
<path d="M27.2532 12.3599C27.1999 12.2502 27.1164 12.1581 27.0124 12.0943C26.9085 12.0305 26.7885 11.9978 26.6666 11.9999H16.8266L19.3199 0.813244C19.3657 0.653842 19.3517 0.483187 19.2805 0.333394C19.2093 0.183602 19.0858 0.0650005 18.9332 -8.9619e-05C18.7923 -0.0619911 18.6344 -0.0732387 18.4861 -0.0319237C18.3379 0.00939127 18.2085 0.100724 18.1199 0.226577L4.78657 18.8932C4.72151 18.9972 4.68701 19.1173 4.68701 19.2399C4.68701 19.3625 4.72151 19.4826 4.78657 19.5866C4.83047 19.6993 4.90483 19.7977 5.00136 19.8707C5.09788 19.9437 5.21278 19.9884 5.33324 19.9999H15.1732L12.6799 31.1866C12.6341 31.346 12.6481 31.5166 12.7193 31.6664C12.7905 31.8162 12.914 31.9348 13.0666 31.9999C13.2082 32.0569 13.3647 32.0656 13.5117 32.0247C13.6588 31.9837 13.7882 31.8953 13.8799 31.7732L27.2132 13.1066C27.2955 13.0012 27.3435 12.8731 27.3506 12.7395C27.3578 12.606 27.3238 12.4735 27.2532 12.3599Z" fill="url(#paint0_linear_2050_69454)"/>
</g>
<defs>
<linearGradient id="paint0_linear_2050_69454" x1="16.0193" y1="-0.0563965" x2="16.0193" y2="32.0501" gradientUnits="userSpaceOnUse">
<stop offset="0.244792" stop-color="#F971BA"/>
<stop offset="1" stop-color="#8932F7"/>
</linearGradient>
<clipPath id="clip0_2050_69454">
<rect width="32" height="32" fill="white"/>
</clipPath>
</defs>
</svg>
