<svg width="32" height="32" viewBox="0 0 32 32" fill="none" xmlns="http://www.w3.org/2000/svg">
<g clip-path="url(#clip0_2051_69495)">
<path d="M17 11.3733C16.9965 11.1091 16.8901 10.8568 16.7033 10.67C16.5165 10.4832 16.2641 10.3767 16 10.3733H8C7.73478 10.3733 7.48043 10.4786 7.29289 10.6662C7.10536 10.8537 7 11.1081 7 11.3733C7 11.6385 7.10536 11.8929 7.29289 12.0804C7.48043 12.2679 7.73478 12.3733 8 12.3733H16C16.2641 12.3698 16.5165 12.2634 16.7033 12.0766C16.8901 11.8898 16.9965 11.6374 17 11.3733Z" fill="url(#paint0_linear_2051_69495)"/>
<path d="M13.3332 25.7066C13.3408 25.6625 13.339 25.6173 13.3281 25.574C13.3171 25.5306 13.2971 25.49 13.2695 25.4548C13.2418 25.4197 13.2071 25.3907 13.1676 25.3697C13.128 25.3488 13.0845 25.3364 13.0399 25.3333H4.66658C4.48977 25.3333 4.3202 25.2631 4.19517 25.138C4.07015 25.013 3.99991 24.8434 3.99991 24.6666V7.3333C3.99991 7.15649 4.07015 6.98692 4.19517 6.8619C4.3202 6.73688 4.48977 6.66664 4.66658 6.66664H19.3332C19.5101 6.66664 19.6796 6.73688 19.8047 6.8619C19.9297 6.98692 19.9999 7.15649 19.9999 7.3333V12.4666C20.0008 12.5327 20.0214 12.597 20.0589 12.6514C20.0964 12.7057 20.1492 12.7477 20.2107 12.772C20.2721 12.7963 20.3394 12.8018 20.4039 12.7878C20.4685 12.7738 20.5274 12.7409 20.5732 12.6933C21.3793 11.8614 22.4817 11.3821 23.6399 11.36C23.6848 11.3636 23.7299 11.3581 23.7726 11.3438C23.8153 11.3295 23.8546 11.3068 23.8883 11.2769C23.9219 11.247 23.9491 11.2106 23.9683 11.1698C23.9875 11.1291 23.9983 11.0849 23.9999 11.04V4.70664C24.0052 4.44065 23.9574 4.17627 23.8593 3.92898C23.7612 3.68169 23.6147 3.45647 23.4285 3.26649C23.2422 3.07652 23.0199 2.92561 22.7746 2.82261C22.5293 2.71961 22.266 2.66658 21.9999 2.66664H16.6666C16.6104 2.66465 16.5556 2.64905 16.5068 2.62118C16.4581 2.59331 16.4168 2.554 16.3866 2.50664C15.9346 1.74387 15.2918 1.11192 14.5215 0.672965C13.7512 0.234009 12.8799 0.00317383 11.9932 0.00317383C11.1066 0.00317383 10.2353 0.234009 9.46497 0.672965C8.69465 1.11192 8.05188 1.74387 7.59991 2.50664C7.57273 2.55378 7.53398 2.59321 7.48732 2.62121C7.44066 2.64921 7.38763 2.66484 7.33325 2.66664H1.99991C1.73387 2.66658 1.47049 2.71961 1.22519 2.82261C0.979896 2.92561 0.757616 3.07652 0.571366 3.26649C0.385116 3.45647 0.238641 3.68169 0.140517 3.92898C0.0423922 4.17627 -0.00540909 4.44065 -8.8212e-05 4.70664V27.3733C0.0103833 27.8968 0.225711 28.3953 0.599655 28.7617C0.973598 29.1282 1.47634 29.3334 1.99991 29.3333H13.9999C14.0616 29.3366 14.123 29.322 14.1766 29.2912C14.2302 29.2604 14.2737 29.2148 14.3019 29.1598C14.3301 29.1048 14.3418 29.0428 14.3355 28.9813C14.3292 28.9198 14.3053 28.8615 14.2666 28.8133C13.6697 27.8861 13.3462 26.8093 13.3332 25.7066Z" fill="url(#paint1_linear_2051_69495)"/>
<path d="M16 15.24C16.1067 15.24 16.1467 15.04 16.0667 15.04H8C7.73478 15.04 7.48043 15.1454 7.29289 15.3329C7.10536 15.5205 7 15.7748 7 16.04C7 16.3053 7.10536 16.5596 7.29289 16.7471C7.48043 16.9347 7.73478 17.04 8 17.04H13.76C13.8073 17.0405 13.8541 17.0312 13.8977 17.0129C13.9413 16.9945 13.9806 16.9675 14.0133 16.9334C14.5904 16.2761 15.2596 15.7057 16 15.24Z" fill="url(#paint2_linear_2051_69495)"/>
<path d="M13.08 19.7065H8C7.73478 19.7065 7.48043 19.8119 7.29289 19.9994C7.10536 20.187 7 20.4413 7 20.7065C7 20.9718 7.10536 21.2261 7.29289 21.4136C7.48043 21.6012 7.73478 21.7065 8 21.7065H13.3333C13.4262 21.7195 13.5204 21.7195 13.6133 21.7065C13.661 21.6918 13.7051 21.6672 13.7428 21.6345C13.7805 21.6018 13.8109 21.5615 13.8323 21.5164C13.8536 21.4713 13.8653 21.4222 13.8666 21.3723C13.8679 21.3224 13.8589 21.2728 13.84 21.2265C13.6687 20.8224 13.5218 20.4083 13.4 19.9865C13.3876 19.9099 13.3489 19.84 13.2904 19.7889C13.232 19.7378 13.1576 19.7087 13.08 19.7065Z" fill="url(#paint3_linear_2051_69495)"/>
<path d="M23.6665 24.6667C24.7711 24.6667 25.6665 23.7713 25.6665 22.6667C25.6665 21.5622 24.7711 20.6667 23.6665 20.6667C22.5619 20.6667 21.6665 21.5622 21.6665 22.6667C21.6665 23.7713 22.5619 24.6667 23.6665 24.6667Z" fill="url(#paint4_linear_2051_69495)"/>
<path d="M30.0398 23.08C29.9367 22.967 29.8796 22.8196 29.8796 22.6667C29.8796 22.5138 29.9367 22.3664 30.0398 22.2534L31.3731 20.8267C31.7203 20.4553 31.939 19.9822 31.997 19.4771C32.055 18.972 31.9494 18.4616 31.6955 18.0211C31.4417 17.5806 31.0531 17.2333 30.587 17.0303C30.1209 16.8272 29.6019 16.7792 29.1064 16.8934L27.2131 17.3334C27.0614 17.3666 26.9027 17.3411 26.769 17.2619C26.6354 17.1827 26.5368 17.0558 26.4931 16.9067L25.9331 15.0534C25.7829 14.5696 25.4819 14.1465 25.0741 13.8461C24.6663 13.5456 24.173 13.3835 23.6664 13.3835C23.1599 13.3835 22.6666 13.5456 22.2588 13.8461C21.8509 14.1465 21.5499 14.5696 21.3998 15.0534L20.8398 16.9067C20.7934 17.054 20.6943 17.1791 20.5614 17.2578C20.4286 17.3366 20.2713 17.3635 20.1198 17.3334L18.2398 16.8934C17.7465 16.7873 17.2322 16.8411 16.7716 17.0472C16.311 17.2532 15.928 17.6007 15.6783 18.0391C15.4286 18.4776 15.3251 18.9842 15.383 19.4855C15.4408 19.9868 15.6568 20.4566 15.9998 20.8267L17.3331 22.2534C17.4362 22.3664 17.4933 22.5138 17.4933 22.6667C17.4933 22.8196 17.4362 22.967 17.3331 23.08L15.9998 24.5067C15.6526 24.8781 15.4339 25.3512 15.3759 25.8563C15.3178 26.3614 15.4235 26.8718 15.6774 27.3123C15.9312 27.7528 16.3198 28.1001 16.7859 28.3031C17.252 28.5062 17.771 28.5542 18.2664 28.44L20.1198 28C20.2695 27.9692 20.4254 27.9942 20.558 28.0704C20.6906 28.1465 20.7908 28.2685 20.8398 28.4134L21.3998 30.28C21.5499 30.7638 21.8509 31.1869 22.2588 31.4873C22.6666 31.7878 23.1599 31.9498 23.6664 31.9498C24.173 31.9498 24.6663 31.7878 25.0741 31.4873C25.4819 31.1869 25.7829 30.7638 25.9331 30.28L26.4931 28.4134C26.542 28.2685 26.6422 28.1465 26.7748 28.0704C26.9075 27.9942 27.0633 27.9692 27.2131 28L29.0931 28.44C29.5885 28.5542 30.1075 28.5062 30.5736 28.3031C31.0397 28.1001 31.4283 27.7528 31.6822 27.3123C31.936 26.8718 32.0417 26.3614 31.9837 25.8563C31.9256 25.3512 31.7069 24.8781 31.3598 24.5067L30.0398 23.08ZM23.6664 26.6667C22.8753 26.6667 22.102 26.4321 21.4442 25.9926C20.7864 25.5531 20.2737 24.9283 19.9709 24.1974C19.6682 23.4665 19.589 22.6623 19.7433 21.8863C19.8976 21.1104 20.2786 20.3977 20.838 19.8383C21.3974 19.2789 22.1101 18.8979 22.8861 18.7436C23.662 18.5892 24.4663 18.6684 25.1972 18.9712C25.9281 19.2739 26.5528 19.7866 26.9923 20.4444C27.4318 21.1022 27.6664 21.8756 27.6664 22.6667C27.6664 23.7276 27.245 24.745 26.4949 25.4951C25.7447 26.2453 24.7273 26.6667 23.6664 26.6667Z" fill="url(#paint5_linear_2051_69495)"/>
</g>
<defs>
<linearGradient id="paint0_linear_2051_69495" x1="12" y1="10.3733" x2="12" y2="12.3733" gradientUnits="userSpaceOnUse">
<stop offset="0.244792" stop-color="#F971BA"/>
<stop offset="1" stop-color="#8932F7"/>
</linearGradient>
<linearGradient id="paint1_linear_2051_69495" x1="11.9999" y1="0.00317383" x2="11.9999" y2="29.3338" gradientUnits="userSpaceOnUse">
<stop offset="0.244792" stop-color="#F971BA"/>
<stop offset="1" stop-color="#8932F7"/>
</linearGradient>
<linearGradient id="paint2_linear_2051_69495" x1="11.5545" y1="15.04" x2="11.5545" y2="17.0401" gradientUnits="userSpaceOnUse">
<stop offset="0.244792" stop-color="#F971BA"/>
<stop offset="1" stop-color="#8932F7"/>
</linearGradient>
<linearGradient id="paint3_linear_2051_69495" x1="10.4334" y1="19.7065" x2="10.4334" y2="21.7163" gradientUnits="userSpaceOnUse">
<stop offset="0.244792" stop-color="#F971BA"/>
<stop offset="1" stop-color="#8932F7"/>
</linearGradient>
<linearGradient id="paint4_linear_2051_69495" x1="23.6665" y1="20.6667" x2="23.6665" y2="24.6667" gradientUnits="userSpaceOnUse">
<stop offset="0.244792" stop-color="#F971BA"/>
<stop offset="1" stop-color="#8932F7"/>
</linearGradient>
<linearGradient id="paint5_linear_2051_69495" x1="23.6864" y1="13.3835" x2="23.6864" y2="31.9499" gradientUnits="userSpaceOnUse">
<stop offset="0.244792" stop-color="#F971BA"/>
<stop offset="1" stop-color="#8932F7"/>
</linearGradient>
<clipPath id="clip0_2051_69495">
<rect width="32" height="32" fill="white"/>
</clipPath>
</defs>
</svg>
