<svg width="32" height="32" viewBox="0 0 32 32" fill="none" xmlns="http://www.w3.org/2000/svg">
<g clip-path="url(#clip0_2051_69485)">
<path d="M31.8803 21.72L30.0803 15.2933C29.841 14.4433 29.2741 13.723 28.5042 13.2905C27.7342 12.858 26.8241 12.7487 25.9737 12.9867L24.9603 13.2667L25.667 12.3867C25.9421 12.0466 26.1473 11.6555 26.2708 11.2358C26.3942 10.8162 26.4336 10.3762 26.3865 9.94135C26.3394 9.50645 26.2068 9.08515 25.9964 8.70165C25.786 8.31815 25.5019 7.98001 25.1603 7.70667L20.0003 3.52C19.6612 3.23926 19.2696 3.02878 18.8483 2.90082C18.427 2.77285 17.9845 2.72995 17.5465 2.77462C17.1085 2.81929 16.6838 2.95063 16.297 3.161C15.9102 3.37138 15.5692 3.65657 15.2937 4L13.9603 5.68C13.9223 5.73707 13.8654 5.77899 13.7996 5.79848C13.7339 5.81797 13.6633 5.81379 13.6003 5.78667C13.5323 5.77351 13.4701 5.73947 13.4223 5.68928C13.3745 5.6391 13.3435 5.57527 13.3337 5.50667V3.33333C13.3337 2.44928 12.9825 1.60143 12.3574 0.976311C11.7322 0.351189 10.8844 0 10.0003 0L3.33367 0C2.44962 0 1.60177 0.351189 0.976649 0.976311C0.351527 1.60143 0.000337818 2.44928 0.000337818 3.33333V25.08C-0.0258922 26.7716 0.573318 28.4134 1.68305 29.6905C2.79278 30.9675 4.33491 31.79 6.01367 32H6.667C8.00034 32 7.32034 32 29.547 25.8267C30.4 25.5899 31.1244 25.0249 31.5617 24.2552C31.9991 23.4855 32.1136 22.5739 31.8803 21.72ZM17.3337 5.69333C17.4477 5.55722 17.6104 5.47109 17.787 5.45333C17.8749 5.4423 17.9641 5.44964 18.0491 5.47489C18.134 5.50014 18.2127 5.54274 18.2803 5.6L23.467 9.78667C23.5356 9.84102 23.5925 9.90859 23.6344 9.98536C23.6764 10.0621 23.7025 10.1465 23.7112 10.2336C23.7199 10.3206 23.711 10.4085 23.6851 10.4921C23.6592 10.5756 23.6168 10.6532 23.5603 10.72L13.8937 22.72C13.8513 22.7719 13.7943 22.8098 13.7301 22.8288C13.6659 22.8479 13.5974 22.8471 13.5337 22.8267C13.468 22.8024 13.4112 22.7589 13.3707 22.7018C13.3303 22.6447 13.3081 22.5767 13.307 22.5067V10.8133C13.3283 10.7555 13.3652 10.7048 13.4137 10.6667L17.3337 5.69333ZM6.667 12C7.19442 12 7.70999 12.1564 8.14852 12.4494C8.58706 12.7424 8.92885 13.1589 9.13068 13.6462C9.33252 14.1334 9.38533 14.6696 9.28243 15.1869C9.17954 15.7042 8.92556 16.1793 8.55262 16.5523C8.17968 16.9252 7.70453 17.1792 7.18725 17.2821C6.66996 17.385 6.13378 17.3322 5.64652 17.1303C5.15925 16.9285 4.74277 16.5867 4.44975 16.1482C4.15674 15.7097 4.00034 15.1941 4.00034 14.6667C4.00034 13.9594 4.28129 13.2811 4.78139 12.781C5.28148 12.281 5.95976 12 6.667 12ZM4.00034 6C4.00034 5.47258 4.15674 4.95701 4.44975 4.51848C4.74277 4.07995 5.15925 3.73816 5.64652 3.53632C6.13378 3.33449 6.66996 3.28168 7.18725 3.38457C7.70453 3.48747 8.17968 3.74144 8.55262 4.11438C8.92556 4.48732 9.17954 4.96248 9.28243 5.47976C9.38533 5.99704 9.33252 6.53322 9.13068 7.02049C8.92885 7.50776 8.58706 7.92424 8.14852 8.21725C7.70999 8.51027 7.19442 8.66667 6.667 8.66667C5.95976 8.66667 5.28148 8.38572 4.78139 7.88562C4.28129 7.38552 4.00034 6.70724 4.00034 6ZM6.667 20.6667C7.19442 20.6667 7.70999 20.8231 8.14852 21.1161C8.58706 21.4091 8.92885 21.8256 9.13068 22.3128C9.33252 22.8001 9.38533 23.3363 9.28243 23.8536C9.17954 24.3709 8.92556 24.846 8.55262 25.219C8.17968 25.5919 7.70453 25.8459 7.18725 25.9488C6.66996 26.0517 6.13378 25.9988 5.64652 25.797C5.15925 25.5952 4.74277 25.2534 4.44975 24.8149C4.15674 24.3763 4.00034 23.8608 4.00034 23.3333C4.00034 22.6261 4.28129 21.9478 4.78139 21.4477C5.28148 20.9476 5.95976 20.6667 6.667 20.6667ZM28.8403 23.2533L14.427 27.2533C14.3593 27.2742 14.2864 27.2711 14.2208 27.2443C14.1552 27.2176 14.1008 27.1689 14.067 27.1067C14.0248 27.051 14.002 26.9831 14.002 26.9133C14.002 26.8435 14.0248 26.7756 14.067 26.72L22.067 16.88C22.1102 16.8249 22.1717 16.7871 22.2403 16.7733L26.667 15.5467C26.8367 15.5017 27.0173 15.5255 27.1696 15.6128C27.3219 15.7002 27.4335 15.8441 27.4803 16.0133L29.3337 22.44C29.3575 22.5259 29.3634 22.6157 29.3512 22.7039C29.339 22.7922 29.3089 22.877 29.2626 22.9532C29.2164 23.0294 29.1551 23.0953 29.0825 23.1469C29.0099 23.1985 28.9275 23.2347 28.8403 23.2533Z" fill="url(#paint0_linear_2051_69485)"/>
</g>
<defs>
<linearGradient id="paint0_linear_2051_69485" x1="15.9991" y1="0" x2="15.9991" y2="32" gradientUnits="userSpaceOnUse">
<stop offset="0.244792" stop-color="#F971BA"/>
<stop offset="1" stop-color="#8932F7"/>
</linearGradient>
<clipPath id="clip0_2051_69485">
<rect width="32" height="32" fill="white"/>
</clipPath>
</defs>
</svg>
