<?xml version="1.0" encoding="utf-8"?><svg id="Layer_1" data-name="Layer 1" xmlns="http://www.w3.org/2000/svg" viewBox="0 0 110 26"><title>logo</title><path d="M0,7.34H4.57L7.7,19.15,11.34,7.34h4.14l3.63,11.81,3.1-11.81h4.57L21.17,25.48H17.1L13.43,13.64,9.68,25.48h-4Z"/><path d="M29,0h4.54V10.15a6.43,6.43,0,0,1,5.76-3.09c4.06,0,6.76,2.59,6.76,6.55V25.48H41.52V14.72a3.35,3.35,0,0,0-3.6-3.63c-2.81,0-4.39,2.41-4.39,6.51v7.88H29Z"/><path d="M48.91,16.41a9.09,9.09,0,0,1,9.46-9.35,9.1,9.1,0,0,1,9.47,9.35,9.11,9.11,0,0,1-9.47,9.36A9.1,9.1,0,0,1,48.91,16.41Zm14.36,0c0-3.24-2-5.43-4.9-5.43s-4.89,2.19-4.89,5.43,1.94,5.44,4.89,5.44S63.27,19.65,63.27,16.41Z"/><path d="M70.8,0h4.53V25.48H70.8Z"/><path d="M96.25,17.6H82.79C83.18,20.34,85,22,87.54,22c2.12,0,3.63-1,4.1-2.77l4.25,1.15c-1,3.42-4.18,5.43-8.42,5.43-6,0-9.22-4.64-9.22-9.36s3-9.35,9-9.35,9.11,4.53,9.11,8.74C96.32,16.45,96.29,17.24,96.25,17.6Zm-4.79-3.31a4,4,0,0,0-4.25-3.78c-2.23,0-3.81,1.33-4.31,3.78Z"/><path d="M99.33,22.23a3.13,3.13,0,1,1,3.13,3.13A3.11,3.11,0,0,1,99.33,22.23Z" style="fill:#50c6aa"/></svg>