<svg width="25" height="25" viewBox="0 0 25 25" fill="none" xmlns="http://www.w3.org/2000/svg">
<g clip-path="url(#clip0_65_13)">
<path d="M7.5808 15.9731C7.58079 14.1392 8.1603 12.3522 9.23655 10.8674C10.3128 9.38249 11.8308 8.27568 13.5736 7.70502C15.3164 7.13437 17.195 7.12904 18.9411 7.68981C20.6872 8.25059 22.2114 9.34877 23.296 10.8275C23.3707 10.9299 23.4759 11.0061 23.5965 11.045C23.7172 11.0839 23.847 11.0837 23.9675 11.0442C24.088 11.0048 24.1929 10.9282 24.2671 10.8254C24.3414 10.7227 24.3812 10.5991 24.3808 10.4723V2.47312C24.3808 1.8366 24.1279 1.22615 23.6779 0.776064C23.2278 0.325977 22.6173 0.0731201 21.9808 0.0731201L2.7808 0.0731201C2.14428 0.0731201 1.53383 0.325977 1.08374 0.776064C0.633655 1.22615 0.380798 1.8366 0.380798 2.47312L0.380798 16.8731C0.380798 17.5096 0.633655 18.1201 1.08374 18.5702C1.53383 19.0203 2.14428 19.2731 2.7808 19.2731H7.3792C7.47296 19.2731 7.56541 19.2511 7.64912 19.2088C7.73284 19.1666 7.8055 19.1054 7.86127 19.03C7.91704 18.9546 7.95437 18.8672 7.97026 18.7748C7.98616 18.6824 7.98018 18.5876 7.9528 18.4979C7.70512 17.6792 7.57977 16.8284 7.5808 15.9731ZM2.7808 4.27312V3.07312C2.7808 2.91399 2.84401 2.76138 2.95653 2.64886C3.06906 2.53633 3.22167 2.47312 3.3808 2.47312H21.3808C21.5399 2.47312 21.6925 2.53633 21.8051 2.64886C21.9176 2.76138 21.9808 2.91399 21.9808 3.07312V4.27312C21.9808 4.43225 21.9176 4.58486 21.8051 4.69738C21.6925 4.80991 21.5399 4.87312 21.3808 4.87312H3.3808C3.22167 4.87312 3.06906 4.80991 2.95653 4.69738C2.84401 4.58486 2.7808 4.43225 2.7808 4.27312Z" fill="white"/>
<path d="M23.9416 21.5123L21.6664 19.2371C22.4661 17.9187 22.7551 16.3531 22.4789 14.8361C22.2027 13.3191 21.3803 11.9559 20.1672 11.004C18.9542 10.0522 17.4344 9.57766 15.8953 9.67018C14.3561 9.76271 12.9042 10.4158 11.8139 11.5062C10.7236 12.5965 10.0704 14.0484 9.97789 15.5876C9.88537 17.1267 10.3599 18.6465 11.3117 19.8595C12.2636 21.0726 13.6268 21.895 15.1438 22.1712C16.6608 22.4474 18.2264 22.1584 19.5448 21.3587L21.82 23.6339C22.1013 23.9152 22.4829 24.0733 22.8808 24.0733C23.2787 24.0733 23.6603 23.9152 23.9416 23.6339C24.2229 23.3525 24.381 22.971 24.381 22.5731C24.381 22.1752 24.2229 21.7936 23.9416 21.5123ZM12.9808 15.9731C12.9808 15.3204 13.1743 14.6824 13.5369 14.1397C13.8996 13.597 14.4149 13.1741 15.0179 12.9243C15.6209 12.6745 16.2845 12.6092 16.9246 12.7365C17.5647 12.8638 18.1527 13.1781 18.6143 13.6396C19.0758 14.1012 19.3901 14.6892 19.5174 15.3293C19.6447 15.9694 19.5794 16.6329 19.3296 17.2359C19.0798 17.8389 18.6569 18.3543 18.1142 18.7169C17.5715 19.0795 16.9335 19.2731 16.2808 19.2731C15.406 19.2718 14.5673 18.9237 13.9487 18.3051C13.3302 17.6865 12.9821 16.8479 12.9808 15.9731Z" fill="white"/>
</g>
<defs>
<clipPath id="clip0_65_13">
<rect width="24" height="24" fill="white" transform="translate(0.380798 0.0731201)"/>
</clipPath>
</defs>
</svg>
