<svg width="24" height="24" viewBox="0 0 24 24" fill="none" xmlns="http://www.w3.org/2000/svg">
<g clip-path="url(#clip0_65_8)">
<path d="M21.2304 13.5456V10.4544L22.6104 8.724C22.8427 8.43451 22.9819 8.08149 23.0098 7.71138C23.0376 7.34126 22.9528 6.97138 22.7664 6.6504L22.0176 5.3496C21.8321 5.02817 21.554 4.77013 21.2197 4.60915C20.8853 4.44817 20.5102 4.39173 20.1432 4.4472L17.9544 4.7784L15.276 3.2328L14.4696 1.1736C14.3342 0.828038 14.0978 0.53127 13.7913 0.321943C13.4848 0.112616 13.1224 0.000431699 12.7512 0L11.2488 0C10.8777 0.000431699 10.5152 0.112616 10.2087 0.321943C9.90223 0.53127 9.66586 0.828038 9.53041 1.1736L8.72401 3.2328L6.04561 4.7784L3.85681 4.4472C3.48987 4.39173 3.11473 4.44817 2.78036 4.60915C2.44598 4.77013 2.1679 5.02817 1.98241 5.3496L1.23361 6.6504C1.04725 6.97138 0.962414 7.34126 0.990259 7.71138C1.0181 8.08149 1.15732 8.43451 1.38961 8.724L2.76961 10.4544V13.5456L1.38961 15.276C1.15732 15.5655 1.0181 15.9185 0.990259 16.2886C0.962414 16.6587 1.04725 17.0286 1.23361 17.3496L1.98241 18.6504C2.1679 18.9718 2.44598 19.2299 2.78036 19.3909C3.11473 19.5518 3.48987 19.6083 3.85681 19.5528L6.04561 19.2216L8.72401 20.7672L9.53041 22.8264C9.66586 23.172 9.90223 23.4687 10.2087 23.6781C10.5152 23.8874 10.8777 23.9996 11.2488 24H12.7512C13.1224 23.9996 13.4848 23.8874 13.7913 23.6781C14.0978 23.4687 14.3342 23.172 14.4696 22.8264L15.276 20.7672L17.9544 19.2216L20.1432 19.5528C20.5102 19.6083 20.8853 19.5518 21.2197 19.3909C21.554 19.2299 21.8321 18.9718 22.0176 18.6504L22.7664 17.3496C22.9528 17.0286 23.0376 16.6587 23.0098 16.2886C22.9819 15.9185 22.8427 15.5655 22.6104 15.276L21.2304 13.5456ZM12 15.6C11.288 15.6 10.592 15.3889 9.99996 14.9933C9.40794 14.5977 8.94652 14.0355 8.67405 13.3777C8.40157 12.7198 8.33028 11.996 8.46919 11.2977C8.60809 10.5993 8.95096 9.95789 9.45443 9.45442C9.9579 8.95095 10.5994 8.60808 11.2977 8.46917C11.996 8.33027 12.7199 8.40156 13.3777 8.67403C14.0355 8.94651 14.5977 9.40793 14.9933 9.99995C15.3889 10.592 15.6 11.288 15.6 12C15.6 12.9548 15.2207 13.8705 14.5456 14.5456C13.8705 15.2207 12.9548 15.6 12 15.6Z" fill="white"/>
</g>
<defs>
<clipPath id="clip0_65_8">
<rect width="24" height="24" fill="white"/>
</clipPath>
</defs>
</svg>
