<svg width="19" height="21" viewBox="0 0 19 21" fill="none" xmlns="http://www.w3.org/2000/svg">
<g clip-path="url(#clip0_518_4009)">
<path d="M0.375245 0.31851C0.1125 0.629164 -0.0215636 1.0285 0.000499228 1.43477V19.0717C-0.0266307 19.4786 0.108055 19.8798 0.375245 20.1879L0.431057 20.2517L10.31 10.3728V10.1336L0.431057 0.262695L0.375245 0.31851Z" fill="url(#paint0_linear_518_4009)"/>
<path d="M13.5786 13.666L10.3096 10.373V10.1338L13.5786 6.84082L13.6504 6.88866L17.5653 9.10523C18.6815 9.73512 18.6815 10.7717 17.5653 11.4095L13.6663 13.6261L13.5786 13.666Z" fill="url(#paint1_linear_518_4009)"/>
<path d="M13.6744 13.6186L10.3097 10.2539L0.375 20.1886C0.600304 20.3892 0.888691 20.5045 1.19015 20.5147C1.49161 20.5249 1.78713 20.4293 2.02547 20.2444L13.6744 13.6186" fill="url(#paint2_linear_518_4009)"/>
<path d="M13.6744 6.88867L2.02547 0.270839C1.78868 0.0833985 1.49339 -0.0145582 1.19152 -0.00580835C0.889652 0.0029415 0.600532 0.117839 0.375 0.31868L10.3097 10.2534L13.6744 6.88867Z" fill="url(#paint3_linear_518_4009)"/>
<path opacity="0.2" d="M13.5788 13.5464L2.02547 20.1243C1.79579 20.2977 1.51589 20.3915 1.22814 20.3915C0.940395 20.3915 0.660488 20.2977 0.430813 20.1243V20.1243L0.375 20.1802L0.430813 20.2439C0.660488 20.4173 0.940395 20.5111 1.22814 20.5111C1.51589 20.5111 1.79579 20.4173 2.02547 20.2439L13.6744 13.6181L13.5788 13.5464Z" fill="white"/>
<path opacity="0.12" d="M0.374931 20.0764C0.118824 19.7601 -0.00668576 19.3579 0.0241055 18.9521V19.0717C-0.00302439 19.4787 0.131659 19.8799 0.398849 20.188L0.454664 20.1322L0.374931 20.0764Z" fill="white"/>
<path opacity="0.12" d="M17.5657 11.2904L13.5791 13.5469L13.6509 13.6186L17.5657 11.4021C17.7968 11.3043 17.9973 11.1461 18.146 10.9441C18.2948 10.742 18.3863 10.5036 18.4109 10.2539C18.3611 10.4808 18.2586 10.6928 18.1118 10.8729C17.965 11.0529 17.778 11.1959 17.5657 11.2904Z" fill="white"/>
<path opacity="0.25" d="M2.02521 0.382981L17.5651 9.21738C17.7774 9.31188 17.9644 9.45492 18.1112 9.63496C18.258 9.815 18.3605 10.027 18.4103 10.2539C18.3857 10.0042 18.2942 9.7658 18.1454 9.56374C17.9967 9.36168 17.7962 9.20347 17.5651 9.10575L2.02521 0.271354C0.916928 -0.366508 0 0.159729 0 1.43545V1.55505C0.0239199 0.279328 0.916928 -0.246908 2.02521 0.382981Z" fill="white"/>
</g>
<defs>
<linearGradient id="paint0_linear_518_4009" x1="9.43289" y1="1.25138" x2="-3.94628" y2="14.6306" gradientUnits="userSpaceOnUse">
<stop stop-color="#00A0FF"/>
<stop offset="0.01" stop-color="#00A1FF"/>
<stop offset="0.26" stop-color="#00BEFF"/>
<stop offset="0.51" stop-color="#00D2FF"/>
<stop offset="0.76" stop-color="#00DFFF"/>
<stop offset="1" stop-color="#00E3FF"/>
</linearGradient>
<linearGradient id="paint1_linear_518_4009" x1="19.0244" y1="10.2534" x2="-0.263004" y2="10.2534" gradientUnits="userSpaceOnUse">
<stop stop-color="#FFE000"/>
<stop offset="0.41" stop-color="#FFBD00"/>
<stop offset="0.78" stop-color="#FFA500"/>
<stop offset="1" stop-color="#FF9C00"/>
</linearGradient>
<linearGradient id="paint2_linear_518_4009" x1="11.8486" y1="12.0878" x2="-6.29865" y2="30.227" gradientUnits="userSpaceOnUse">
<stop stop-color="#FF3A44"/>
<stop offset="1" stop-color="#C31162"/>
</linearGradient>
<linearGradient id="paint3_linear_518_4009" x1="-2.12861" y1="-5.54966" x2="5.97225" y2="2.5512" gradientUnits="userSpaceOnUse">
<stop stop-color="#32A071"/>
<stop offset="0.07" stop-color="#2DA771"/>
<stop offset="0.48" stop-color="#15CF74"/>
<stop offset="0.8" stop-color="#06E775"/>
<stop offset="1" stop-color="#00F076"/>
</linearGradient>
<clipPath id="clip0_518_4009">
<rect width="18.4103" height="20.5073" fill="white"/>
</clipPath>
</defs>
</svg>
