<svg width="1220" height="195" viewBox="0 0 1220 195" fill="none" xmlns="http://www.w3.org/2000/svg">
<g style="mix-blend-mode:hard-light">
<path d="M369.613 135.828V136.828H370.613H501.012V188.642H301.871V6.12695H369.613V135.828Z" fill="white" stroke="white" stroke-width="2"/>
<path d="M537.034 57.9417H452.76V6.12695H691.201V57.9417H606.927H605.927V58.9417V188.642H538.034V58.9417V57.9417H537.034Z" fill="white" stroke="white" stroke-width="2"/>
<path d="M945.026 152.736V188.643H877.151V163.499C877.151 155.289 876.05 149.637 872.363 146.117C868.693 142.615 862.722 141.482 853.777 141.482H776.062H775.062V142.482V188.605H707.131V6.08984H862.693C890.406 6.08984 910.984 11.3299 924.611 21.2418C938.184 31.1139 944.988 45.7138 944.988 64.7853C944.988 78.7653 941.728 89.6904 935.554 98.0541C929.379 106.419 920.217 112.321 908.232 116.12L908.478 118.072C919.944 118.723 929.068 122.078 935.315 127.87C941.545 133.645 945.026 141.947 945.026 152.736ZM776.062 55.3786H775.062V56.3786V91.2309V92.2309H776.062H845.955H845.983C849.873 92.2309 853.574 92.2309 856.917 91.9551C860.265 91.6788 863.328 91.121 865.923 89.9649C868.541 88.7981 870.676 87.0239 872.14 84.3563C873.593 81.7093 874.343 78.2579 874.343 73.7953C874.343 69.3328 873.593 65.8825 872.14 63.237C870.676 60.571 868.541 58.7992 865.922 57.6349C863.327 56.4813 860.264 55.926 856.916 55.6515C853.588 55.3786 849.904 55.3786 846.032 55.3786H845.955H776.062Z" fill="white" stroke="white" stroke-width="2"/>
<path d="M958.203 97.1303C958.203 66.3196 970.094 42.3478 992.252 26.0447C1014.45 9.70988 1047.06 1 1088.6 1C1130.14 1 1162.75 9.7519 1184.95 26.1079C1207.11 42.4327 1219 66.405 1219 97.1303C1219 127.854 1207.04 151.956 1184.84 168.409C1162.6 184.892 1129.99 193.77 1088.6 193.77C1047.21 193.77 1014.6 185.013 992.36 168.592C970.165 152.201 958.203 128.101 958.203 97.1303ZM1148.32 97.1303C1148.32 85.0306 1145.05 73.8706 1135.82 65.7607C1126.61 57.6753 1111.65 52.777 1088.6 52.777C1065.56 52.777 1050.59 57.6031 1041.39 65.6532C1032.15 73.7293 1028.89 84.8918 1028.89 97.1303C1028.89 109.374 1032.24 120.649 1041.51 128.84C1050.76 137.008 1065.72 141.955 1088.6 141.955C1111.48 141.955 1126.45 136.998 1135.69 128.825C1144.96 120.63 1148.32 109.356 1148.32 97.1303Z" fill="white" stroke="white" stroke-width="2"/>
<path d="M290.776 188.642H218.679L147.104 48.7599L146.216 47.0239L145.324 48.7583L73.4295 188.642H1.65111L97.0574 6.12695H195.37L290.776 188.642Z" fill="white" stroke="white" stroke-width="2"/>
</g>
</svg>
