<svg width="20" height="26" viewBox="0 0 20 26" fill="none" xmlns="http://www.w3.org/2000/svg">
<path d="M16.7045 13.8464C16.7166 12.9041 16.9669 11.9803 17.4321 11.1607C17.8972 10.3412 18.5621 9.65267 19.3648 9.15915C18.8548 8.43083 18.1821 7.83146 17.4 7.40864C16.6178 6.98581 15.7479 6.75118 14.8592 6.72337C12.9635 6.52438 11.1258 7.85771 10.1598 7.85771C9.17506 7.85771 7.68776 6.74313 6.08616 6.77608C5.05021 6.80955 4.04059 7.11079 3.15568 7.65047C2.27077 8.19014 1.54075 8.94984 1.03674 9.85554C-1.14648 13.6355 0.482005 19.1908 2.57338 22.2463C3.61975 23.7425 4.84264 25.4138 6.44279 25.3545C8.00863 25.2895 8.59344 24.356 10.4835 24.356C12.3561 24.356 12.9048 25.3545 14.5374 25.3168C16.2176 25.2895 17.2762 23.814 18.2859 22.3037C19.0377 21.2376 19.6162 20.0593 20 18.8126C19.0238 18.3997 18.1908 17.7086 17.6048 16.8255C17.0187 15.9423 16.7056 14.9062 16.7045 13.8464Z" fill="white"/>
<path d="M13.622 4.71348C14.5381 3.61371 14.9895 2.20013 14.8802 0.772949C13.4806 0.919953 12.1877 1.58888 11.2592 2.64646C10.8052 3.16311 10.4575 3.76418 10.236 4.41529C10.0145 5.0664 9.92342 5.75478 9.96808 6.4411C10.6681 6.44831 11.3607 6.29657 11.9936 5.99731C12.6266 5.69806 13.1833 5.2591 13.622 4.71348V4.71348Z" fill="white"/>
</svg>
