<svg width="101" height="114" viewBox="0 0 101 114" fill="none" xmlns="http://www.w3.org/2000/svg">
<path d="M38.3279 112.862C59.0552 112.862 75.858 96.0593 75.858 75.332C75.858 54.6047 59.0552 37.8018 38.3279 37.8018C17.6005 37.8018 0.797729 54.6047 0.797729 75.332C0.797729 96.0593 17.6005 112.862 38.3279 112.862Z" fill="#5437FF" stroke="black" stroke-width="0.471337" stroke-miterlimit="10"/>
<path d="M38.3279 107.644C59.0552 107.644 75.858 90.8407 75.858 70.1134C75.858 49.3861 59.0552 32.5833 38.3279 32.5833C17.6005 32.5833 0.797729 49.3861 0.797729 70.1134C0.797729 90.8407 17.6005 107.644 38.3279 107.644Z" fill="#5437FF" stroke="black" stroke-width="0.471337" stroke-miterlimit="10"/>
<path d="M38.3279 102.427C59.0552 102.427 75.858 85.6237 75.858 64.8964C75.858 44.1691 59.0552 27.3663 38.3279 27.3663C17.6005 27.3663 0.797729 44.1691 0.797729 64.8964C0.797729 85.6237 17.6005 102.427 38.3279 102.427Z" fill="#5437FF" stroke="black" stroke-width="0.471337" stroke-miterlimit="10"/>
<path d="M38.3279 97.2095C59.0552 97.2095 75.858 80.4067 75.858 59.6794C75.858 38.9521 59.0552 22.1493 38.3279 22.1493C17.6005 22.1493 0.797729 38.9521 0.797729 59.6794C0.797729 80.4067 17.6005 97.2095 38.3279 97.2095Z" fill="#5437FF" stroke="black" stroke-width="0.471337" stroke-miterlimit="10"/>
<path d="M38.3279 91.9925C59.0552 91.9925 75.858 75.1897 75.858 54.4624C75.858 33.7351 59.0552 16.9323 38.3279 16.9323C17.6005 16.9323 0.797729 33.7351 0.797729 54.4624C0.797729 75.1897 17.6005 91.9925 38.3279 91.9925Z" fill="#5437FF" stroke="black" stroke-width="0.471337" stroke-miterlimit="10"/>
<path d="M38.3279 86.7739C59.0552 86.7739 75.858 69.9711 75.858 49.2438C75.858 28.5165 59.0552 11.7137 38.3279 11.7137C17.6005 11.7137 0.797729 28.5165 0.797729 49.2438C0.797729 69.9711 17.6005 86.7739 38.3279 86.7739Z" fill="#5437FF" stroke="black" stroke-width="0.471337" stroke-miterlimit="10"/>
<path d="M38.3529 63.9206V69.5218H36.1564V63.867C29.0753 63.3737 26.1657 59.5776 25.8351 53.8192H27.8672C28.3051 58.3212 30.0637 61.9993 37.8042 61.9993C43.7897 61.9993 46.4794 60.4069 46.4794 56.3999C46.4794 52.611 44.4474 50.965 39.8363 50.3609L34.3459 49.646C29.5204 49.0419 26.7126 46.9008 26.7126 42.4541C26.7126 38.0075 30.2335 34.9871 36.1564 34.66V29.1696H38.3529V34.7101C44.7869 35.0961 47.6876 38.7188 48.0165 43.5515H45.9861C45.7109 40.036 43.6789 36.5813 37.0911 36.5813C31.4917 36.5813 28.9092 38.8314 28.9092 42.4559C28.9092 44.9259 30.1173 47.1778 34.5639 47.7265L40.2205 48.4414C45.4911 49.1009 48.6759 51.0776 48.6759 56.1837C48.6759 61.3953 45.2159 63.8116 38.3529 63.9206Z" fill="black" stroke="#5437FF" stroke-width="0.471337" stroke-miterlimit="10"/>
<path d="M99.6379 31.0142H98.4422L97.2841 33.2304H98.1741L98.7943 32.0061L99.0409 31.5432L99.4234 32.2885H99.4216L99.7058 32.8425L99.9041 33.2304H100.798L99.6379 31.0142Z" fill="#FFF400"/>
<path d="M99.6379 20.6768H98.4422L97.2841 22.8929H98.1741L98.7943 21.6669L99.0409 21.2058L99.4234 21.9511H99.4216L99.7058 22.5051L99.9041 22.8929H100.798L99.6379 20.6768Z" fill="#FFF400"/>
<path d="M99.6379 10.3374H98.4422L97.2841 12.5554H98.1741L98.7943 11.3293L99.0409 10.8682L99.4234 11.6135H99.4216L99.7058 12.1676L99.9041 12.5554H100.798L99.6379 10.3374Z" fill="#FFF400"/>
<path d="M99.6379 0H98.4422L97.2841 2.21796H98.1741L98.7943 0.991915L99.0409 0.529021L99.4234 1.2743H99.4216L99.7058 1.82834L99.9041 2.21796H100.798L99.6379 0Z" fill="#FFF400"/>
<path d="M99.6379 41.3513H98.4422L97.2841 43.5692H98.1741L98.7943 42.3432L99.0409 41.8803L99.4234 42.6256H99.4216L99.7058 43.1814L99.9041 43.5692H100.798L99.6379 41.3513Z" fill="#FFF400"/>
<path d="M99.6379 51.6887H98.4422L97.2841 53.9067H98.1741L98.7943 52.6806L99.0409 52.2195L99.4234 52.9648H99.4216L99.7058 53.5189L99.9041 53.9067H100.798L99.6379 51.6887Z" fill="#FFF400"/>
<path d="M87.6741 41.1138H86.4784L85.3203 43.3318H86.2086L86.8305 42.1057L87.0772 41.6446L87.4596 42.3899H87.4578L87.742 42.944L87.9404 43.3318H88.834L87.6741 41.1138Z" fill="#FFF400"/>
<path d="M87.6741 30.7764H86.4784L85.3203 32.9944H86.2086L86.8305 31.7683L87.0772 31.3054L87.4596 32.0507H87.4578L87.742 32.6065L87.9404 32.9944H88.834L87.6741 30.7764Z" fill="#FFF400"/>
<path d="M87.6741 20.4389H86.4784L85.3203 22.6551H86.2086L86.8305 21.4308L87.0772 20.968L87.4596 21.7132H87.4578L87.742 22.2673L87.9404 22.6551H88.834L87.6741 20.4389Z" fill="#FFF400"/>
<path d="M87.6741 10.1016H86.4784L85.3203 12.3177H86.2086L86.8305 11.0917L87.0772 10.6306L87.4596 11.3759H87.4578L87.742 11.9299L87.9404 12.3177H88.834L87.6741 10.1016Z" fill="#FFF400"/>
<path d="M87.6741 51.4528H86.4784L85.3203 53.669H86.2086L86.8305 52.4429L87.0772 51.9818L87.4596 52.7271H87.4578L87.742 53.2812L87.9404 53.669H88.834L87.6741 51.4528Z" fill="#FFF400"/>
<path d="M87.6741 61.7903H86.4784L85.3203 64.0065H86.2086L86.8305 62.7822L87.0772 62.3193L87.4596 63.0646H87.4578L87.742 63.6186L87.9404 64.0065H88.834L87.6741 61.7903Z" fill="#FFF400"/>
<path d="M75.3351 41.3586H74.1394L72.9795 43.5765H73.8695L74.4897 42.3505L74.7363 41.8894L75.1188 42.6329H75.117L75.4012 43.1887L75.5996 43.5765H76.4932L75.3351 41.3586Z" fill="#FFF400"/>
<path d="M75.3351 31.0211H74.1394L72.9795 33.2373H73.8695L74.4897 32.013L74.7363 31.5501L75.1188 32.2954H75.117L75.4012 32.8495L75.5996 33.2373H76.4932L75.3351 31.0211Z" fill="#FFF400"/>
<path d="M75.3351 20.6837H74.1394L72.9795 22.8999H73.8695L74.4897 21.6738L74.7363 21.2127L75.1188 21.958H75.117L75.4012 22.5121L75.5996 22.8999H76.4932L75.3351 20.6837Z" fill="#FFF400"/>
<path d="M75.3351 10.3447H74.1394L72.9795 12.5627H73.8695L74.4897 11.3366L74.7363 10.8755L75.1188 11.6208H75.117L75.4012 12.1748L75.5996 12.5627H76.4932L75.3351 10.3447Z" fill="#FFF400"/>
<path d="M75.3351 51.696H74.1394L72.9795 53.9139H73.8695L74.4897 52.6879L74.7363 52.2268L75.1188 52.9721H75.117L75.4012 53.5261L75.5996 53.9139H76.4932L75.3351 51.696Z" fill="#FFF400"/>
<path d="M75.3351 62.035H74.1394L72.9795 64.2511H73.8695L74.4897 63.0251L74.7363 62.564L75.1188 63.3093H75.117L75.4012 63.8633L75.5996 64.2511H76.4932L75.3351 62.035Z" fill="#FFF400"/>
<path d="M62.8065 41.2997H61.6091L60.4509 43.5158H61.341L61.9629 42.2916L62.2078 41.8287L62.5902 42.574H62.5885L62.8726 43.128L63.071 43.5158H63.9646L62.8065 41.2997Z" fill="#FFF400"/>
<path d="M62.8065 30.9603H61.6091L60.4509 33.1783H61.341L61.9629 31.9522L62.2078 31.4911L62.5902 32.2364H62.5885L62.8726 32.7905L63.071 33.1783H63.9646L62.8065 30.9603Z" fill="#FFF400"/>
<path d="M62.8065 20.6229H61.6091L60.4509 22.8409H61.341L61.9629 21.6148L62.2078 21.1537L62.5902 21.899H62.5885L62.8726 22.4531L63.071 22.8409H63.9646L62.8065 20.6229Z" fill="#FFF400"/>
<path d="M62.8065 10.2858H61.6091L60.4509 12.502H61.341L61.9629 11.2777L62.2078 10.8148L62.5902 11.5601H62.5885L62.8726 12.1142L63.071 12.502H63.9646L62.8065 10.2858Z" fill="#FFF400"/>
<path d="M62.8065 51.6368H61.6091L60.4509 53.8529H61.341L61.9629 52.6287L62.2078 52.1658L62.5902 52.9111H62.5885L62.8726 53.4651L63.071 53.8529H63.9646L62.8065 51.6368Z" fill="#FFF400"/>
<path d="M62.8065 61.9745H61.6091L60.4509 64.1925H61.341L61.9629 62.9665L62.2078 62.5054L62.5902 63.2488H62.5885L62.8726 63.8047L63.071 64.1925H63.9646L62.8065 61.9745Z" fill="#FFF400"/>
</svg>
