<svg width="24" height="21" viewBox="0 0 24 21" fill="none" xmlns="http://www.w3.org/2000/svg">
<path d="M10.2169 3.07198C11.5531 2.75319 12.9508 2.80401 14.2603 3.21899C15.5698 3.63397 16.7417 4.39748 17.6504 5.42768C17.7645 5.55623 17.9029 5.66105 18.0575 5.73615C18.2121 5.81125 18.38 5.85515 18.5516 5.86536C18.7232 5.87557 18.8951 5.85188 19.0576 5.79564C19.22 5.73941 19.3698 5.65173 19.4983 5.53761C19.6269 5.42349 19.7317 5.28517 19.8068 5.13055C19.8819 4.97592 19.9258 4.80802 19.936 4.63642C19.9462 4.46483 19.9225 4.2929 19.8663 4.13046C19.8101 3.96802 19.7224 3.81825 19.6083 3.6897C18.3833 2.30845 16.8057 1.28645 15.0444 0.733155C13.2831 0.179862 11.4044 0.116122 9.60964 0.548763C7.78935 1.00295 6.11993 1.9264 4.76785 3.22704C3.41578 4.52768 2.4283 6.16004 1.90389 7.96136C1.88512 8.02017 1.84692 8.07086 1.79556 8.1051C1.74419 8.13935 1.68271 8.15512 1.62121 8.14982L0.57423 8.01371C0.478654 7.99956 0.381026 8.01385 0.293519 8.05481C0.206013 8.09577 0.132501 8.16158 0.0821506 8.24405C0.0285768 8.32472 0 8.41942 0 8.51626C0 8.61311 0.0285768 8.7078 0.0821506 8.78848L2.66818 13.3428C2.71148 13.4118 2.76971 13.4702 2.83856 13.5137C2.90742 13.5572 2.98515 13.5846 3.06604 13.5941C3.14649 13.6037 3.22808 13.5946 3.30438 13.5673C3.38069 13.5401 3.44962 13.4955 3.50577 13.4371L7.13878 9.67841C7.2092 9.61115 7.25857 9.52487 7.28087 9.43008C7.30318 9.33529 7.29746 9.23605 7.26441 9.14445C7.22617 9.03805 7.15451 8.94689 7.06014 8.88461C6.96578 8.82234 6.85379 8.79228 6.74093 8.79895L4.77261 8.54767C4.71625 8.52334 4.6713 8.4784 4.64697 8.42203C4.62864 8.38829 4.61904 8.3505 4.61904 8.3121C4.61904 8.2737 4.62864 8.23591 4.64697 8.20217C5.08185 6.95491 5.81768 5.83419 6.78926 4.93931C7.76084 4.04444 8.93816 3.40305 10.2169 3.07198Z" fill="white"/>
<path d="M23.9216 12.6624C23.9727 12.5808 23.9998 12.4865 23.9998 12.3902C23.9998 12.2939 23.9727 12.1996 23.9216 12.118L21.3042 7.5846C21.2647 7.5157 21.2105 7.45645 21.1453 7.41117C21.0801 7.36589 21.0056 7.33572 20.9272 7.32285C20.8452 7.31316 20.762 7.32226 20.684 7.34947C20.606 7.37668 20.5353 7.42128 20.477 7.4799L16.865 11.27C16.7985 11.3397 16.7525 11.4265 16.7322 11.5207C16.7119 11.6149 16.718 11.7129 16.7498 11.8039C16.7811 11.8964 16.8381 11.978 16.9141 12.0392C16.9901 12.1004 17.0821 12.1386 17.1791 12.1494L19.116 12.3798C19.1601 12.3905 19.2007 12.4126 19.2338 12.4438C19.2668 12.475 19.2912 12.5143 19.3044 12.5577C19.3228 12.5915 19.3324 12.6293 19.3324 12.6677C19.3324 12.7061 19.3228 12.7439 19.3044 12.7776C18.8657 14.0298 18.1235 15.1537 17.1442 16.049C16.1649 16.9442 14.979 17.5828 13.6926 17.9078C12.3548 18.2251 10.9559 18.1736 9.64504 17.7588C8.33415 17.344 7.16034 16.5813 6.24862 15.5521C6.13952 15.4095 6.00224 15.2908 5.8453 15.2035C5.68837 15.1162 5.51515 15.0621 5.33642 15.0447C5.1577 15.0272 4.97729 15.0467 4.80642 15.102C4.63555 15.1572 4.47789 15.247 4.34323 15.3659C4.20858 15.4847 4.09982 15.6299 4.02372 15.7926C3.94761 15.9552 3.9058 16.1318 3.90088 16.3113C3.89596 16.4908 3.92804 16.6694 3.99511 16.836C4.06219 17.0026 4.16283 17.1536 4.29078 17.2796C5.24605 18.3655 6.42183 19.2354 7.73974 19.8311C9.05764 20.4269 10.4874 20.7349 11.9337 20.7346C12.7273 20.7336 13.5181 20.6388 14.2894 20.452C16.117 19.9967 17.7925 19.068 19.1471 17.7594C20.5017 16.4507 21.4876 14.8083 22.0056 12.9975C22.0228 12.9383 22.061 12.8875 22.1131 12.8547C22.1652 12.8219 22.2276 12.8094 22.2883 12.8195L23.4609 12.9556C23.5567 12.9516 23.6498 12.9224 23.7307 12.8709C23.8116 12.8195 23.8774 12.7475 23.9216 12.6624Z" fill="white"/>
</svg>
