<svg width="22" height="22" viewBox="0 0 22 22" fill="none" xmlns="http://www.w3.org/2000/svg">
<g clip-path="url(#clip0_1562_50739)">
<path d="M21.5 0L21.5 21.5L0 21.5L0 0L21.5 0Z" fill="#4353FF"/>
<path d="M14.5605 9.00881C14.5605 9.00881 13.4693 12.4273 13.3887 12.7176C13.3565 12.4327 12.561 6.28906 12.561 6.28906C10.7012 6.28906 9.71221 7.61131 9.18546 9.00881C9.18546 9.00881 7.85784 12.4381 7.75034 12.7229C7.74496 12.4542 7.54609 9.04106 7.54609 9.04106C7.43321 7.32644 5.86909 6.28906 4.60059 6.28906L6.12709 15.5932C8.07284 15.5878 9.12096 14.2709 9.66921 12.8681C9.66921 12.8681 10.8356 9.84194 10.884 9.70756C10.8947 9.83656 11.7225 15.5932 11.7225 15.5932C13.6736 15.5932 14.7271 14.3623 15.2915 13.0132L18.0273 6.28906C16.0977 6.28906 15.0818 7.60594 14.5605 9.00881Z" fill="white"/>
</g>
<defs>
<clipPath id="clip0_1562_50739">
<rect width="21.5" height="21.5" rx="3" fill="white"/>
</clipPath>
</defs>
</svg>
