<svg width="17" height="16" viewBox="0 0 17 16" fill="none" xmlns="http://www.w3.org/2000/svg">
<path d="M7.25501 0.730058C7.56557 -0.167141 8.83443 -0.167138 9.14499 0.730061L10.429 4.43964C10.566 4.83531 10.9349 5.10376 11.3536 5.11233L15.272 5.19251C16.2189 5.21189 16.6109 6.41426 15.8573 6.98795L12.7272 9.37104C12.3953 9.62369 12.2551 10.0558 12.3755 10.4551L13.5114 14.2257C13.785 15.1339 12.7586 15.8771 11.9811 15.3338L8.7728 13.0919C8.42877 12.8515 7.97123 12.8515 7.6272 13.0919L4.41889 15.3338C3.64138 15.8771 2.61498 15.1339 2.8886 14.2256L4.02453 10.4551C4.14485 10.0558 4.00466 9.62369 3.6728 9.37104L0.542675 6.98795C-0.210854 6.41426 0.181112 5.21189 1.12798 5.19251L5.04644 5.11233C5.46505 5.10376 5.83401 4.83531 5.97097 4.43964L7.25501 0.730058Z" fill="#F2C14B"/>
</svg>
