<svg width="32" height="32" viewBox="0 0 32 32" fill="none" xmlns="http://www.w3.org/2000/svg">
<g clip-path="url(#clip0_2051_69480)">
<path d="M4.61338 20.1467C4.57959 20.1008 4.53538 20.0635 4.48438 20.038C4.43339 20.0125 4.37706 19.9995 4.32005 20C4.26236 20.0022 4.20623 20.0193 4.15715 20.0497C4.10806 20.0801 4.06771 20.1227 4.04005 20.1733L0.840046 25.6933C0.71951 25.9089 0.661192 26.1536 0.671594 26.4003C0.681996 26.6471 0.760708 26.8861 0.898958 27.0907C1.03721 27.2953 1.22956 27.4575 1.45458 27.5592C1.6796 27.6609 1.92845 27.6981 2.17338 27.6667L5.36005 27.1333L6.46671 30.1867C6.55422 30.4234 6.7071 30.6303 6.90758 30.7836C7.10805 30.9368 7.3479 31.03 7.59924 31.0524C7.85059 31.0747 8.10312 31.0253 8.32748 30.9098C8.55184 30.7943 8.73883 30.6175 8.86671 30.4L11.5334 25.9467C11.5567 25.9037 11.5689 25.8556 11.5689 25.8067C11.5689 25.7578 11.5567 25.7097 11.5334 25.6667C11.5167 25.6207 11.4902 25.579 11.4556 25.5444C11.4211 25.5099 11.3793 25.4833 11.3334 25.4667C8.57947 24.4623 6.22286 22.5967 4.61338 20.1467Z" fill="url(#paint0_linear_2051_69480)"/>
<path d="M31.1599 25.6933L27.9999 20.1333C27.9716 20.0843 27.9307 20.0436 27.8815 20.0155C27.8323 19.9874 27.7766 19.9728 27.7199 19.9733C27.6645 19.9714 27.6096 19.984 27.5605 20.0097C27.5114 20.0354 27.4699 20.0734 27.4399 20.12C25.8166 22.5765 23.4467 24.4462 20.6799 25.4533C20.5896 25.4912 20.5178 25.563 20.4799 25.6533C20.4566 25.6963 20.4443 25.7444 20.4443 25.7933C20.4443 25.8422 20.4566 25.8904 20.4799 25.9333L23.1466 30.4133C23.2755 30.6305 23.4635 30.8066 23.6887 30.921C23.9138 31.0355 24.1669 31.0837 24.4183 31.0599C24.6698 31.0362 24.9093 30.9415 25.1091 30.7869C25.3088 30.6323 25.4605 30.4241 25.5466 30.1867L26.6532 27.1333L29.8399 27.6667C30.0912 27.7129 30.3504 27.6859 30.5868 27.589C30.8232 27.4921 31.0267 27.3293 31.1732 27.12C31.3064 26.9054 31.3758 26.6573 31.3734 26.4047C31.3711 26.1522 31.297 25.9055 31.1599 25.6933Z" fill="url(#paint1_linear_2051_69480)"/>
<path d="M27.64 12.6133C27.64 10.3047 26.9551 8.04803 25.6719 6.12888C24.3888 4.20973 22.5651 2.71441 20.4318 1.83217C18.2984 0.949941 15.9513 0.720465 13.6874 1.17279C11.4236 1.62512 9.34485 2.73891 7.7143 4.37319C6.08375 6.00747 4.97472 8.08877 4.52758 10.3536C4.08043 12.6185 4.31528 14.9651 5.20239 17.0964C6.0895 19.2278 7.589 21.048 9.51108 22.3268C11.4332 23.6055 13.6914 24.2852 16 24.28C19.0895 24.2729 22.0502 23.0406 24.2323 20.8535C26.4145 18.6663 27.64 15.7029 27.64 12.6133ZM20.64 17.1733C20.7077 17.3269 20.7246 17.4982 20.688 17.6621C20.6515 17.826 20.5634 17.9739 20.4368 18.0841C20.3101 18.1944 20.1515 18.2612 19.9842 18.2749C19.8168 18.2885 19.6495 18.2482 19.5066 18.16L16.1466 16.2666C16.0949 16.2408 16.0378 16.2274 15.98 16.2274C15.9221 16.2274 15.8651 16.2408 15.8133 16.2666L12.4533 18.16C12.3105 18.2482 12.1431 18.2885 11.9758 18.2749C11.8084 18.2612 11.6498 18.1944 11.5232 18.0841C11.3965 17.9739 11.3085 17.826 11.2719 17.6621C11.2354 17.4982 11.2522 17.3269 11.32 17.1733L12.6533 14.0266C12.6798 13.9637 12.6864 13.8941 12.6721 13.8274C12.6578 13.7606 12.6233 13.6998 12.5733 13.6533L10.1466 11.2266C10.0197 11.1278 9.92813 10.9907 9.88544 10.8357C9.84274 10.6806 9.85124 10.516 9.90967 10.3661C9.9681 10.2163 10.0733 10.0894 10.2097 10.0042C10.3461 9.91897 10.5064 9.88008 10.6666 9.8933H13.4933C13.5569 9.89469 13.6196 9.87785 13.6739 9.84478C13.7283 9.8117 13.772 9.76376 13.8 9.70663L15.2666 6.66663C15.3367 6.53869 15.4399 6.43196 15.5654 6.35761C15.6909 6.28325 15.8341 6.24402 15.98 6.24402C16.1259 6.24402 16.269 6.28325 16.3945 6.35761C16.52 6.43196 16.6232 6.53869 16.6933 6.66663L18.16 9.6933C18.1857 9.74937 18.227 9.79683 18.2791 9.82994C18.3311 9.86306 18.3916 9.88043 18.4533 9.87996H21.3333C21.4948 9.86334 21.6572 9.89977 21.7961 9.98376C21.935 10.0677 22.0428 10.1947 22.1031 10.3454C22.1633 10.4961 22.1729 10.6623 22.1302 10.8189C22.0876 10.9755 21.995 11.114 21.8666 11.2133L19.3333 13.6533C19.2871 13.7023 19.2562 13.7637 19.2444 13.83C19.2326 13.8963 19.2403 13.9647 19.2666 14.0266L20.64 17.1733Z" fill="url(#paint2_linear_2051_69480)"/>
</g>
<defs>
<linearGradient id="paint0_linear_2051_69480" x1="6.11968" y1="20" x2="6.11968" y2="31.0576" gradientUnits="userSpaceOnUse">
<stop offset="0.244792" stop-color="#F971BA"/>
<stop offset="1" stop-color="#8932F7"/>
</linearGradient>
<linearGradient id="paint1_linear_2051_69480" x1="25.9089" y1="19.9731" x2="25.9089" y2="31.0658" gradientUnits="userSpaceOnUse">
<stop offset="0.244792" stop-color="#F971BA"/>
<stop offset="1" stop-color="#8932F7"/>
</linearGradient>
<linearGradient id="paint2_linear_2051_69480" x1="15.9733" y1="0.946655" x2="15.9733" y2="24.28" gradientUnits="userSpaceOnUse">
<stop offset="0.244792" stop-color="#F971BA"/>
<stop offset="1" stop-color="#8932F7"/>
</linearGradient>
<clipPath id="clip0_2051_69480">
<rect width="32" height="32" fill="white"/>
</clipPath>
</defs>
</svg>
