<svg width="32" height="32" viewBox="0 0 32 32" fill="none" xmlns="http://www.w3.org/2000/svg">
<g clip-path="url(#clip0_2051_69491)">
<path d="M32 2.33325C32 1.80282 31.7893 1.29411 31.4142 0.919038C31.0391 0.543966 30.5304 0.333252 30 0.333252H2C1.46957 0.333252 0.960859 0.543966 0.585786 0.919038C0.210714 1.29411 0 1.80282 0 2.33325L0 23.6666C0 24.197 0.210714 24.7057 0.585786 25.0808C0.960859 25.4559 1.46957 25.6666 2 25.6666H12.9333C13.0286 25.6672 13.1197 25.7056 13.1867 25.7733C13.216 25.8081 13.2382 25.8485 13.2519 25.892C13.2656 25.9354 13.2706 25.9812 13.2667 26.0266C13.04 28.2933 12.2133 28.6933 10.0667 30.6133C10.0016 30.7172 9.96711 30.8373 9.96711 30.9599C9.96711 31.0825 10.0016 31.2027 10.0667 31.3066C10.12 31.4162 10.2035 31.5084 10.3075 31.5722C10.4114 31.6359 10.5314 31.6687 10.6533 31.6666H21.3333C21.4542 31.6628 21.5718 31.6268 21.6741 31.5624C21.7764 31.498 21.8597 31.4075 21.9154 31.3002C21.9711 31.1929 21.9972 31.0726 21.991 30.9519C21.9847 30.8312 21.9464 30.7143 21.88 30.6133C19.7333 28.7333 18.9067 28.2933 18.68 26.0266C18.676 25.9812 18.681 25.9354 18.6948 25.892C18.7085 25.8485 18.7307 25.8081 18.76 25.7733C18.827 25.7056 18.9181 25.6672 19.0133 25.6666H29.9467C30.4771 25.6666 30.9858 25.4559 31.3609 25.0808C31.736 24.7057 31.9467 24.197 31.9467 23.6666L32 2.33325ZM29.3333 19.6666C29.3333 19.8434 29.2631 20.013 29.1381 20.138C29.013 20.263 28.8435 20.3333 28.6667 20.3333H3.33333C3.15652 20.3333 2.98695 20.263 2.86193 20.138C2.7369 20.013 2.66667 19.8434 2.66667 19.6666V3.66659C2.66667 3.48977 2.7369 3.32021 2.86193 3.19518C2.98695 3.07016 3.15652 2.99992 3.33333 2.99992H28.6667C28.8435 2.99992 29.013 3.07016 29.1381 3.19518C29.2631 3.32021 29.3333 3.48977 29.3333 3.66659V19.6666Z" fill="url(#paint0_linear_2051_69491)"/>
<path d="M18.3201 14.3199C18.1859 13.9386 18.1628 13.5271 18.2534 13.1332C18.7557 12.5838 19.1392 11.9368 19.3801 11.2325C19.621 10.5282 19.714 9.78175 19.6534 9.03987C19.6967 8.53387 19.6344 8.0244 19.4704 7.54374C19.3065 7.06309 19.0445 6.62173 18.701 6.24765C18.3576 5.87356 17.9401 5.5749 17.4752 5.37059C17.0102 5.16629 16.5079 5.06079 16.0001 5.06079C15.4922 5.06079 14.9899 5.16629 14.525 5.37059C14.0601 5.5749 13.6426 5.87356 13.2992 6.24765C12.9557 6.62173 12.6937 7.06309 12.5298 7.54374C12.3658 8.0244 12.3035 8.53387 12.3468 9.03987C12.2855 9.76222 12.3721 10.4895 12.6014 11.1772C12.8306 11.865 13.1977 12.4988 13.6801 13.0399C13.7692 13.4304 13.7692 13.836 13.6801 14.2265C10.8268 15.2799 9.13343 16.3199 8.62676 17.3332C8.57059 17.4305 8.54102 17.5409 8.54102 17.6532C8.54102 17.7655 8.57059 17.8759 8.62676 17.9732C8.68754 18.0706 8.77199 18.151 8.87224 18.207C8.9725 18.2629 9.08528 18.2926 9.20009 18.2932H22.6668C22.7816 18.2926 22.8944 18.2629 22.9946 18.207C23.0949 18.151 23.1793 18.0706 23.2401 17.9732C23.2963 17.8759 23.3258 17.7655 23.3258 17.6532C23.3258 17.5409 23.2963 17.4305 23.2401 17.3332C22.7868 16.3599 21.0934 15.3199 18.3201 14.3199Z" fill="url(#paint1_linear_2051_69491)"/>
</g>
<defs>
<linearGradient id="paint0_linear_2051_69491" x1="16" y1="0.333252" x2="16" y2="31.6667" gradientUnits="userSpaceOnUse">
<stop offset="0.244792" stop-color="#F971BA"/>
<stop offset="1" stop-color="#8932F7"/>
</linearGradient>
<linearGradient id="paint1_linear_2051_69491" x1="15.9334" y1="5.06079" x2="15.9334" y2="18.2932" gradientUnits="userSpaceOnUse">
<stop offset="0.244792" stop-color="#F971BA"/>
<stop offset="1" stop-color="#8932F7"/>
</linearGradient>
<clipPath id="clip0_2051_69491">
<rect width="32" height="32" fill="white"/>
</clipPath>
</defs>
</svg>
