<svg width="25" height="25" viewBox="0 0 25 25" fill="none" xmlns="http://www.w3.org/2000/svg">
<g clip-path="url(#clip0_64_5)">
<path d="M7.30483 15.4419L1.30483 21.4587C0.967478 21.7967 0.778207 22.2548 0.778657 22.7324C0.779107 23.2099 0.969242 23.6677 1.30723 24.0051C1.64523 24.3424 2.10339 24.5317 2.58093 24.5313C3.05847 24.5308 3.51628 24.3407 3.85363 24.0027L9.85363 18.0027C10.0218 17.8353 10.1553 17.6365 10.2466 17.4175C10.3379 17.1986 10.3852 16.9638 10.3858 16.7265C10.3863 16.4893 10.3401 16.2543 10.2499 16.0349C10.1596 15.8155 10.027 15.616 9.85963 15.4479C9.69228 15.2797 9.49344 15.1462 9.27448 15.0549C9.05551 14.9636 8.82071 14.9163 8.58348 14.9158C8.34624 14.9152 8.11122 14.9614 7.89183 15.0517C7.67244 15.1419 7.47298 15.2745 7.30483 15.4419Z" fill="white"/>
<path d="M24.316 10.5292L22.1944 7.64915L23.4568 4.13795C23.5751 3.81789 23.5992 3.47065 23.5262 3.13734C23.4532 2.80402 23.2863 2.49859 23.0452 2.2572C22.804 2.0158 22.4988 1.84855 22.1655 1.77524C21.8323 1.70194 21.485 1.72564 21.1648 1.84355L17.6536 3.10355L14.7736 0.986753C14.506 0.78948 14.1887 0.670434 13.8573 0.642889C13.526 0.615344 13.1934 0.680383 12.8968 0.830753C12.5927 0.981058 12.3362 1.21267 12.1557 1.4999C11.9753 1.78714 11.8779 2.11875 11.8744 2.45795L11.836 6.16115L8.75205 8.37635C8.4702 8.57561 8.25068 8.85074 8.11898 9.16979C7.98728 9.48884 7.94881 9.83871 8.00805 10.1788C8.06302 10.5082 8.2104 10.8152 8.43302 11.0642C8.65565 11.3132 8.94439 11.4938 9.26565 11.5852L12.7216 12.5788L13.72 16.0348C13.811 16.3554 13.9909 16.6437 14.239 16.8662C14.4871 17.0888 14.7931 17.2365 15.1216 17.2924C15.4609 17.3503 15.8097 17.3113 16.1278 17.1796C16.4458 17.048 16.7202 16.8292 16.9192 16.5484L19.1344 13.4644L22.8352 13.426C23.1777 13.426 23.5134 13.3304 23.8043 13.1497C24.0953 12.969 24.3299 12.7106 24.4816 12.4036C24.6307 12.1065 24.6942 11.7739 24.6649 11.4428C24.6357 11.1118 24.5149 10.7954 24.316 10.5292Z" fill="white"/>
</g>
<defs>
<clipPath id="clip0_64_5">
<rect width="24" height="24" fill="white" transform="translate(0.721649 0.578735)"/>
</clipPath>
</defs>
</svg>
