<svg width="138" height="22" viewBox="0 0 138 22" fill="none" xmlns="http://www.w3.org/2000/svg">
<path d="M41.862 15.3423H56.704V21.4209H33.9844V0.579102H41.862V15.3423Z" fill="#EDEFE0"/>
<path d="M78.1862 6.65769H68.5541V21.4209H60.6594V6.65769H51.0273V0.579102H78.1862V6.65769Z" fill="#EDEFE0"/>
<path d="M106.857 17.2515V21.4202H98.9643V18.4672C98.9643 16.6148 98.4575 16.0932 96.437 16.0932H87.6587V21.416H79.7598V0.574219H97.4441C103.727 0.574219 106.853 2.94815 106.853 7.31706C106.853 10.5107 105.362 12.3545 102.622 13.2232C105.247 13.3722 106.857 14.7625 106.857 17.2515ZM87.6587 6.36749V10.3042H95.5534C97.3206 10.3042 98.647 10.3042 98.647 8.33478C98.647 6.36536 97.3206 6.36749 95.5534 6.36749H87.6587Z" fill="#EDEFE0"/>
<path d="M108.119 10.9713C108.119 3.94523 113.55 0 122.961 0C132.372 0 137.803 3.96439 137.803 10.9713C137.803 17.9781 132.34 22 122.961 22C113.582 22 108.119 18.0335 108.119 10.9713ZM129.593 10.9713C129.593 8.27795 128.141 6.07433 122.961 6.07433C117.781 6.07433 116.329 8.24601 116.329 10.9713C116.329 13.6965 117.819 15.9214 122.961 15.9214C128.103 15.9214 129.593 13.6923 129.593 10.9713Z" fill="#EDEFE0"/>
<path d="M22.1363 0.579102H10.8946L0 21.4209H8.36311L16.5154 5.55907L24.6316 21.4209H33.0309L22.1363 0.579102Z" fill="#EDEFE0"/>
</svg>
