<svg width="249" height="289" viewBox="0 0 249 289" fill="none" xmlns="http://www.w3.org/2000/svg">
<path d="M61.0742 288.019L196.1 259.144" stroke="black" stroke-width="1.07011" stroke-miterlimit="10" stroke-linecap="square"/>
<path d="M45.6465 269.984L210.775 233.879" stroke="black" stroke-width="1.07011" stroke-miterlimit="10" stroke-linecap="square"/>
<path d="M25.2646 252.153L224.583 207.444" stroke="black" stroke-width="1.07011" stroke-miterlimit="10" stroke-linecap="square"/>
<path d="M147.553 202.614L234.513 182.567" stroke="black" stroke-width="1.07011" stroke-miterlimit="10" stroke-linecap="square"/>
<path d="M11.3643 234.15L98.3248 214.103" stroke="black" stroke-width="1.07011" stroke-miterlimit="10" stroke-linecap="square"/>
<path d="M4.09375 211.756L77.3783 195.138" stroke="black" stroke-width="1.07011" stroke-miterlimit="10" stroke-linecap="square"/>
<path d="M162.289 176.389L245.233 157.973" stroke="black" stroke-width="1.07011" stroke-miterlimit="10" stroke-linecap="square"/>
<path d="M188.22 146.854L247.796 133.667" stroke="black" stroke-width="1.07011" stroke-miterlimit="10" stroke-linecap="square"/>
<path d="M1.32715 187.622L79.2703 170.389" stroke="black" stroke-width="1.07011" stroke-miterlimit="10" stroke-linecap="square"/>
<path d="M189.033 125.035L245.121 113.288" stroke="black" stroke-width="1.07011" stroke-miterlimit="10" stroke-linecap="square"/>
<path d="M164.757 108.783L242.985 93.1134" stroke="black" stroke-width="1.07011" stroke-miterlimit="10" stroke-linecap="square"/>
<path d="M140.754 90.6736L227.361 71.9752" stroke="black" stroke-width="1.07011" stroke-miterlimit="10" stroke-linecap="square"/>
<path d="M39.4004 65.6151L144.278 44.2344" stroke="black" stroke-width="1.07011" stroke-miterlimit="10" stroke-linecap="square"/>
<path d="M24.4404 91.7329L156.042 64.5664" stroke="black" stroke-width="1.07011" stroke-miterlimit="10" stroke-linecap="square"/>
<path d="M3.44531 164.222L79.3053 148.602" stroke="black" stroke-width="1.07011" stroke-miterlimit="10" stroke-linecap="square"/>
<path d="M7.91797 140.822L79.9184 126.312" stroke="black" stroke-width="1.07011" stroke-miterlimit="10" stroke-linecap="square"/>
<path d="M11.4102 119.085L97.8749 100.069" stroke="black" stroke-width="1.07011" stroke-miterlimit="10" stroke-linecap="square"/>
<path d="M43.2844 64.7947L41.6543 88.2086" stroke="black" stroke-width="1.07011" stroke-miterlimit="10" stroke-linecap="square"/>
<path d="M83.5677 56.7439L82.2158 79.209" stroke="black" stroke-width="1.07011" stroke-miterlimit="10" stroke-linecap="square"/>
<path d="M119.773 49.5172L118.421 71.9824" stroke="black" stroke-width="1.07011" stroke-miterlimit="10" stroke-linecap="square"/>
<path d="M58.7055 85.1804L57.5498 108.159" stroke="black" stroke-width="1.07011" stroke-miterlimit="10" stroke-linecap="square"/>
<path d="M100.04 76.7871L97.9961 99.9621" stroke="black" stroke-width="1.07011" stroke-miterlimit="10" stroke-linecap="square"/>
<path d="M81.4557 104.21L79.9111 126.387" stroke="black" stroke-width="1.07011" stroke-miterlimit="10" stroke-linecap="square"/>
<path d="M36.1722 113.617L35.252 135.397" stroke="black" stroke-width="1.07011" stroke-miterlimit="10" stroke-linecap="square"/>
<path d="M16.7426 139.538L16.2646 161.197" stroke="black" stroke-width="1.07011" stroke-miterlimit="10" stroke-linecap="square"/>
<path d="M56.2915 131.605L55.8135 153.261" stroke="black" stroke-width="1.07011" stroke-miterlimit="10" stroke-linecap="square"/>
<path d="M35.9878 158.108L35.5098 179.767" stroke="black" stroke-width="1.07011" stroke-miterlimit="10" stroke-linecap="square"/>
<path d="M79.6938 148.638L79.2158 170.293" stroke="black" stroke-width="1.07011" stroke-miterlimit="10" stroke-linecap="square"/>
<path d="M15.9827 184.697L15.4727 208.714" stroke="black" stroke-width="1.07011" stroke-miterlimit="10" stroke-linecap="square"/>
<path d="M56.3056 176.086L55.792 200.103" stroke="black" stroke-width="1.07011" stroke-miterlimit="10" stroke-linecap="square"/>
<path d="M32.9837 205.371L32.4736 229.228" stroke="black" stroke-width="1.07011" stroke-miterlimit="10" stroke-linecap="square"/>
<path d="M77.3828 195.43L76.7979 218.844" stroke="black" stroke-width="1.07011" stroke-miterlimit="10" stroke-linecap="square"/>
<path d="M54.2823 224.462L53.8721 245.618" stroke="black" stroke-width="1.07011" stroke-miterlimit="10" stroke-linecap="square"/>
<path d="M98.3038 214.1L97.8936 235.256" stroke="black" stroke-width="1.07011" stroke-miterlimit="10" stroke-linecap="square"/>
<path d="M78.2959 240.863L78.3244 262.408" stroke="black" stroke-width="1.07011" stroke-miterlimit="10" stroke-linecap="square"/>
<path d="M120.39 231.161L120.098 253.394" stroke="black" stroke-width="1.07011" stroke-miterlimit="10" stroke-linecap="square"/>
<path d="M159.578 222.532L159.285 244.769" stroke="black" stroke-width="1.07011" stroke-miterlimit="10" stroke-linecap="square"/>
<path d="M205.735 212.413L204.722 234.764" stroke="black" stroke-width="1.07011" stroke-miterlimit="10" stroke-linecap="square"/>
<path d="M96.2945 259.091L96.0234 280.497" stroke="black" stroke-width="1.07011" stroke-miterlimit="10" stroke-linecap="square"/>
<path d="M144.774 248.796L144.097 270.263" stroke="black" stroke-width="1.07011" stroke-miterlimit="10" stroke-linecap="square"/>
<path d="M182.845 240.392L181.672 261.877" stroke="black" stroke-width="1.07011" stroke-miterlimit="10" stroke-linecap="square"/>
<path d="M187.322 193.853L186.148 215.341" stroke="black" stroke-width="1.07011" stroke-miterlimit="10" stroke-linecap="square"/>
<path d="M210.51 166.252L210.189 187.6" stroke="black" stroke-width="1.07011" stroke-miterlimit="10" stroke-linecap="square"/>
<path d="M232.163 137.623L231.222 160.502" stroke="black" stroke-width="1.07011" stroke-miterlimit="10" stroke-linecap="square"/>
<path d="M211.692 120.59L211.438 141.365" stroke="black" stroke-width="1.07011" stroke-miterlimit="10" stroke-linecap="square"/>
<path d="M189.772 104.175L189.02 124.924" stroke="black" stroke-width="1.07011" stroke-miterlimit="10" stroke-linecap="square"/>
<path d="M210.779 75.9561L210.236 98.9063" stroke="black" stroke-width="1.07011" stroke-miterlimit="10" stroke-linecap="square"/>
<path d="M165.924 85.6726L164.665 108.812" stroke="black" stroke-width="1.07011" stroke-miterlimit="10" stroke-linecap="square"/>
<path d="M142.006 67.5414L140.747 90.6807" stroke="black" stroke-width="1.07011" stroke-miterlimit="10" stroke-linecap="square"/>
<path d="M147.011 202.725L146.369 224.28" stroke="black" stroke-width="1.07011" stroke-miterlimit="10" stroke-linecap="square"/>
<path d="M162.071 176.582L161.625 198.815" stroke="black" stroke-width="1.07011" stroke-miterlimit="10" stroke-linecap="square"/>
<path d="M188.039 146.861L187.472 170.365" stroke="black" stroke-width="1.07011" stroke-miterlimit="10" stroke-linecap="square"/>
<path d="M175.247 106.797L174.876 118.753" stroke="black" stroke-width="1.07011" stroke-miterlimit="10" stroke-linecap="square"/>
<path d="M197.448 123.594L197.327 134.555" stroke="black" stroke-width="1.07011" stroke-miterlimit="10" stroke-linecap="square"/>
<path d="M149.904 89.1575L149.722 101.417" stroke="black" stroke-width="1.07011" stroke-miterlimit="10" stroke-linecap="square"/>
<path d="M126.122 71.219L125.805 84.6417" stroke="black" stroke-width="1.07011" stroke-miterlimit="10" stroke-linecap="square"/>
<path d="M103.785 222.721L119.202 230.908" stroke="black" stroke-width="1.07011" stroke-miterlimit="10" stroke-linecap="square"/>
<path d="M132.314 217.232L146.19 224.78" stroke="black" stroke-width="1.07011" stroke-miterlimit="10" stroke-linecap="square"/>
<path d="M133.892 194.31L147.329 202.311" stroke="black" stroke-width="1.07011" stroke-miterlimit="10" stroke-linecap="square"/>
<path d="M148.377 190.868L161.81 198.869" stroke="black" stroke-width="1.07011" stroke-miterlimit="10" stroke-linecap="square"/>
<path d="M149.379 170.507L162.441 176.585" stroke="black" stroke-width="1.07011" stroke-miterlimit="10" stroke-linecap="square"/>
<path d="M174.549 163.901L187.105 170.011" stroke="black" stroke-width="1.07011" stroke-miterlimit="10" stroke-linecap="square"/>
<mask id="mask0_381_3541" style="mask-type:alpha" maskUnits="userSpaceOnUse" x="55" y="70" width="144" height="155">
<path d="M56.3157 131.273L79.9758 126.404L81.3669 104.136L97.8395 100.422L100.622 76.0666L126.6 71.4294L125.905 84.417L139.36 91.1444L149.797 88.8258L149.565 101.582L163.715 108.773L175.547 106.454L175.315 118.981L188.538 125.477L198.048 123.619L197.584 134.755L175.779 139.16L174.62 163.983L149.333 170.479L148.406 190.889L133.792 194.139L132.4 217.103L98.0713 224.294L97.8395 213.854L83.6891 204.576L78.3528 205.503L77.8891 195.762L64.4342 186.716L56.0838 188.339L56.7794 176.043L78.3528 170.711L79.5121 148.673L55.6201 153.311L56.3157 131.273Z" fill="black" stroke="black" stroke-width="1.07011" stroke-miterlimit="10"/>
</mask>
<g mask="url(#mask0_381_3541)">
<path d="M55.6956 131.844L79.3557 126.975L80.7468 104.706L97.2193 100.993L100.002 76.6371L125.98 72L125.285 84.9875L138.74 91.715L149.177 89.3964L148.945 102.152L163.095 109.343L174.927 107.025L174.695 119.552L187.918 126.048L197.428 124.189L196.964 135.325L175.159 139.731L174 164.554L148.713 171.049L147.786 191.46L133.171 194.709L131.78 217.674L97.4512 224.865L97.2193 214.424L83.0689 205.146L77.7327 206.074L77.269 196.332L63.8141 187.286L55.4637 188.909L56.1593 176.614L77.7327 171.281L78.892 149.244L55 153.881L55.6956 131.844Z" fill="black" stroke="black" stroke-width="1.07011" stroke-miterlimit="10"/>
<path d="M131.173 222.992C151.271 222.992 167.564 206.7 167.564 186.602C167.564 166.504 151.271 150.211 131.173 150.211C111.075 150.211 94.7822 166.504 94.7822 186.602C94.7822 206.7 111.075 222.992 131.173 222.992Z" fill="#FF8480" stroke="black" stroke-width="0.356703" stroke-miterlimit="10"/>
<path d="M92.466 144.71C112.564 144.71 128.857 128.417 128.857 108.319C128.857 88.2213 112.564 71.9286 92.466 71.9286C72.3679 71.9286 56.0752 88.2213 56.0752 108.319C56.0752 128.417 72.3679 144.71 92.466 144.71Z" fill="#FF8480" stroke="black" stroke-width="0.356703" stroke-miterlimit="10"/>
</g>
<path d="M176.074 139.506L187.87 146.679" stroke="black" stroke-width="1.07011" stroke-miterlimit="10" stroke-linecap="square"/>
<path d="M197.149 134.555L211.036 141.329" stroke="black" stroke-width="1.07011" stroke-miterlimit="10" stroke-linecap="square"/>
<path d="M96.873 160.698C99.326 156.446 102.531 152.675 106.333 149.569C111.23 145.599 114.412 145.021 120.983 141.593C124.846 139.577 132.8 135.358 139.888 128.238C142.948 125.17 149.362 118.607 153.057 108.395C156.039 100.14 155.094 95.4641 159.735 86.1363C161.257 83.072 163.058 80.1538 165.114 77.4185" stroke="white" stroke-width="1.07011" stroke-miterlimit="10" stroke-linecap="round"/>
<path d="M180.724 1.5335C172.303 1.5186 164.139 4.42468 157.621 9.7563C151.104 15.0879 146.638 22.515 144.984 30.7712C143.33 39.0275 144.591 47.6017 148.552 55.0322C152.513 62.4626 158.929 68.2892 166.705 71.5186L161.083 75.8668L168.16 80.0188L170.472 72.8527C175.473 74.3073 180.727 74.6715 185.881 73.9205C191.034 73.1696 195.966 71.3211 200.344 68.4999C204.722 65.6787 208.443 61.9506 211.255 57.5675C214.068 53.1845 215.907 48.2487 216.648 43.0938C217.389 37.9388 217.015 32.6849 215.55 27.6871C214.086 22.6893 211.566 18.064 208.16 14.124C204.754 10.184 200.543 7.02109 195.809 4.84899C191.076 2.67689 185.931 1.54625 180.724 1.5335Z" fill="#FF8480" stroke="black" stroke-width="1.07011" stroke-miterlimit="10"/>
<path d="M164.92 20.0406C168.796 16.1652 170.929 12.0152 169.685 10.7712C168.441 9.52725 164.291 11.6604 160.415 15.5358C156.54 19.4111 154.407 23.5612 155.651 24.8051C156.895 26.0491 161.045 23.9159 164.92 20.0406Z" fill="white"/>
<path d="M113.142 170.625C116.819 166.561 118.741 162.309 117.437 161.129C116.132 159.949 112.094 162.287 108.418 166.352C104.741 170.416 102.818 174.668 104.123 175.848C105.428 177.028 109.466 174.69 113.142 170.625Z" fill="white"/>
</svg>
