<svg width="1119" height="312" viewBox="0 0 1119 312" fill="none" xmlns="http://www.w3.org/2000/svg">
<path d="M241.756 1L224.156 53.7L205.556 1H179.056L160.456 53.7L142.856 1H119.156L144.456 71H176.256L192.356 23.6L208.356 71H240.156L265.356 1H241.756Z" fill="white"/>
<path d="M342.984 18.1V1H268.984V71H342.984V53.9H290.984V43.5H342.984V28.5H290.984V18.1H342.984Z" fill="white"/>
<path d="M465.152 18.1V1H391.152V71H465.152V53.9H413.152V43.5H465.152V28.5H413.152V18.1H465.152Z" fill="white"/>
<path d="M468.375 71H497.875L519.975 49L542.175 71H571.575L535.375 36L571.575 1H542.175L519.975 23L497.875 1H468.375L504.675 36L468.375 71Z" fill="white"/>
<path d="M596.453 1H574.453V71H596.453V1Z" fill="white"/>
<path d="M600.895 46.6C600.895 67.1 617.495 72 646.195 72C673.495 72 690.295 67.7 690.295 48.7C690.295 30.6 673.195 28.9 645.595 27.6C627.895 26.8 624.495 26.3 624.495 22.2C624.495 18.3 627.895 17.1 642.795 17.1C658.495 17.1 665.295 18.5 665.295 24.2H687.295C687.295 6.6 671.695 0 644.795 0C617.895 0 602.495 5.7 602.495 21.1C602.495 37.2 614.595 42.2 645.595 43.4C665.195 44.2 668.295 44.8 668.295 49.3C668.295 53.3 664.295 54.9 647.195 54.9C627.595 54.9 622.895 52 622.895 46.6H600.895Z" fill="white"/>
<path d="M776.25 1H690.25V19.6H722.25V71H744.25V19.6H776.25V1Z" fill="white"/>
<path d="M909.453 1H823.453V19.6H855.453V71H877.453V19.6H909.453V1Z" fill="white"/>
<path d="M954.758 72C985.458 72 998.758 59.6 998.758 35.9C998.758 12.3 985.458 0 954.758 0C923.958 0 910.758 12.2 910.758 35.9C910.758 59.7 923.958 72 954.758 72ZM954.758 53.4C937.758 53.4 932.758 46.8 932.758 35.9C932.758 25.1 937.658 18.6 954.758 18.6C971.958 18.6 976.758 25.2 976.758 35.9C976.758 46.7 971.858 53.4 954.758 53.4Z" fill="white"/>
<path d="M76.7367 152.4C80.1367 148.5 82.2367 143.8 82.2367 139.1C82.2367 128.6 77.3367 121 61.4367 121H0.136719V191H64.1367C80.0367 191 86.9367 182.1 86.9367 170.4C86.9367 162.6 82.8367 156.4 76.7367 152.4ZM22.1367 136H52.7367C56.5367 136 60.2367 136 60.2367 141.5C60.2367 147 56.5367 147 52.7367 147H22.1367V136ZM57.4367 174.6H22.1367V163.5H57.4367C61.2367 163.5 64.9367 163.5 64.9367 169C64.9367 174.6 61.2367 174.6 57.4367 174.6Z" fill="white"/>
<path d="M173.148 147.2C173.148 131.6 162.248 121 146.348 121H91.3477V191H113.348V173.5H135.648L146.048 191H172.048L159.448 170.6C167.948 166.5 173.148 158 173.148 147.2ZM113.348 139.6H141.348C145.448 139.6 151.148 139.6 151.148 147.2C151.148 154.9 145.448 154.9 141.348 154.9H113.348V139.6Z" fill="white"/>
<path d="M199.578 121H177.578V191H199.578V121Z" fill="white"/>
<path d="M273.805 121V168.4L234.905 121H205.605V191H227.605V143.4L266.605 191H295.805V121H273.805Z" fill="white"/>
<path d="M342.62 166H365.12C364.42 171 357.82 175.6 344.12 175.6C324.82 175.6 321.82 165.1 321.82 156.6C321.82 148.2 324.72 138.6 344.12 138.6C359.12 138.6 364.12 144.2 365.12 148.6H387.52C386.42 130.4 372.12 120 344.12 120C315.32 120 299.82 132.2 299.82 155.9C299.82 179.8 315.32 192 341.12 192C355.92 192 365.82 187.5 372.12 180.5L373.42 191H387.52V153.2H342.62V166Z" fill="white"/>
<path d="M509.684 139.6V121H435.684V191H457.684V170.8H503.684V152.2H457.684V139.6H509.684Z" fill="white"/>
<path d="M536.102 121H514.102V191H536.102V121Z" fill="white"/>
<path d="M610.329 121V168.4L571.429 121H542.129V191H564.129V143.4L603.129 191H632.329V121H610.329Z" fill="white"/>
<path d="M707.865 191H732.065L699.565 121H668.065L635.465 191H659.765L665.765 177.3H701.865L707.865 191ZM672.765 161.5L683.865 136.4L694.865 161.5H672.765Z" fill="white"/>
<path d="M803.395 121V168.4L764.495 121H735.195V191H757.195V143.4L796.195 191H825.395V121H803.395Z" fill="white"/>
<path d="M829.41 155.9C829.41 179.7 842.61 192 873.41 192C901.41 192 915.71 181.7 917.11 160.5H894.71C893.41 169.5 886.41 173.4 873.41 173.4C856.71 173.4 851.41 166.8 851.41 155.9C851.41 145.1 856.61 138.6 873.41 138.6C886.41 138.6 893.41 142.4 894.71 151.3H917.11C915.71 130.2 901.41 120 873.41 120C842.61 120 829.41 132.2 829.41 155.9Z" fill="white"/>
<path d="M943.816 121H921.816V191H943.816V121Z" fill="white"/>
<path d="M1019.39 191H1043.59L1011.09 121H979.588L946.988 191H971.288L977.288 177.3H1013.39L1019.39 191ZM984.288 161.5L995.388 136.4L1006.39 161.5H984.288Z" fill="white"/>
<path d="M1068.72 172.4V121H1046.72V191H1118.72V172.4H1068.72Z" fill="white"/>
<path d="M101.719 241H46.7188V311H68.7188V293.5H101.719C117.619 293.5 128.519 282.8 128.519 267.2C128.519 251.6 117.619 241 101.719 241ZM96.7188 274.9H68.7188V259.6H96.7188C100.819 259.6 106.519 259.6 106.519 267.2C106.519 274.9 100.819 274.9 96.7188 274.9Z" fill="white"/>
<path d="M175.949 312C206.649 312 219.949 299.6 219.949 275.9C219.949 252.3 206.649 240 175.949 240C145.149 240 131.949 252.2 131.949 275.9C131.949 299.7 145.149 312 175.949 312ZM175.949 293.4C158.949 293.4 153.949 286.8 153.949 275.9C153.949 265.1 158.849 258.6 175.949 258.6C193.149 258.6 197.949 265.2 197.949 275.9C197.949 286.7 193.049 293.4 175.949 293.4Z" fill="white"/>
<path d="M339.12 241L321.52 293.7L302.92 241H276.42L257.82 293.7L240.22 241H216.52L241.82 311H273.62L289.72 263.6L305.72 311H337.52L362.72 241H339.12Z" fill="white"/>
<path d="M440.348 258.1V241H366.348V311H440.348V293.9H388.348V283.5H440.348V268.5H388.348V258.1H440.348Z" fill="white"/>
<path d="M526.859 267.2C526.859 251.6 515.959 241 500.059 241H445.059V311H467.059V293.5H489.359L499.759 311H525.759L513.159 290.6C521.659 286.5 526.859 278 526.859 267.2ZM467.059 259.6H495.059C499.159 259.6 504.859 259.6 504.859 267.2C504.859 274.9 499.159 274.9 495.059 274.9H467.059V259.6Z" fill="white"/>
<path d="M660.039 241H574.039V259.6H606.039V311H628.039V259.6H660.039V241Z" fill="white"/>
<path d="M705.344 312C736.044 312 749.344 299.6 749.344 275.9C749.344 252.3 736.044 240 705.344 240C674.544 240 661.344 252.2 661.344 275.9C661.344 299.7 674.544 312 705.344 312ZM705.344 293.4C688.344 293.4 683.344 286.8 683.344 275.9C683.344 265.1 688.244 258.6 705.344 258.6C722.544 258.6 727.344 265.2 727.344 275.9C727.344 286.7 722.444 293.4 705.344 293.4Z" fill="white"/>
<path d="M868.9 311H893.1L860.6 241H829.1L796.5 311H820.8L826.8 297.3H862.9L868.9 311ZM833.8 281.5L844.9 256.4L855.9 281.5H833.8Z" fill="white"/>
<path d="M918.23 292.4V241H896.23V311H968.23V292.4H918.23Z" fill="white"/>
<path d="M995.281 292.4V241H973.281V311H1045.28V292.4H995.281Z" fill="white"/>
<path d="M1050.62 295.3V311H1071.22V295.3H1050.62Z" fill="white"/>
</svg>
