<svg width="237" height="285" viewBox="0 0 237 285" fill="none" xmlns="http://www.w3.org/2000/svg">
<path d="M134.194 36.2186L174.692 57.4476V190.7L133.867 170.777C133.867 170.777 134.684 35.7287 134.194 36.2186Z" fill="#A3B7FF" stroke="black" stroke-width="0.401131" stroke-miterlimit="10"/>
<path d="M163.914 1.27271L123.742 22.5017L194.941 58.101L235.439 38.1784L163.914 1.27271Z" fill="#ECEFDE" stroke="black" stroke-width="0.401131" stroke-miterlimit="10"/>
<path d="M80.6309 84.9897L103.712 73.7775L184.708 113.623V63.3264L134.412 37.8516V47.323L123.634 42.7506V22.5015L195.486 57.7742V129.626L103.712 83.5755L93.2604 89.1277L80.6309 84.9897Z" fill="#FF8F87" stroke="black" stroke-width="0.401131" stroke-miterlimit="10"/>
<path d="M123.635 104.586V144.758L1.16016 84.0103L103.712 33.0608L184.709 73.5591V114.057L104.039 73.8857L83.4632 84.0103L123.635 104.586Z" fill="#ECEFDE" stroke="black" stroke-width="0.401131" stroke-miterlimit="10"/>
<path d="M0.722656 84.1213V94.5725L123.524 155.973V144.869L0.722656 84.1213Z" fill="#FF8F87" stroke="black" stroke-width="0.401131" stroke-miterlimit="10"/>
<path d="M123.961 93.5925L123.635 165.552L133.975 170.885L134.194 99.0337L123.961 93.5925Z" fill="#FF8F87" stroke="black" stroke-width="0.401131" stroke-miterlimit="10"/>
<path d="M174.907 171.65L195.156 182.101L194.176 252.101L134.608 222.857L11.2808 161.525V212.148L122.651 267.67L123.523 217.482L134.556 223.142L134.409 284L1.15625 217.7V145.522L184.163 236.859L184.052 187.327L174.907 182.101V171.65Z" fill="#FF8F87" stroke="black" stroke-width="0.401131" stroke-miterlimit="10"/>
<path d="M11.3936 161.96V212.256L52.2185 192.333V181.882L11.3936 161.96Z" fill="#A3B7FF" stroke="black" stroke-width="0.401131" stroke-miterlimit="10"/>
<path d="M11.9365 212.256L52.7614 192.007L123.307 226.953V268.104L11.9365 212.256Z" fill="#ECEFDE" stroke="black" stroke-width="0.401131" stroke-miterlimit="10"/>
<path d="M134.521 222.923V283.343L174.693 263.421L174.912 242.737L134.521 222.923Z" fill="#A3B7FF" stroke="black" stroke-width="0.401131" stroke-miterlimit="10"/>
<path d="M0.942383 145.195L42.0939 124.508L184.165 195.38V236.858L0.942383 145.195Z" fill="#ECEFDE" stroke="black" stroke-width="0.401131" stroke-miterlimit="10"/>
<path d="M174.8 130.606L174.911 171.323L194.396 181.448L235.113 160.872L174.8 130.606Z" fill="#ECEFDE" stroke="black" stroke-width="0.401131" stroke-miterlimit="10"/>
<path d="M194.396 181.229V252.101L235.221 232.505V160.98L194.396 181.229Z" fill="#A3B7FF" stroke="black" stroke-width="0.401131" stroke-miterlimit="10"/>
<path d="M195.574 58.4506V129.323L236.399 109.727V38.2014L195.574 58.4506Z" fill="#A3B7FF" stroke="black" stroke-width="0.401131" stroke-miterlimit="10"/>
<path d="M195.274 39.0733C203.097 39.0733 209.439 36.4427 209.439 33.1978C209.439 29.9528 203.097 27.3223 195.274 27.3223C187.451 27.3223 181.109 29.9528 181.109 33.1978C181.109 36.4427 187.451 39.0733 195.274 39.0733Z" fill="black" stroke="black" stroke-width="0.226639" stroke-miterlimit="10"/>
<path d="M195.275 32.8419C204.173 32.8419 211.386 25.6287 211.386 16.7308C211.386 7.83283 204.173 0.619629 195.275 0.619629C186.377 0.619629 179.164 7.83283 179.164 16.7308C179.164 25.6287 186.377 32.8419 195.275 32.8419Z" fill="#FF4600" stroke="black" stroke-width="0.401131" stroke-miterlimit="10"/>
<path d="M45.7935 88.7195C53.6164 88.7195 59.9581 86.089 59.9581 82.844C59.9581 79.5991 53.6164 76.9685 45.7935 76.9685C37.9706 76.9685 31.6289 79.5991 31.6289 82.844C31.6289 86.089 37.9706 88.7195 45.7935 88.7195Z" fill="black" stroke="black" stroke-width="0.226639" stroke-miterlimit="10"/>
<path d="M45.7938 82.4916C54.6917 82.4916 61.9049 75.2784 61.9049 66.3804C61.9049 57.4825 54.6917 50.2693 45.7938 50.2693C36.8958 50.2693 29.6826 57.4825 29.6826 66.3804C29.6826 75.2784 36.8958 82.4916 45.7938 82.4916Z" fill="#FF8480" stroke="black" stroke-width="0.401131" stroke-miterlimit="10"/>
<path d="M152.483 205.642C160.306 205.642 166.648 203.012 166.648 199.767C166.648 196.522 160.306 193.891 152.483 193.891C144.66 193.891 138.318 196.522 138.318 199.767C138.318 203.012 144.66 205.642 152.483 205.642Z" fill="black" stroke="black" stroke-width="0.226639" stroke-miterlimit="10"/>
<path d="M152.483 199.414C161.381 199.414 168.594 192.2 168.594 183.303C168.594 174.405 161.381 167.191 152.483 167.191C143.585 167.191 136.372 174.405 136.372 183.303C136.372 192.2 143.585 199.414 152.483 199.414Z" fill="#FF4600" stroke="black" stroke-width="0.401131" stroke-miterlimit="10"/>
</svg>
