<svg width="1485" height="71" viewBox="0 0 1485 71" fill="none" xmlns="http://www.w3.org/2000/svg">
<path d="M792.346 70.7C806.446 70.7 813.346 64.1 816.046 56.2V69H829.046V33.6H790.846V43.5H814.546C813.346 51.8 808.846 58.7 795.646 58.7C782.246 58.7 776.546 50.8 776.546 35.8C776.546 20 783.046 12.7 796.346 12.7C807.446 12.7 812.846 17.4 813.746 25H829.146C827.946 10.9 818.646 0.799996 796.446 0.799996C771.346 0.799996 760.646 16.3 760.646 35.7C760.646 55 770.446 70.7 792.346 70.7ZM854.783 56.9V40.7H888.783V29.4H854.783V14.5H891.783V2.5H839.583V69H892.083V56.9H854.783ZM956.239 2.5H897.239V14.5H919.139V69H934.339V14.5H956.239V2.5ZM1030.46 14.5V2.5H990.657V14.5H1002.96V56.9H990.657V69H1030.46V56.9H1018.16V14.5H1030.46ZM1091.14 2.5V58.2C1090.04 54.8 1088.74 51.4 1087.54 48.6L1066.54 2.5H1041.34V69H1055.94V13.4C1056.94 16.8 1058.24 20.2 1059.74 23.6L1080.54 69H1105.74V2.5H1091.14ZM1199.11 2.5H1140.11V14.5H1162.01V69H1177.21V14.5H1199.11V2.5ZM1235.3 70.7C1260.8 70.7 1270.3 54.1 1270.3 35.8C1270.3 17.8 1260.8 0.799996 1235.3 0.799996C1209.8 0.799996 1200.2 17.7 1200.2 35.8C1200.2 54.2 1209.8 70.7 1235.3 70.7ZM1216.1 35.8C1216.1 21.1 1220.7 13.2 1235.3 13.2C1249.9 13.2 1254.5 21.1 1254.5 35.8C1254.5 50.3 1249.9 58.2 1235.3 58.2C1220.7 58.2 1216.1 50.3 1216.1 35.8ZM1279.03 44.1C1279.03 61.5 1289.03 70.6 1308.93 70.6C1328.83 70.6 1338.73 61.4 1338.73 44.1V2.5H1323.63V42C1323.63 54.9 1318.73 58.2 1308.93 58.2C1299.13 58.2 1294.23 54.9 1294.23 42V2.5H1279.03V44.1ZM1381.58 70.7C1405.08 70.7 1414.28 61.3 1415.68 42.1H1399.98C1399.18 52.5 1394.18 58.2 1381.38 58.2C1368.08 58.2 1362.68 50.5 1362.68 35.8C1362.68 20.9 1368.48 13.2 1381.88 13.2C1394.18 13.2 1398.88 18.8 1399.78 28.6H1415.38C1413.88 10.4 1404.58 0.799996 1381.68 0.799996C1356.68 0.799996 1346.78 17.4 1346.78 35.8C1346.78 54.5 1356.58 70.7 1381.58 70.7ZM1469.75 2.5V29.1H1439.25V2.5H1424.15V69H1439.25V41H1469.75V69H1484.95V2.5H1469.75Z" fill="black"/>
<path d="M56.2809 56.2H57.2809L55.3346 55.8766L56.2809 56.2ZM56.2809 69H55.2809V70H56.2809V69ZM69.2809 69V70H70.2809V69H69.2809ZM69.2809 33.6H70.2809V32.6H69.2809V33.6ZM31.0809 33.6V32.6H30.0809V33.6H31.0809ZM31.0809 43.5H30.0809V44.5H31.0809V43.5ZM54.7809 43.5L55.7706 43.6431L55.9358 42.5H54.7809V43.5ZM53.9809 25L52.9878 25.1176L53.0923 26H53.9809V25ZM69.3809 25V26H70.4696L70.3773 24.9152L69.3809 25ZM32.5809 71.7C39.7884 71.7 45.2479 70.0116 49.2735 67.2358C53.3014 64.4584 55.8189 60.6438 57.2271 56.5234L55.3346 55.8766C54.0428 59.6562 51.7603 63.0916 48.1382 65.5892C44.5139 68.0884 39.4734 69.7 32.5809 69.7V71.7ZM55.2809 56.2V69H57.2809V56.2H55.2809ZM56.2809 70H69.2809V68H56.2809V70ZM70.2809 69V33.6H68.2809V69H70.2809ZM69.2809 32.6H31.0809V34.6H69.2809V32.6ZM30.0809 33.6V43.5H32.0809V33.6H30.0809ZM31.0809 44.5H54.7809V42.5H31.0809V44.5ZM53.7912 43.3569C53.2091 47.3827 51.8449 50.9349 49.1442 53.4855C46.4559 56.0245 42.3056 57.7 35.8809 57.7V59.7C42.6561 59.7 47.3558 57.9255 50.5175 54.9395C53.6668 51.9651 55.1526 47.9173 55.7706 43.6431L53.7912 43.3569ZM35.8809 57.7C29.3839 57.7 24.9402 55.7941 22.0848 52.2478C19.1931 48.6567 17.7809 43.204 17.7809 35.8H15.7809C15.7809 43.396 17.2186 49.3933 20.527 53.5022C23.8715 57.6559 28.9778 59.7 35.8809 59.7V57.7ZM17.7809 35.8C17.7809 28.01 19.3876 22.5187 22.4496 18.9793C25.4856 15.47 30.1116 13.7 36.5809 13.7V11.7C29.7502 11.7 24.4761 13.58 20.9371 17.6707C17.4242 21.7313 15.7809 27.79 15.7809 35.8H17.7809ZM36.5809 13.7C42.0036 13.7 45.8902 14.8497 48.5081 16.8017C51.1007 18.7347 52.5642 21.5402 52.9878 25.1176L54.9739 24.8824C54.4976 20.8598 52.811 17.5152 49.7036 15.1983C46.6215 12.9003 42.2581 11.7 36.5809 11.7V13.7ZM53.9809 26H69.3809V24H53.9809V26ZM70.3773 24.9152C69.7599 17.6609 67.0439 11.3341 61.5384 6.83796C56.0502 2.35597 47.9205 -0.200004 36.6809 -0.200004V1.8C47.6413 1.8 55.2615 4.29402 60.2733 8.38703C65.2678 12.4659 67.8019 18.2391 68.3845 25.0848L70.3773 24.9152ZM36.6809 -0.200004C23.9176 -0.200004 14.6757 3.74781 8.63339 10.2969C2.60465 16.8313 -0.11914 25.8256 -0.11914 35.7H1.88086C1.88086 26.1744 4.50707 17.7187 10.1033 11.6531C15.686 5.60218 24.3441 1.8 36.6809 1.8V-0.200004ZM-0.11914 35.7C-0.11914 45.5046 2.3688 54.5034 7.74454 61.0709C13.1447 67.6682 21.3688 71.7 32.5809 71.7V69.7C21.8929 69.7 14.267 65.8818 9.29218 59.8041C4.29292 53.6966 1.88086 45.1954 1.88086 35.7H-0.11914ZM95.0176 56.9H94.0176V57.9H95.0176V56.9ZM95.0176 40.7V39.7H94.0176V40.7H95.0176ZM129.018 40.7V41.7H130.018V40.7H129.018ZM129.018 29.4H130.018V28.4H129.018V29.4ZM95.0176 29.4H94.0176V30.4H95.0176V29.4ZM95.0176 14.5V13.5H94.0176V14.5H95.0176ZM132.018 14.5V15.5H133.018V14.5H132.018ZM132.018 2.5H133.018V1.5H132.018V2.5ZM79.8176 2.5V1.5H78.8176V2.5H79.8176ZM79.8176 69H78.8176V70H79.8176V69ZM132.318 69V70H133.318V69H132.318ZM132.318 56.9H133.318V55.9H132.318V56.9ZM96.0176 56.9V40.7H94.0176V56.9H96.0176ZM95.0176 41.7H129.018V39.7H95.0176V41.7ZM130.018 40.7V29.4H128.018V40.7H130.018ZM129.018 28.4H95.0176V30.4H129.018V28.4ZM96.0176 29.4V14.5H94.0176V29.4H96.0176ZM95.0176 15.5H132.018V13.5H95.0176V15.5ZM133.018 14.5V2.5H131.018V14.5H133.018ZM132.018 1.5H79.8176V3.5H132.018V1.5ZM78.8176 2.5V69H80.8176V2.5H78.8176ZM79.8176 70H132.318V68H79.8176V70ZM133.318 69V56.9H131.318V69H133.318ZM132.318 55.9H95.0176V57.9H132.318V55.9ZM196.474 2.5H197.474V1.5H196.474V2.5ZM137.474 2.5V1.5H136.474V2.5H137.474ZM137.474 14.5H136.474V15.5H137.474V14.5ZM159.374 14.5H160.374V13.5H159.374V14.5ZM159.374 69H158.374V70H159.374V69ZM174.574 69V70H175.574V69H174.574ZM174.574 14.5V13.5H173.574V14.5H174.574ZM196.474 14.5V15.5H197.474V14.5H196.474ZM196.474 1.5H137.474V3.5H196.474V1.5ZM136.474 2.5V14.5H138.474V2.5H136.474ZM137.474 15.5H159.374V13.5H137.474V15.5ZM158.374 14.5V69H160.374V14.5H158.374ZM159.374 70H174.574V68H159.374V70ZM175.574 69V14.5H173.574V69H175.574ZM174.574 15.5H196.474V13.5H174.574V15.5ZM197.474 14.5V2.5H195.474V14.5H197.474ZM270.692 14.5V15.5H271.692V14.5H270.692ZM270.692 2.5H271.692V1.5H270.692V2.5ZM230.892 2.5V1.5H229.892V2.5H230.892ZM230.892 14.5H229.892V15.5H230.892V14.5ZM243.192 14.5H244.192V13.5H243.192V14.5ZM243.192 56.9V57.9H244.192V56.9H243.192ZM230.892 56.9V55.9H229.892V56.9H230.892ZM230.892 69H229.892V70H230.892V69ZM270.692 69V70H271.692V69H270.692ZM270.692 56.9H271.692V55.9H270.692V56.9ZM258.392 56.9H257.392V57.9H258.392V56.9ZM258.392 14.5V13.5H257.392V14.5H258.392ZM271.692 14.5V2.5H269.692V14.5H271.692ZM270.692 1.5H230.892V3.5H270.692V1.5ZM229.892 2.5V14.5H231.892V2.5H229.892ZM230.892 15.5H243.192V13.5H230.892V15.5ZM242.192 14.5V56.9H244.192V14.5H242.192ZM243.192 55.9H230.892V57.9H243.192V55.9ZM229.892 56.9V69H231.892V56.9H229.892ZM230.892 70H270.692V68H230.892V70ZM271.692 69V56.9H269.692V69H271.692ZM270.692 55.9H258.392V57.9H270.692V55.9ZM259.392 56.9V14.5H257.392V56.9H259.392ZM258.392 15.5H270.692V13.5H258.392V15.5ZM331.375 2.5V1.5H330.375V2.5H331.375ZM331.375 58.2L330.424 58.5078L332.375 58.2H331.375ZM327.775 48.6L328.695 48.2061L328.69 48.1957L328.685 48.1855L327.775 48.6ZM306.775 2.5L307.685 2.08545L307.419 1.5H306.775V2.5ZM281.575 2.5V1.5H280.575V2.5H281.575ZM281.575 69H280.575V70H281.575V69ZM296.175 69V70H297.175V69H296.175ZM296.175 13.4L297.135 13.1178L295.175 13.4H296.175ZM299.975 23.6L299.06 24.0037L299.066 24.0165L299.975 23.6ZM320.775 69L319.866 69.4165L320.134 70H320.775V69ZM345.975 69V70H346.975V69H345.975ZM345.975 2.5H346.975V1.5H345.975V2.5ZM330.375 2.5V58.2H332.375V2.5H330.375ZM332.327 57.8922C331.217 54.4611 329.906 51.0323 328.695 48.2061L326.856 48.9939C328.045 51.7677 329.334 55.1389 330.424 58.5078L332.327 57.8922ZM328.685 48.1855L307.685 2.08545L305.865 2.91454L326.865 49.0145L328.685 48.1855ZM306.775 1.5H281.575V3.5H306.775V1.5ZM280.575 2.5V69H282.575V2.5H280.575ZM281.575 70H296.175V68H281.575V70ZM297.175 69V13.4H295.175V69H297.175ZM295.216 13.6822C296.231 17.1332 297.548 20.5745 299.06 24.0036L300.89 23.1964C299.403 19.8255 298.12 16.4668 297.135 13.1178L295.216 13.6822ZM299.066 24.0165L319.866 69.4165L321.685 68.5835L300.885 23.1835L299.066 24.0165ZM320.775 70H345.975V68H320.775V70ZM346.975 69V2.5H344.975V69H346.975ZM345.975 1.5H331.375V3.5H345.975V1.5ZM439.345 2.5H440.345V1.5H439.345V2.5ZM380.345 2.5V1.5H379.345V2.5H380.345ZM380.345 14.5H379.345V15.5H380.345V14.5ZM402.245 14.5H403.245V13.5H402.245V14.5ZM402.245 69H401.245V70H402.245V69ZM417.445 69V70H418.445V69H417.445ZM417.445 14.5V13.5H416.445V14.5H417.445ZM439.345 14.5V15.5H440.345V14.5H439.345ZM439.345 1.5H380.345V3.5H439.345V1.5ZM379.345 2.5V14.5H381.345V2.5H379.345ZM380.345 15.5H402.245V13.5H380.345V15.5ZM401.245 14.5V69H403.245V14.5H401.245ZM402.245 70H417.445V68H402.245V70ZM418.445 69V14.5H416.445V69H418.445ZM417.445 15.5H439.345V13.5H417.445V15.5ZM440.345 14.5V2.5H438.345V14.5H440.345ZM475.532 71.7C488.513 71.7 497.563 67.4648 503.351 60.7663C509.117 54.0935 511.532 45.1081 511.532 35.8H509.532C509.532 44.7919 507.197 53.2565 501.837 59.4587C496.5 65.6352 488.05 69.7 475.532 69.7V71.7ZM511.532 35.8C511.532 26.6391 509.115 17.6323 503.354 10.8998C497.569 4.14043 488.521 -0.200004 475.532 -0.200004V1.8C488.042 1.8 496.494 5.95956 501.834 12.2002C507.198 18.4677 509.532 26.9609 509.532 35.8H511.532ZM475.532 -0.200004C462.545 -0.200004 453.472 4.11394 447.661 10.8599C441.874 17.5799 439.432 26.5877 439.432 35.8H441.432C441.432 26.9122 443.79 18.4201 449.177 12.1651C454.542 5.93605 463.019 1.8 475.532 1.8V-0.200004ZM439.432 35.8C439.432 45.1595 441.872 54.1458 447.665 60.8062C453.478 67.4912 462.552 71.7 475.532 71.7V69.7C463.011 69.7 454.535 65.6588 449.174 59.4938C443.791 53.3042 441.432 44.8405 441.432 35.8H439.432ZM457.332 35.8C457.332 28.5105 458.482 23.1441 461.245 19.6027C463.962 16.1205 468.408 14.2 475.532 14.2V12.2C468.055 12.2 462.901 14.2295 459.668 18.3723C456.482 22.4559 455.332 28.3895 455.332 35.8H457.332ZM475.532 14.2C482.655 14.2 487.101 16.1205 489.818 19.6027C492.582 23.1441 493.732 28.5105 493.732 35.8H495.732C495.732 28.3895 494.582 22.4559 491.395 18.3723C488.162 14.2295 483.008 12.2 475.532 12.2V14.2ZM493.732 35.8C493.732 42.9872 492.582 48.3032 489.82 51.8198C487.103 55.2792 482.655 57.2 475.532 57.2V59.2C483.008 59.2 488.16 57.1708 491.393 53.0552C494.581 48.9968 495.732 43.1128 495.732 35.8H493.732ZM475.532 57.2C468.408 57.2 463.96 55.2792 461.243 51.8198C458.481 48.3032 457.332 42.9872 457.332 35.8H455.332C455.332 43.1128 456.482 48.9968 459.67 53.0552C462.903 57.1708 468.055 59.2 475.532 59.2V57.2ZM578.964 2.5H579.964V1.5H578.964V2.5ZM563.864 2.5V1.5H562.864V2.5H563.864ZM534.464 2.5H535.464V1.5H534.464V2.5ZM519.264 2.5V1.5H518.264V2.5H519.264ZM518.264 44.1C518.264 52.9924 520.825 59.9275 526.085 64.6212C531.325 69.2964 539.08 71.6 549.164 71.6V69.6C539.347 69.6 532.152 67.3536 527.417 63.1288C522.703 58.9225 520.264 52.6076 520.264 44.1H518.264ZM549.164 71.6C559.25 71.6 566.98 69.2702 572.195 64.5811C577.429 59.8747 579.964 52.941 579.964 44.1H577.964C577.964 52.559 575.549 58.8753 570.858 63.0939C566.147 67.3298 558.978 69.6 549.164 69.6V71.6ZM579.964 44.1V2.5H577.964V44.1H579.964ZM578.964 1.5H563.864V3.5H578.964V1.5ZM562.864 2.5V42H564.864V2.5H562.864ZM562.864 42C562.864 48.3691 561.645 52.0781 559.483 54.2286C557.326 56.3754 553.998 57.2 549.164 57.2V59.2C554.13 59.2 558.152 58.3746 560.894 55.6464C563.632 52.9219 564.864 48.5308 564.864 42H562.864ZM549.164 57.2C544.33 57.2 541.002 56.3754 538.844 54.2286C536.682 52.0781 535.464 48.3691 535.464 42H533.464C533.464 48.5308 534.695 52.9219 537.433 55.6464C540.176 58.3746 544.198 59.2 549.164 59.2V57.2ZM535.464 42V2.5H533.464V42H535.464ZM534.464 1.5H519.264V3.5H534.464V1.5ZM518.264 2.5V44.1H520.264V2.5H518.264ZM655.914 42.1L656.911 42.1727L656.989 41.1H655.914V42.1ZM640.214 42.1V41.1H639.288L639.217 42.0233L640.214 42.1ZM640.014 28.6L639.018 28.6915L639.101 29.6H640.014V28.6ZM655.614 28.6V29.6H656.699L656.61 28.5179L655.614 28.6ZM621.814 71.7C633.671 71.7 642.135 69.3327 647.811 64.3516C653.501 59.3579 656.201 51.9041 656.911 42.1727L654.916 42.0273C654.226 51.4959 651.626 58.3421 646.492 62.8484C641.342 67.3673 633.456 69.7 621.814 69.7V71.7ZM655.914 41.1H640.214V43.1H655.914V41.1ZM639.217 42.0233C638.827 47.094 637.426 50.8299 634.735 53.3154C632.042 55.8029 627.882 57.2 621.614 57.2V59.2C628.145 59.2 632.885 57.7471 636.092 54.7846C639.301 51.8201 640.801 47.506 641.211 42.1767L639.217 42.0233ZM621.614 57.2C615.161 57.2 610.822 55.3411 608.057 51.8875C605.253 48.3863 603.914 43.0607 603.914 35.8H601.914C601.914 43.2393 603.274 49.1137 606.496 53.1375C609.755 57.2089 614.766 59.2 621.614 59.2V57.2ZM603.914 35.8C603.914 28.45 605.349 23.0766 608.26 19.5489C611.138 16.0613 615.608 14.2 622.114 14.2V12.2C615.219 12.2 610.09 14.1887 606.717 18.2761C603.378 22.3234 601.914 28.25 601.914 35.8H603.914ZM622.114 14.2C628.126 14.2 632.088 15.5692 634.658 17.9576C637.23 20.3476 638.579 23.916 639.018 28.6915L641.009 28.5085C640.548 23.484 639.097 19.3524 636.019 16.4924C632.94 13.6308 628.401 12.2 622.114 12.2V14.2ZM640.014 29.6H655.614V27.6H640.014V29.6ZM656.61 28.5179C655.848 19.2736 653.09 12.0301 647.445 7.12047C641.813 2.22218 633.483 -0.200004 621.914 -0.200004V1.8C633.244 1.8 641.014 4.17782 646.132 8.62953C651.238 13.0699 653.879 19.7264 654.617 28.6821L656.61 28.5179ZM621.914 -0.200004C609.177 -0.200004 600.155 4.03879 594.334 10.7444C588.533 17.4258 586.014 26.434 586.014 35.8H588.014C588.014 26.766 590.445 18.2742 595.844 12.0556C601.222 5.8612 609.651 1.8 621.914 1.8V-0.200004ZM586.014 35.8C586.014 45.3109 588.505 54.2975 594.285 60.9201C600.086 67.5662 609.084 71.7 621.814 71.7V69.7C609.543 69.7 601.141 65.7338 595.792 59.6049C590.422 53.4525 588.014 44.9891 588.014 35.8H586.014ZM709.988 2.5V1.5H708.988V2.5H709.988ZM709.988 29.1V30.1H710.988V29.1H709.988ZM679.488 29.1H678.488V30.1H679.488V29.1ZM679.488 2.5H680.488V1.5H679.488V2.5ZM664.388 2.5V1.5H663.388V2.5H664.388ZM664.388 69H663.388V70H664.388V69ZM679.488 69V70H680.488V69H679.488ZM679.488 41V40H678.488V41H679.488ZM709.988 41H710.988V40H709.988V41ZM709.988 69H708.988V70H709.988V69ZM725.188 69V70H726.188V69H725.188ZM725.188 2.5H726.188V1.5H725.188V2.5ZM708.988 2.5V29.1H710.988V2.5H708.988ZM709.988 28.1H679.488V30.1H709.988V28.1ZM680.488 29.1V2.5H678.488V29.1H680.488ZM679.488 1.5H664.388V3.5H679.488V1.5ZM663.388 2.5V69H665.388V2.5H663.388ZM664.388 70H679.488V68H664.388V70ZM680.488 69V41H678.488V69H680.488ZM679.488 42H709.988V40H679.488V42ZM708.988 41V69H710.988V41H708.988ZM709.988 70H725.188V68H709.988V70ZM726.188 69V2.5H724.188V69H726.188ZM725.188 1.5H709.988V3.5H725.188V1.5ZM816.046 56.2H817.046L815.1 55.8766L816.046 56.2ZM816.046 69H815.046V70H816.046V69ZM829.046 69V70H830.046V69H829.046ZM829.046 33.6H830.046V32.6H829.046V33.6ZM790.846 33.6V32.6H789.846V33.6H790.846ZM790.846 43.5H789.846V44.5H790.846V43.5ZM814.546 43.5L815.536 43.6431L815.701 42.5H814.546V43.5ZM813.746 25L812.753 25.1176L812.858 26H813.746V25ZM829.146 25V26H830.235L830.143 24.9152L829.146 25ZM792.346 71.7C799.554 71.7 805.013 70.0116 809.039 67.2358C813.067 64.4584 815.585 60.6438 816.993 56.5234L815.1 55.8766C813.808 59.6562 811.526 63.0916 807.904 65.5892C804.279 68.0884 799.239 69.7 792.346 69.7V71.7ZM815.046 56.2V69H817.046V56.2H815.046ZM816.046 70H829.046V68H816.046V70ZM830.046 69V33.6H828.046V69H830.046ZM829.046 32.6H790.846V34.6H829.046V32.6ZM789.846 33.6V43.5H791.846V33.6H789.846ZM790.846 44.5H814.546V42.5H790.846V44.5ZM813.557 43.3569C812.975 47.3827 811.611 50.9349 808.91 53.4855C806.222 56.0245 802.071 57.7 795.646 57.7V59.7C802.422 59.7 807.121 57.9255 810.283 54.9395C813.432 51.9651 814.918 47.9173 815.536 43.6431L813.557 43.3569ZM795.646 57.7C789.15 57.7 784.706 55.7941 781.85 52.2478C778.959 48.6567 777.546 43.204 777.546 35.8H775.546C775.546 43.396 776.984 49.3933 780.293 53.5022C783.637 57.6559 788.743 59.7 795.646 59.7V57.7ZM777.546 35.8C777.546 28.01 779.153 22.5187 782.215 18.9793C785.251 15.47 789.877 13.7 796.346 13.7V11.7C789.516 11.7 784.242 13.58 780.703 17.6707C777.19 21.7313 775.546 27.79 775.546 35.8H777.546ZM796.346 13.7C801.769 13.7 805.656 14.8497 808.274 16.8017C810.866 18.7347 812.33 21.5402 812.753 25.1176L814.74 24.8824C814.263 20.8598 812.577 17.5152 809.469 15.1983C806.387 12.9003 802.024 11.7 796.346 11.7V13.7ZM813.746 26H829.146V24H813.746V26ZM830.143 24.9152C829.525 17.6609 826.81 11.3341 821.304 6.83796C815.816 2.35597 807.686 -0.200004 796.446 -0.200004V1.8C807.407 1.8 815.027 4.29402 820.039 8.38703C825.033 12.4659 827.567 18.2391 828.15 25.0848L830.143 24.9152ZM796.446 -0.200004C783.683 -0.200004 774.441 3.74781 768.399 10.2969C762.37 16.8313 759.646 25.8256 759.646 35.7H761.646C761.646 26.1744 764.273 17.7187 769.869 11.6531C775.452 5.60218 784.11 1.8 796.446 1.8V-0.200004ZM759.646 35.7C759.646 45.5046 762.134 54.5034 767.51 61.0709C772.91 67.6682 781.134 71.7 792.346 71.7V69.7C781.659 69.7 774.033 65.8818 769.058 59.8041C764.059 53.6966 761.646 45.1954 761.646 35.7H759.646ZM854.783 56.9H853.783V57.9H854.783V56.9ZM854.783 40.7V39.7H853.783V40.7H854.783ZM888.783 40.7V41.7H889.783V40.7H888.783ZM888.783 29.4H889.783V28.4H888.783V29.4ZM854.783 29.4H853.783V30.4H854.783V29.4ZM854.783 14.5V13.5H853.783V14.5H854.783ZM891.783 14.5V15.5H892.783V14.5H891.783ZM891.783 2.5H892.783V1.5H891.783V2.5ZM839.583 2.5V1.5H838.583V2.5H839.583ZM839.583 69H838.583V70H839.583V69ZM892.083 69V70H893.083V69H892.083ZM892.083 56.9H893.083V55.9H892.083V56.9ZM855.783 56.9V40.7H853.783V56.9H855.783ZM854.783 41.7H888.783V39.7H854.783V41.7ZM889.783 40.7V29.4H887.783V40.7H889.783ZM888.783 28.4H854.783V30.4H888.783V28.4ZM855.783 29.4V14.5H853.783V29.4H855.783ZM854.783 15.5H891.783V13.5H854.783V15.5ZM892.783 14.5V2.5H890.783V14.5H892.783ZM891.783 1.5H839.583V3.5H891.783V1.5ZM838.583 2.5V69H840.583V2.5H838.583ZM839.583 70H892.083V68H839.583V70ZM893.083 69V56.9H891.083V69H893.083ZM892.083 55.9H854.783V57.9H892.083V55.9ZM956.239 2.5H957.239V1.5H956.239V2.5ZM897.239 2.5V1.5H896.239V2.5H897.239ZM897.239 14.5H896.239V15.5H897.239V14.5ZM919.139 14.5H920.139V13.5H919.139V14.5ZM919.139 69H918.139V70H919.139V69ZM934.339 69V70H935.339V69H934.339ZM934.339 14.5V13.5H933.339V14.5H934.339ZM956.239 14.5V15.5H957.239V14.5H956.239ZM956.239 1.5H897.239V3.5H956.239V1.5ZM896.239 2.5V14.5H898.239V2.5H896.239ZM897.239 15.5H919.139V13.5H897.239V15.5ZM918.139 14.5V69H920.139V14.5H918.139ZM919.139 70H934.339V68H919.139V70ZM935.339 69V14.5H933.339V69H935.339ZM934.339 15.5H956.239V13.5H934.339V15.5ZM957.239 14.5V2.5H955.239V14.5H957.239ZM1030.46 14.5V15.5H1031.46V14.5H1030.46ZM1030.46 2.5H1031.46V1.5H1030.46V2.5ZM990.657 2.5V1.5H989.657V2.5H990.657ZM990.657 14.5H989.657V15.5H990.657V14.5ZM1002.96 14.5H1003.96V13.5H1002.96V14.5ZM1002.96 56.9V57.9H1003.96V56.9H1002.96ZM990.657 56.9V55.9H989.657V56.9H990.657ZM990.657 69H989.657V70H990.657V69ZM1030.46 69V70H1031.46V69H1030.46ZM1030.46 56.9H1031.46V55.9H1030.46V56.9ZM1018.16 56.9H1017.16V57.9H1018.16V56.9ZM1018.16 14.5V13.5H1017.16V14.5H1018.16ZM1031.46 14.5V2.5H1029.46V14.5H1031.46ZM1030.46 1.5H990.657V3.5H1030.46V1.5ZM989.657 2.5V14.5H991.657V2.5H989.657ZM990.657 15.5H1002.96V13.5H990.657V15.5ZM1001.96 14.5V56.9H1003.96V14.5H1001.96ZM1002.96 55.9H990.657V57.9H1002.96V55.9ZM989.657 56.9V69H991.657V56.9H989.657ZM990.657 70H1030.46V68H990.657V70ZM1031.46 69V56.9H1029.46V69H1031.46ZM1030.46 55.9H1018.16V57.9H1030.46V55.9ZM1019.16 56.9V14.5H1017.16V56.9H1019.16ZM1018.16 15.5H1030.46V13.5H1018.16V15.5ZM1091.14 2.5V1.5H1090.14V2.5H1091.14ZM1091.14 58.2L1090.19 58.5078L1092.14 58.2H1091.14ZM1087.54 48.6L1088.46 48.2061L1088.46 48.1957L1088.45 48.1855L1087.54 48.6ZM1066.54 2.5L1067.45 2.08545L1067.18 1.5H1066.54V2.5ZM1041.34 2.5V1.5H1040.34V2.5H1041.34ZM1041.34 69H1040.34V70H1041.34V69ZM1055.94 69V70H1056.94V69H1055.94ZM1055.94 13.4L1056.9 13.1178L1054.94 13.4H1055.94ZM1059.74 23.6L1058.83 24.0037L1058.83 24.0165L1059.74 23.6ZM1080.54 69L1079.63 69.4165L1079.9 70H1080.54V69ZM1105.74 69V70H1106.74V69H1105.74ZM1105.74 2.5H1106.74V1.5H1105.74V2.5ZM1090.14 2.5V58.2H1092.14V2.5H1090.14ZM1092.09 57.8922C1090.98 54.4611 1089.67 51.0323 1088.46 48.2061L1086.62 48.9939C1087.81 51.7677 1089.1 55.1389 1090.19 58.5078L1092.09 57.8922ZM1088.45 48.1855L1067.45 2.08545L1065.63 2.91454L1086.63 49.0145L1088.45 48.1855ZM1066.54 1.5H1041.34V3.5H1066.54V1.5ZM1040.34 2.5V69H1042.34V2.5H1040.34ZM1041.34 70H1055.94V68H1041.34V70ZM1056.94 69V13.4H1054.94V69H1056.94ZM1054.98 13.6822C1056 17.1332 1057.31 20.5745 1058.83 24.0036L1060.66 23.1964C1059.17 19.8255 1057.89 16.4668 1056.9 13.1178L1054.98 13.6822ZM1058.83 24.0165L1079.63 69.4165L1081.45 68.5835L1060.65 23.1835L1058.83 24.0165ZM1080.54 70H1105.74V68H1080.54V70ZM1106.74 69V2.5H1104.74V69H1106.74ZM1105.74 1.5H1091.14V3.5H1105.74V1.5ZM1199.11 2.5H1200.11V1.5H1199.11V2.5ZM1140.11 2.5V1.5H1139.11V2.5H1140.11ZM1140.11 14.5H1139.11V15.5H1140.11V14.5ZM1162.01 14.5H1163.01V13.5H1162.01V14.5ZM1162.01 69H1161.01V70H1162.01V69ZM1177.21 69V70H1178.21V69H1177.21ZM1177.21 14.5V13.5H1176.21V14.5H1177.21ZM1199.11 14.5V15.5H1200.11V14.5H1199.11ZM1199.11 1.5H1140.11V3.5H1199.11V1.5ZM1139.11 2.5V14.5H1141.11V2.5H1139.11ZM1140.11 15.5H1162.01V13.5H1140.11V15.5ZM1161.01 14.5V69H1163.01V14.5H1161.01ZM1162.01 70H1177.21V68H1162.01V70ZM1178.21 69V14.5H1176.21V69H1178.21ZM1177.21 15.5H1199.11V13.5H1177.21V15.5ZM1200.11 14.5V2.5H1198.11V14.5H1200.11ZM1235.3 71.7C1248.28 71.7 1257.33 67.4648 1263.12 60.7663C1268.88 54.0935 1271.3 45.1081 1271.3 35.8H1269.3C1269.3 44.7919 1266.96 53.2565 1261.6 59.4587C1256.27 65.6352 1247.82 69.7 1235.3 69.7V71.7ZM1271.3 35.8C1271.3 26.6391 1268.88 17.6323 1263.12 10.8998C1257.34 4.14043 1248.29 -0.200004 1235.3 -0.200004V1.8C1247.81 1.8 1256.26 5.95956 1261.6 12.2002C1266.96 18.4677 1269.3 26.9609 1269.3 35.8H1271.3ZM1235.3 -0.200004C1222.31 -0.200004 1213.24 4.11394 1207.43 10.8599C1201.64 17.5799 1199.2 26.5877 1199.2 35.8H1201.2C1201.2 26.9122 1203.56 18.4201 1208.94 12.1651C1214.31 5.93605 1222.78 1.8 1235.3 1.8V-0.200004ZM1199.2 35.8C1199.2 45.1595 1201.64 54.1458 1207.43 60.8062C1213.24 67.4912 1222.32 71.7 1235.3 71.7V69.7C1222.78 69.7 1214.3 65.6588 1208.94 59.4938C1203.56 53.3042 1201.2 44.8405 1201.2 35.8H1199.2ZM1217.1 35.8C1217.1 28.5105 1218.25 23.1441 1221.01 19.6027C1223.73 16.1205 1228.17 14.2 1235.3 14.2V12.2C1227.82 12.2 1222.67 14.2295 1219.43 18.3723C1216.25 22.4559 1215.1 28.3895 1215.1 35.8H1217.1ZM1235.3 14.2C1242.42 14.2 1246.87 16.1205 1249.58 19.6027C1252.35 23.1441 1253.5 28.5105 1253.5 35.8H1255.5C1255.5 28.3895 1254.35 22.4559 1251.16 18.3723C1247.93 14.2295 1242.77 12.2 1235.3 12.2V14.2ZM1253.5 35.8C1253.5 42.9872 1252.35 48.3032 1249.59 51.8198C1246.87 55.2792 1242.42 57.2 1235.3 57.2V59.2C1242.77 59.2 1247.93 57.1708 1251.16 53.0552C1254.35 48.9968 1255.5 43.1128 1255.5 35.8H1253.5ZM1235.3 57.2C1228.17 57.2 1223.73 55.2792 1221.01 51.8198C1218.25 48.3032 1217.1 42.9872 1217.1 35.8H1215.1C1215.1 43.1128 1216.25 48.9968 1219.44 53.0552C1222.67 57.1708 1227.82 59.2 1235.3 59.2V57.2ZM1338.73 2.5H1339.73V1.5H1338.73V2.5ZM1323.63 2.5V1.5H1322.63V2.5H1323.63ZM1294.23 2.5H1295.23V1.5H1294.23V2.5ZM1279.03 2.5V1.5H1278.03V2.5H1279.03ZM1278.03 44.1C1278.03 52.9924 1280.59 59.9275 1285.85 64.6212C1291.09 69.2964 1298.85 71.6 1308.93 71.6V69.6C1299.11 69.6 1291.92 67.3536 1287.18 63.1288C1282.47 58.9225 1280.03 52.6076 1280.03 44.1H1278.03ZM1308.93 71.6C1319.02 71.6 1326.75 69.2702 1331.96 64.5811C1337.19 59.8747 1339.73 52.941 1339.73 44.1H1337.73C1337.73 52.559 1335.31 58.8753 1330.62 63.0939C1325.91 67.3298 1318.74 69.6 1308.93 69.6V71.6ZM1339.73 44.1V2.5H1337.73V44.1H1339.73ZM1338.73 1.5H1323.63V3.5H1338.73V1.5ZM1322.63 2.5V42H1324.63V2.5H1322.63ZM1322.63 42C1322.63 48.3691 1321.41 52.0781 1319.25 54.2286C1317.09 56.3754 1313.76 57.2 1308.93 57.2V59.2C1313.9 59.2 1317.92 58.3746 1320.66 55.6464C1323.4 52.9219 1324.63 48.5308 1324.63 42H1322.63ZM1308.93 57.2C1304.1 57.2 1300.77 56.3754 1298.61 54.2286C1296.45 52.0781 1295.23 48.3691 1295.23 42H1293.23C1293.23 48.5308 1294.46 52.9219 1297.2 55.6464C1299.94 58.3746 1303.96 59.2 1308.93 59.2V57.2ZM1295.23 42V2.5H1293.23V42H1295.23ZM1294.23 1.5H1279.03V3.5H1294.23V1.5ZM1278.03 2.5V44.1H1280.03V2.5H1278.03ZM1415.68 42.1L1416.68 42.1727L1416.75 41.1H1415.68V42.1ZM1399.98 42.1V41.1H1399.05L1398.98 42.0233L1399.98 42.1ZM1399.78 28.6L1398.78 28.6915L1398.87 29.6H1399.78V28.6ZM1415.38 28.6V29.6H1416.47L1416.38 28.5179L1415.38 28.6ZM1381.58 71.7C1393.44 71.7 1401.9 69.3327 1407.58 64.3516C1413.27 59.3579 1415.97 51.9041 1416.68 42.1727L1414.68 42.0273C1413.99 51.4959 1411.39 58.3421 1406.26 62.8484C1401.11 67.3673 1393.22 69.7 1381.58 69.7V71.7ZM1415.68 41.1H1399.98V43.1H1415.68V41.1ZM1398.98 42.0233C1398.59 47.094 1397.19 50.8299 1394.5 53.3154C1391.81 55.8029 1387.65 57.2 1381.38 57.2V59.2C1387.91 59.2 1392.65 57.7471 1395.86 54.7846C1399.07 51.8201 1400.57 47.506 1400.98 42.1767L1398.98 42.0233ZM1381.38 57.2C1374.93 57.2 1370.59 55.3411 1367.82 51.8875C1365.02 48.3863 1363.68 43.0607 1363.68 35.8H1361.68C1361.68 43.2393 1363.04 49.1137 1366.26 53.1375C1369.52 57.2089 1374.53 59.2 1381.38 59.2V57.2ZM1363.68 35.8C1363.68 28.45 1365.12 23.0766 1368.03 19.5489C1370.9 16.0613 1375.37 14.2 1381.88 14.2V12.2C1374.98 12.2 1369.86 14.1887 1366.48 18.2761C1363.14 22.3234 1361.68 28.25 1361.68 35.8H1363.68ZM1381.88 14.2C1387.89 14.2 1391.85 15.5692 1394.42 17.9576C1397 20.3476 1398.34 23.916 1398.78 28.6915L1400.78 28.5085C1400.31 23.484 1398.86 19.3524 1395.79 16.4924C1392.71 13.6308 1388.17 12.2 1381.88 12.2V14.2ZM1399.78 29.6H1415.38V27.6H1399.78V29.6ZM1416.38 28.5179C1415.61 19.2736 1412.86 12.0301 1407.21 7.12047C1401.58 2.22218 1393.25 -0.200004 1381.68 -0.200004V1.8C1393.01 1.8 1400.78 4.17782 1405.9 8.62953C1411 13.0699 1413.64 19.7264 1414.38 28.6821L1416.38 28.5179ZM1381.68 -0.200004C1368.94 -0.200004 1359.92 4.03879 1354.1 10.7444C1348.3 17.4258 1345.78 26.434 1345.78 35.8H1347.78C1347.78 26.766 1350.21 18.2742 1355.61 12.0556C1360.99 5.8612 1369.42 1.8 1381.68 1.8V-0.200004ZM1345.78 35.8C1345.78 45.3109 1348.27 54.2975 1354.05 60.9201C1359.85 67.5662 1368.85 71.7 1381.58 71.7V69.7C1369.31 69.7 1360.91 65.7338 1355.56 59.6049C1350.19 53.4525 1347.78 44.9891 1347.78 35.8H1345.78ZM1469.75 2.5V1.5H1468.75V2.5H1469.75ZM1469.75 29.1V30.1H1470.75V29.1H1469.75ZM1439.25 29.1H1438.25V30.1H1439.25V29.1ZM1439.25 2.5H1440.25V1.5H1439.25V2.5ZM1424.15 2.5V1.5H1423.15V2.5H1424.15ZM1424.15 69H1423.15V70H1424.15V69ZM1439.25 69V70H1440.25V69H1439.25ZM1439.25 41V40H1438.25V41H1439.25ZM1469.75 41H1470.75V40H1469.75V41ZM1469.75 69H1468.75V70H1469.75V69ZM1484.95 69V70H1485.95V69H1484.95ZM1484.95 2.5H1485.95V1.5H1484.95V2.5ZM1468.75 2.5V29.1H1470.75V2.5H1468.75ZM1469.75 28.1H1439.25V30.1H1469.75V28.1ZM1440.25 29.1V2.5H1438.25V29.1H1440.25ZM1439.25 1.5H1424.15V3.5H1439.25V1.5ZM1423.15 2.5V69H1425.15V2.5H1423.15ZM1424.15 70H1439.25V68H1424.15V70ZM1440.25 69V41H1438.25V69H1440.25ZM1439.25 42H1469.75V40H1439.25V42ZM1468.75 41V69H1470.75V41H1468.75ZM1469.75 70H1484.95V68H1469.75V70ZM1485.95 69V2.5H1483.95V69H1485.95ZM1484.95 1.5H1469.75V3.5H1484.95V1.5Z" fill="black"/>
</svg>
