<svg width="317" height="248" viewBox="0 0 317 248" fill="none" xmlns="http://www.w3.org/2000/svg">
<path d="M65.2942 0.500049L57.3742 24.215L49.0042 0.500049H37.0792L28.7092 24.215L20.7892 0.500049H10.1242L21.5092 32H35.8192L43.0642 10.67L50.2642 32H64.5742L75.9142 0.500049H65.2942Z" fill="white"/>
<path d="M110.847 8.19505V0.500049H77.5469V32H110.847V24.305H87.4469V19.625H110.847V12.8751H87.4469V8.19505H110.847Z" fill="white"/>
<path d="M165.822 8.19505V0.500049H132.522V32H165.822V24.305H142.422V19.625H165.822V12.8751H142.422V8.19505H165.822Z" fill="white"/>
<path d="M167.273 32H180.548L190.493 22.1L200.483 32H213.713L197.423 16.25L213.713 0.500049H200.483L190.493 10.4001L180.548 0.500049H167.273L183.608 16.25L167.273 32Z" fill="white"/>
<path d="M224.908 0.500049H215.008V32H224.908V0.500049Z" fill="white"/>
<path d="M226.906 21.0201C226.906 30.2451 234.376 32.4501 247.291 32.4501C259.576 32.4501 267.136 30.515 267.136 21.965C267.136 13.82 259.441 13.055 247.021 12.47C239.056 12.11 237.526 11.885 237.526 10.04C237.526 8.28505 239.056 7.74505 245.761 7.74505C252.826 7.74505 255.886 8.37505 255.886 10.94H265.786C265.786 3.02005 258.766 0.0500488 246.661 0.0500488C234.556 0.0500488 227.626 2.61505 227.626 9.54505C227.626 16.7901 233.071 19.04 247.021 19.58C255.841 19.94 257.236 20.21 257.236 22.2351C257.236 24.0351 255.436 24.7551 247.741 24.7551C238.921 24.7551 236.806 23.4501 236.806 21.0201H226.906Z" fill="white"/>
<path d="M305.816 0.500049H267.116V8.87005H281.516V32H291.416V8.87005H305.816V0.500049Z" fill="white"/>
<path d="M59.2393 54.5H20.5393V62.8701H34.9393V86.0001H44.8393V62.8701H59.2393V54.5Z" fill="white"/>
<path d="M79.6264 86.4501C93.4414 86.4501 99.4264 80.8701 99.4264 70.2051C99.4264 59.5851 93.4414 54.05 79.6264 54.05C65.7664 54.05 59.8264 59.5401 59.8264 70.2051C59.8264 80.9151 65.7664 86.4501 79.6264 86.4501ZM79.6264 78.0801C71.9764 78.0801 69.7264 75.1101 69.7264 70.2051C69.7264 65.3451 71.9314 62.42 79.6264 62.42C87.3664 62.42 89.5264 65.3901 89.5264 70.2051C89.5264 75.0651 87.3214 78.0801 79.6264 78.0801Z" fill="white"/>
<path d="M155.567 68.6301C157.097 66.8751 158.042 64.76 158.042 62.645C158.042 57.92 155.837 54.5 148.682 54.5H121.097V86.0001H149.897C157.052 86.0001 160.157 81.995 160.157 76.73C160.157 73.22 158.312 70.4301 155.567 68.6301ZM130.997 61.25H144.767C146.477 61.25 148.142 61.25 148.142 63.725C148.142 66.2 146.477 66.2001 144.767 66.2001H130.997V61.25ZM146.882 78.6201H130.997V73.6251H146.882C148.592 73.6251 150.257 73.6251 150.257 76.1001C150.257 78.6201 148.592 78.6201 146.882 78.6201Z" fill="white"/>
<path d="M198.952 66.2901C198.952 59.2701 194.047 54.5 186.892 54.5H162.142V86.0001H172.042V78.1251H182.077L186.757 86.0001H198.457L192.787 76.8201C196.612 74.9751 198.952 71.1501 198.952 66.2901ZM172.042 62.8701H184.642C186.487 62.8701 189.052 62.8701 189.052 66.2901C189.052 69.7551 186.487 69.7551 184.642 69.7551H172.042V62.8701Z" fill="white"/>
<path d="M210.845 54.5H200.945V86.0001H210.845V54.5Z" fill="white"/>
<path d="M244.248 54.5V75.8301L226.743 54.5H213.558V86.0001H223.458V64.5801L241.008 86.0001H254.148V54.5H244.248Z" fill="white"/>
<path d="M275.214 74.7501H285.339C285.024 77.0001 282.054 79.0701 275.889 79.0701C267.204 79.0701 265.854 74.3451 265.854 70.5201C265.854 66.74 267.159 62.42 275.889 62.42C282.639 62.42 284.889 64.9401 285.339 66.9201H295.419C294.924 58.7301 288.489 54.05 275.889 54.05C262.929 54.05 255.954 59.5401 255.954 70.2051C255.954 80.9601 262.929 86.4501 274.539 86.4501C281.199 86.4501 285.654 84.4251 288.489 81.2751L289.074 86.0001H295.419V68.9901H275.214V74.7501Z" fill="white"/>
<path d="M37.8098 116.87V108.5H4.50977V140H14.4098V130.91H35.1098V122.54H14.4098V116.87H37.8098Z" fill="white"/>
<path d="M49.6978 108.5H39.7979V140H49.6978V108.5Z" fill="white"/>
<path d="M83.1002 108.5V129.83L65.5952 108.5H52.4102V140H62.3102V118.58L79.8602 140H93.0002V108.5H83.1002Z" fill="white"/>
<path d="M126.991 140H137.881L123.256 108.5H109.081L94.4113 140H105.346L108.046 133.835H124.291L126.991 140ZM111.196 126.725L116.191 115.43L121.141 126.725H111.196Z" fill="white"/>
<path d="M169.98 108.5V129.83L152.475 108.5H139.29V140H149.19V118.58L166.74 140H179.88V108.5H169.98Z" fill="white"/>
<path d="M181.687 124.205C181.687 134.915 187.627 140.45 201.487 140.45C214.087 140.45 220.522 135.815 221.152 126.275H211.072C210.487 130.325 207.337 132.08 201.487 132.08C193.972 132.08 191.587 129.11 191.587 124.205C191.587 119.345 193.927 116.42 201.487 116.42C207.337 116.42 210.487 118.13 211.072 122.135H221.152C220.522 112.64 214.087 108.05 201.487 108.05C187.627 108.05 181.687 113.54 181.687 124.205Z" fill="white"/>
<path d="M233.17 108.5H223.27V140H233.17V108.5Z" fill="white"/>
<path d="M267.177 140H278.067L263.442 108.5H249.267L234.597 140H245.532L248.232 133.835H264.477L267.177 140ZM251.382 126.725L256.377 115.43L261.327 126.725H251.382Z" fill="white"/>
<path d="M289.376 131.63V108.5H279.476V140H311.876V131.63H289.376Z" fill="white"/>
<path d="M24.8652 162.5H0.115234V194H10.0152V186.125H24.8652C32.0202 186.125 36.9252 181.31 36.9252 174.29C36.9252 167.27 32.0202 162.5 24.8652 162.5ZM22.6152 177.755H10.0152V170.87H22.6152C24.4602 170.87 27.0252 170.87 27.0252 174.29C27.0252 177.755 24.4602 177.755 22.6152 177.755Z" fill="white"/>
<path d="M58.2689 194.45C72.0839 194.45 78.0689 188.87 78.0689 178.205C78.0689 167.585 72.0839 162.05 58.2689 162.05C44.4089 162.05 38.4689 167.54 38.4689 178.205C38.4689 188.915 44.4089 194.45 58.2689 194.45ZM58.2689 186.08C50.6189 186.08 48.3689 183.11 48.3689 178.205C48.3689 173.345 50.5739 170.42 58.2689 170.42C66.0089 170.42 68.1689 173.39 68.1689 178.205C68.1689 183.065 65.9639 186.08 58.2689 186.08Z" fill="white"/>
<path d="M131.696 162.5L123.776 186.215L115.406 162.5H103.481L95.1106 186.215L87.1906 162.5H76.5256L87.9106 194H102.221L109.466 172.67L116.666 194H130.976L142.316 162.5H131.696Z" fill="white"/>
<path d="M177.248 170.195V162.5H143.948V194H177.248V186.305H153.848V181.625H177.248V174.875H153.848V170.195H177.248Z" fill="white"/>
<path d="M216.178 174.29C216.178 167.27 211.273 162.5 204.118 162.5H179.368V194H189.268V186.125H199.303L203.983 194H215.683L210.013 184.82C213.838 182.975 216.178 179.15 216.178 174.29ZM189.268 170.87H201.868C203.713 170.87 206.278 170.87 206.278 174.29C206.278 177.755 203.713 177.755 201.868 177.755H189.268V170.87Z" fill="white"/>
<path d="M276.109 162.5H237.409V170.87H251.809V194H261.709V170.87H276.109V162.5Z" fill="white"/>
<path d="M296.496 194.45C310.311 194.45 316.297 188.87 316.297 178.205C316.297 167.585 310.311 162.05 296.496 162.05C282.636 162.05 276.697 167.54 276.697 178.205C276.697 188.915 282.636 194.45 296.496 194.45ZM296.496 186.08C288.846 186.08 286.596 183.11 286.596 178.205C286.596 173.345 288.801 170.42 296.496 170.42C304.236 170.42 306.396 173.39 306.396 178.205C306.396 183.065 304.191 186.08 296.496 186.08Z" fill="white"/>
<path d="M128.529 248H139.419L124.794 216.5H110.619L95.9494 248H106.884L109.584 241.835H125.829L128.529 248ZM112.734 234.725L117.729 223.43L122.679 234.725H112.734Z" fill="white"/>
<path d="M150.728 239.63V216.5H140.828V248H173.228V239.63H150.728Z" fill="white"/>
<path d="M185.401 239.63V216.5H175.501V248H207.901V239.63H185.401Z" fill="white"/>
<path d="M210.306 240.935V248H219.576V240.935H210.306Z" fill="white"/>
</svg>
