<svg width="185" height="116" viewBox="0 0 185 116" fill="none" xmlns="http://www.w3.org/2000/svg">
<path fill-rule="evenodd" clip-rule="evenodd" d="M144.925 40.6924V48.0257H149.927V53.2052H144.925V67.4618C144.925 69 145.279 69.8207 147.25 69.8207L149.927 69.872V75.3078H144.572C140.277 75.3078 138.206 72.8465 138.206 69.1028V53.2052H133.911V48.0257H138.206V40.6924H144.925ZM42.6073 40.7635L48.5368 66.1247L55.0977 40.7693H63.1438L69.7103 66.1246L75.6392 40.7693H83.2399L74.4975 75.2977H65.8418L59.1471 50.9187L52.4179 75.2977H44.1837L35 40.7635H42.6073ZM95.0473 47.4073C102.373 47.4073 107.931 52.7087 107.931 60.686L107.93 61.1024C107.928 61.5743 107.919 62.0325 107.88 62.857H88.8332C88.8332 67.5021 91.6117 69.9258 95.4012 69.9258C98.2809 69.9258 100.251 68.411 101.009 65.8359H107.627C106.92 71.4403 101.615 75.2774 95.2496 75.2774C87.2668 75.2774 81.7597 69.2695 81.7597 61.3424C81.7597 52.9613 87.4184 47.4073 95.0473 47.4073ZM121.432 47.4073C128.404 47.4073 132.294 51.1436 132.294 56.3441H125.777C125.777 54.0719 124.564 52.2038 121.331 52.2038C118.754 52.2038 117.491 53.4661 117.491 54.9302C117.491 56.6974 118.653 57.4547 122.089 58.313C122.632 58.4559 123.198 58.5942 123.773 58.7366L124.351 58.8806L124.934 59.0291C129.116 60.1141 133.406 61.694 133.406 66.8964C133.406 71.9451 128.707 75.2774 121.786 75.2774C114.763 75.2774 110.115 71.4908 110.064 65.8359H116.582C116.633 68.6634 118.906 70.2791 121.887 70.2791C124.767 70.2791 126.333 69.2186 126.333 67.5021C126.333 65.2424 124.563 65.0379 119.442 63.8192L119.007 63.7154C113.146 62.3521 110.822 59.8278 110.822 55.5866C110.822 50.8406 115.016 47.4073 121.432 47.4073ZM95.0473 52.7594C91.4602 52.7594 89.1868 55.0817 88.8835 58.5149H101.11C100.807 54.7788 98.3819 52.7594 95.0473 52.7594Z" fill="white"/>
</svg>
