<svg width="276" height="152" viewBox="0 0 276 152" fill="none" xmlns="http://www.w3.org/2000/svg">
<rect x="0.5" y="0.5" width="275" height="151" rx="7.5" fill="white" stroke="#E5E5E5"/>
<rect x="0.5" y="0.5" width="275" height="151" rx="7.5" fill="#15181D" stroke="#23262E"/>
<rect x="26.3902" y="23.3902" width="229.22" height="128.22" rx="1.14568" fill="#0D0F12"/>
<rect x="26.3902" y="23.3902" width="229.22" height="128.22" rx="1.14568" stroke="#23262E" stroke-width="0.780455"/>
<rect x="38.5081" y="46.5081" width="203.984" height="40.9837" rx="1.49186" fill="#111418"/>
<path fill-rule="evenodd" clip-rule="evenodd" d="M73 54.931C73 53.8646 72.1354 53 71.069 53H46.931C45.8646 53 45 53.8646 45 54.931V79.069C45 80.1354 45.8646 81 46.931 81H71.069C72.1354 81 73 80.1354 73 79.069V54.931ZM58.403 72.5678L66.0393 63.0223L64.0516 61.4322L57.2378 69.9495L53.7828 66.9882L52.1263 68.9209L56.5808 72.7391L57.5804 73.5959L58.403 72.5678Z" fill="#272C35"/>
<rect x="80" y="53" width="150" height="5.55556" rx="0.925926" fill="#272C35"/>
<rect x="80" y="63.7778" width="127" height="6" rx="1" fill="#272C35"/>
<rect x="80" y="75" width="104" height="6" rx="1" fill="#272C35"/>
<rect x="38.5081" y="46.5081" width="203.984" height="40.9837" rx="1.49186" stroke="#23262E" stroke-width="1.01628"/>
<rect x="38.5081" y="96.5081" width="203.984" height="40.9837" rx="1.49186" fill="#111418"/>
<path fill-rule="evenodd" clip-rule="evenodd" d="M73 104.931C73 103.865 72.1354 103 71.069 103H46.931C45.8646 103 45 103.865 45 104.931V129.069C45 130.135 45.8646 131 46.931 131H71.069C72.1354 131 73 130.135 73 129.069V104.931ZM58.403 122.568L66.0393 113.022L64.0516 111.432L57.2378 119.95L53.7828 116.988L52.1263 118.921L56.5808 122.739L57.5804 123.596L58.403 122.568Z" fill="#272C35"/>
<rect x="80" y="103" width="150" height="5.55556" rx="0.925926" fill="#272C35"/>
<rect x="80" y="113.778" width="127" height="6" rx="1" fill="#272C35"/>
<rect x="80" y="125" width="104" height="6" rx="1" fill="#272C35"/>
<rect x="38.5081" y="96.5081" width="203.984" height="40.9837" rx="1.49186" stroke="#23262E" stroke-width="1.01628"/>
<path d="M26 24.5359C26 23.6877 26.6877 23 27.5359 23H254.464C255.312 23 256 23.6877 256 24.5359V36H26V24.5359Z" fill="#272C35"/>
<circle cx="33" cy="30" r="2" fill="#0D0F12"/>
<circle cx="41" cy="30" r="2" fill="#0D0F12"/>
<circle cx="49" cy="30" r="2" fill="#0D0F12"/>
</svg>
