<svg width="23" height="22" viewBox="0 0 23 22" fill="none" xmlns="http://www.w3.org/2000/svg">
<path d="M8.44423 20.1668C10.1309 20.1668 11.4998 18.7979 11.4998 17.1112V14.0557H8.44423C6.75756 14.0557 5.38867 15.4246 5.38867 17.1112C5.38867 18.7979 6.75756 20.1668 8.44423 20.1668Z" fill="#0ACF83"/>
<path d="M5.38867 10.9999C5.38867 9.31323 6.75756 7.94434 8.44423 7.94434H11.4998V14.0554H8.44423C6.75756 14.0554 5.38867 12.6866 5.38867 10.9999Z" fill="#A259FF"/>
<path d="M5.38867 4.88856C5.38867 3.2019 6.75756 1.83301 8.44423 1.83301H11.4998V7.94412H8.44423C6.75756 7.94412 5.38867 6.57523 5.38867 4.88856Z" fill="#F24E1E"/>
<path d="M11.5 1.83301H14.5556C16.2422 1.83301 17.6111 3.2019 17.6111 4.88856C17.6111 6.57523 16.2422 7.94412 14.5556 7.94412H11.5V1.83301Z" fill="#FF7262"/>
<path d="M17.6111 10.9999C17.6111 12.6866 16.2422 14.0554 14.5556 14.0554C12.8689 14.0554 11.5 12.6866 11.5 10.9999C11.5 9.31323 12.8689 7.94434 14.5556 7.94434C16.2422 7.94434 17.6111 9.31323 17.6111 10.9999Z" fill="#1ABCFE"/>
</svg>
