<svg width="32" height="32" viewBox="0 0 32 32" fill="none" xmlns="http://www.w3.org/2000/svg">
<g clip-path="url(#clip0_2051_69503)">
<path d="M32 12.3733C32.0257 12.0216 31.9111 11.6741 31.6812 11.4067C31.4513 11.1393 31.1249 10.9739 30.7733 10.9466C30.5981 10.9321 30.4218 10.9523 30.2544 11.0061C30.087 11.06 29.932 11.1464 29.7981 11.2604C29.6643 11.3744 29.5543 11.5137 29.4746 11.6704C29.3948 11.8271 29.3468 11.998 29.3333 12.1733C29.3302 12.2182 29.311 12.2606 29.2791 12.2924C29.2473 12.3243 29.2049 12.3435 29.16 12.3466C29.115 12.3483 29.0708 12.3347 29.0345 12.308C28.9982 12.2814 28.972 12.2434 28.96 12.2C28.3137 9.96592 26.9736 7.99536 25.1333 6.5733C23.4663 5.2879 21.5447 4.3722 19.4963 3.88712C17.448 3.40204 15.3198 3.35869 13.2533 3.75997C13.1909 3.77029 13.1268 3.76332 13.0681 3.73981C13.0093 3.71631 12.9581 3.67717 12.92 3.62664C12.2866 2.7846 11.4179 2.14907 10.4236 1.80025C9.42933 1.45142 8.35401 1.40493 7.33333 1.66664C7.09702 1.72929 6.88247 1.85571 6.71316 2.03207C6.54385 2.20844 6.42629 2.42796 6.37333 2.66664C6.30752 2.90176 6.30753 3.15044 6.37336 3.38556C6.43919 3.62068 6.56832 3.83321 6.74667 3.99997C7.23587 4.46299 7.6024 5.04027 7.81333 5.67997C7.834 5.74827 7.8322 5.82141 7.8082 5.88861C7.7842 5.95582 7.73926 6.01354 7.68 6.0533C5.33492 7.5532 3.64034 9.88086 2.93333 12.5733C2.92034 12.6378 2.88776 12.6968 2.84003 12.7421C2.79231 12.7874 2.73177 12.817 2.66667 12.8266H2C1.46957 12.8266 0.960859 13.0374 0.585786 13.4124C0.210714 13.7875 0 14.2962 0 14.8266L0 17.4933C0 18.0237 0.210714 18.5324 0.585786 18.9075C0.960859 19.2826 1.46957 19.4933 2 19.4933H3.65333C3.7133 19.4931 3.7722 19.5092 3.82382 19.5397C3.87544 19.5702 3.91788 19.614 3.94667 19.6666C4.93113 21.4452 6.35981 22.9382 8.09333 24C8.15608 24.0401 8.20422 24.0994 8.23064 24.169C8.25705 24.2387 8.26034 24.315 8.24 24.3866L7.06667 28.3866C6.94655 28.8109 6.99806 29.2654 7.21009 29.6521C7.42212 30.0387 7.77767 30.3265 8.2 30.4533C8.35499 30.4721 8.51168 30.4721 8.66667 30.4533C9.01728 30.4587 9.36064 30.3533 9.64791 30.1522C9.93517 29.9511 10.1517 29.6646 10.2667 29.3333L11.2933 25.8C11.3224 25.7171 11.3788 25.6465 11.4533 25.6C11.5357 25.5735 11.6243 25.5735 11.7067 25.6C13.1004 26.0131 14.5463 26.2241 16 26.2266C17.4532 26.2305 18.8993 26.0239 20.2933 25.6133C20.3333 25.5961 20.3764 25.5872 20.42 25.5872C20.4636 25.5872 20.5067 25.5961 20.5467 25.6133C20.5867 25.6324 20.6219 25.6603 20.6497 25.6949C20.6774 25.7296 20.6969 25.77 20.7067 25.8133L21.7333 29.3333C21.8343 29.6795 22.0448 29.9836 22.3333 30.2C22.6218 30.4163 22.9727 30.5333 23.3333 30.5333C23.4883 30.5521 23.645 30.5521 23.8 30.5333C24.2223 30.4065 24.5779 30.1187 24.7899 29.7321C25.0019 29.3454 25.0535 28.8909 24.9333 28.4666L23.76 24.4666C23.7382 24.397 23.7409 24.322 23.7676 24.2541C23.7943 24.1862 23.8433 24.1295 23.9067 24.0933C25.3236 23.2534 26.5368 22.1099 27.459 20.7451C28.3812 19.3802 28.9895 17.828 29.24 16.2C29.2456 16.1414 29.2673 16.0856 29.3025 16.0385C29.3378 15.9915 29.3854 15.9551 29.44 15.9333C30.167 15.6536 30.7965 15.1678 31.2513 14.5353C31.706 13.9029 31.9663 13.1515 32 12.3733ZM22.8 10.1066C22.7048 10.2276 22.5833 10.3253 22.4446 10.3923C22.306 10.4593 22.154 10.4939 22 10.4933C21.7825 10.5008 21.5695 10.4298 21.4 10.2933C19.6727 9.0111 17.5468 8.38277 15.4 8.51997C15.2682 8.53086 15.1356 8.51516 15.0101 8.4738C14.8845 8.43244 14.7685 8.36626 14.669 8.2792C14.5695 8.19214 14.4885 8.08597 14.4309 7.967C14.3732 7.84802 14.34 7.71868 14.3333 7.58664C14.3186 7.32212 14.408 7.06236 14.5825 6.86298C14.7569 6.6636 15.0025 6.54048 15.2667 6.51997C17.9166 6.33018 20.5455 7.10702 22.6667 8.70664C22.8687 8.87545 22.996 9.11713 23.021 9.37924C23.046 9.64135 22.9666 9.90272 22.8 10.1066ZM8 14.16C7.73629 14.16 7.47851 14.0818 7.25924 13.9353C7.03998 13.7888 6.86908 13.5805 6.76816 13.3369C6.66724 13.0932 6.64084 12.8252 6.69229 12.5665C6.74373 12.3079 6.87072 12.0703 7.05719 11.8838C7.24366 11.6974 7.48124 11.5704 7.73988 11.5189C7.99852 11.4675 8.26661 11.4939 8.51025 11.5948C8.75388 11.6957 8.96212 11.8666 9.10863 12.0859C9.25514 12.3051 9.33333 12.5629 9.33333 12.8266C9.33333 13.1803 9.19286 13.5194 8.94281 13.7694C8.69276 14.0195 8.35362 14.16 8 14.16Z" fill="url(#paint0_linear_2051_69503)"/>
</g>
<defs>
<linearGradient id="paint0_linear_2051_69503" x1="16.0018" y1="1.49951" x2="16.0018" y2="30.5474" gradientUnits="userSpaceOnUse">
<stop offset="0.244792" stop-color="#F971BA"/>
<stop offset="1" stop-color="#8932F7"/>
</linearGradient>
<clipPath id="clip0_2051_69503">
<rect width="32" height="32" fill="white"/>
</clipPath>
</defs>
</svg>
