<svg width="24" height="24" viewBox="0 0 24 24" fill="none" xmlns="http://www.w3.org/2000/svg">
<g clip-path="url(#clip0_65_16)">
<path d="M4.8 1.2C4.8 0.88174 4.67357 0.576516 4.44853 0.351472C4.22348 0.126428 3.91826 0 3.6 0L2.4 0C1.76348 0 1.15303 0.252856 0.702944 0.702944C0.252856 1.15303 0 1.76348 0 2.4L0 21.6C0 22.2365 0.252856 22.847 0.702944 23.2971C1.15303 23.7471 1.76348 24 2.4 24H3.6C3.75738 24.0019 3.91342 23.9709 4.05809 23.9089C4.20276 23.8469 4.33285 23.7553 4.44 23.64C4.55529 23.5329 4.64688 23.4028 4.70888 23.2581C4.77088 23.1134 4.80192 22.9574 4.8 22.8V1.2Z" fill="white"/>
<path d="M21.6 0H8.40001C8.08175 0 7.77653 0.126428 7.55148 0.351472C7.32644 0.576516 7.20001 0.88174 7.20001 1.2V22.8C7.20001 23.1183 7.32644 23.4235 7.55148 23.6485C7.77653 23.8736 8.08175 24 8.40001 24H21.6C22.2365 24 22.847 23.7471 23.2971 23.2971C23.7472 22.847 24 22.2365 24 21.6V2.4C24 1.76348 23.7472 1.15303 23.2971 0.702944C22.847 0.252856 22.2365 0 21.6 0ZM19.2 7.2C19.2 7.51826 19.0736 7.82348 18.8485 8.04853C18.6235 8.27357 18.3183 8.4 18 8.4H13.2C12.8818 8.4 12.5765 8.27357 12.3515 8.04853C12.1264 7.82348 12 7.51826 12 7.2V6C12 5.68174 12.1264 5.37652 12.3515 5.15147C12.5765 4.92643 12.8818 4.8 13.2 4.8H18C18.3183 4.8 18.6235 4.92643 18.8485 5.15147C19.0736 5.37652 19.2 5.68174 19.2 6V7.2Z" fill="white"/>
</g>
<defs>
<clipPath id="clip0_65_16">
<rect width="24" height="24" fill="white"/>
</clipPath>
</defs>
</svg>
