<svg width="100" height="100" viewBox="0 0 100 100" fill="none" xmlns="http://www.w3.org/2000/svg">
<path d="M50 0L55.1757 30.6812L75.0013 6.69856L64.1431 35.8594L93.3014 25.0013L69.3188 44.8243L100 50L69.3188 55.1757L93.3014 75.0013L64.1431 64.1431L75.0013 93.3014L55.1757 69.3188L50 100L44.8243 69.3188L25.0013 93.3014L35.8594 64.1431L6.69856 75.0013L30.6812 55.1757L0 50L30.6812 44.8243L6.69856 25.0013L35.8594 35.8594L25.0013 6.69856L44.8243 30.6812L50 0Z" fill="#FF8480"/>
<path d="M50 33.4053L51.8907 42.9464L58.2986 35.6278L55.1628 44.8371L64.3721 41.7039L57.0536 48.1118L66.5946 49.9999L57.0536 51.8906L64.3721 58.2985L55.1628 55.1627L58.2986 64.372L51.8907 57.0535L50 66.5945L48.1119 57.0535L41.704 64.372L44.8372 55.1627L35.6279 58.2985L42.9464 51.8906L33.4054 49.9999L42.9464 48.1118L35.6279 41.7039L44.8372 44.8371L41.704 35.6278L48.1119 42.9464L50 33.4053Z" fill="#FFF400"/>
</svg>
